{
.appVersion = "3249";
.formatVersion = 3;
axes = (
{
name = Weight;
tag = wght;
}
);
classes = (
{
automatic = 1;
code = "A Aacute Abreve Acircumflex Adieresis Adotbelow Agrave Amacron Aogonek Aring Aringacute Atilde AE AEacute B C Cacute Ccaron Ccedilla Ccircumflex Cdotaccent D Dcaron Dcroat Eth E Eacute Ebreve Ecaron Ecircumflex Edieresis Edotaccent Edotbelow Egrave Emacron Eogonek Etilde Schwa F G Gbreve Gcaron Gcircumflex Gcommaaccent Gdotaccent H Hbar Hcircumflex I IJ Iacute Ibreve Icircumflex Idieresis Idotaccent Idotbelow Igrave Imacron Iogonek Itilde J Jcircumflex K Kcommaaccent L Lacute Lcaron Lcommaaccent Ldot Lslash M N Nacute Ncaron Ncommaaccent Nhookleft Ntilde Eng O Oacute Obreve Ocircumflex Odieresis Odotbelow Ograve Ohungarumlaut Omacron Oogonek Oslash Oslashacute Otilde OE P Thorn Q R Racute Rcaron Rcedilla S Sacute Scaron Scedilla Scircumflex Scommaaccent Germandbls T Tbar Tcaron Tcedilla Tcommaaccent U Uacute Ubreve Ucircumflex Udieresis Udotbelow Ugrave Uhungarumlaut Umacron Uogonek Uring Utilde V W Wacute Wcircumflex Wdieresis Wgrave X Y Yacute Ycircumflex Ydieresis Ygrave Ymacron Ytilde Z Zacute Zcaron Zdotaccent Delta Omega";
name = Uppercase;
}
);
customParameters = (
{
name = fsType;
value = (
);
},
{
name = "Use Typo Metrics";
value = 1;
}
);
date = "2024-03-20 13:28:04 +0000";
familyName = "Radio Canada Display";
featurePrefixes = (
{
automatic = 1;
code = "languagesystem DFLT dflt;

languagesystem latn dflt;
languagesystem latn AZE;
languagesystem latn CRT;
languagesystem latn KAZ;
languagesystem latn TAT;
languagesystem latn TRK;
languagesystem latn ROM;
languagesystem latn MOL;
languagesystem latn CAT;
";
name = Languagesystems;
}
);
features = (
{
automatic = 1;
code = "feature locl;
feature sups;
feature frac;
feature ordn;
feature case;
feature pnum;
feature tnum;
";
tag = aalt;
},
{
automatic = 1;
code = "script latn;
language AZE;
lookup locl_latn_0 {
	sub i by idotaccent;
} locl_latn_0;
language CRT;
lookup locl_latn_0;

glyphs = (
{
color = 6;
glyphname = A;
kernLeft = A;
kernRight = A;
lastChange = "2024-03-21 13:34:41 +0000";
layers = (
{
anchors = (
{
name = bottom;
pos = (337,0);
},
{
name = ogonek;
pos = (675,0);
},
{
name = top;
pos = (337,690);
}
);
layerId = m001;
shapes = (
{
closed = 1;
nodes = (
(675,0,l),
(454,690,l),
(299,690,l),
(509,0,l)
);
},
{
closed = 1;
nodes = (
(163,0,l),
(367,690,l),
(221,690,l),
(0,0,l)
);
},
{
closed = 1;
nodes = (
(521,158,l),
(521,295,l),
(153,295,l),
(153,158,l)
);
}
);
width = 675;
},
{
anchors = (
{
name = bottom;
pos = (331,0);
},
{
name = ogonek;
pos = (645,0);
},
{
name = top;
pos = (331,690);
}
);
background = {
anchors = (
{
name = bottom;
pos = (331,0);
},
{
name = top;
pos = (331,690);
}
);
shapes = (
{
closed = 1;
nodes = (
(645,0,l),
(406,690,l),
(304,690,l),
(535,0,l)
);
},
{
closed = 1;
nodes = (
(122,0,l),
(348,690,l),
(254,690,l),
(15,0,l)
);
},
{
closed = 1;
nodes = (
(514,191,l),
(514,287,l),
(146,287,l),
(146,191,l)
);
}
);
};
layerId = "0EB46722-B91C-41F5-AE00-C58F8D8E3AB4";
shapes = (
{
closed = 1;
nodes = (
(645,0,l),
(406,690,l),
(304,690,l),
(535,0,l)
);
},
{
closed = 1;
nodes = (
(122,0,l),
(348,690,l),
(254,690,l),
(15,0,l)
);
},
{
closed = 1;
nodes = (
(514,191,l),
(514,287,l),
(146,287,l),
(146,191,l)
);
}
);
width = 660;
},
{
anchors = (
{
name = bottom;
pos = (331,0);
},
{
name = top;
pos = (331,690);
}
);
associatedMasterId = "0EB46722-B91C-41F5-AE00-C58F8D8E3AB4";
layerId = "89946EFA-3063-4597-8F39-C29AA3B0B012";
shapes = (
{
closed = 1;
nodes = (
(146,191,l),
(514,191,l),
(514,287,l),
(146,287,l)
);
},
{
closed = 1;
nodes = (
(304,690,l),
(535,0,l),
(645,0,l),
(406,690,l)
);
},
{
closed = 1;
nodes = (
(254,690,l),
(15,0,l),
(122,0,l),
(348,690,l)
);
}
);
width = 660;
}
);
unicode = 65;
},
{
color = 10;
glyphname = Aacute;
kernLeft = A;
kernRight = A;
lastChange = "2024-03-21 11:17:29 +0000";
layers = (
{
layerId = m001;
shapes = (
{
ref = A;
},
{
pos = (87,0);
ref = acutecomb.case;
}
);
width = 675;
},
{
background = {
anchors = (
{
name = bottom;
pos = (331,0);
},
{
name = top;
pos = (331,690);
}
);
shapes = (
{
closed = 1;
nodes = (
(645,0,l),
(406,690,l),
(304,690,l),
(535,0,l)
);
},
{
closed = 1;
nodes = (
(122,0,l),
(348,690,l),
(254,690,l),
(15,0,l)
);
},
{
closed = 1;
nodes = (
(514,191,l),
(514,287,l),
(146,287,l),
(146,191,l)
);
},
{
closed = 1;
nodes = (
(364,735,l),
(501,845,l),
(370,845,l),
(270,735,l)
);
}
);
};
layerId = "0EB46722-B91C-41F5-AE00-C58F8D8E3AB4";
shapes = (
{
ref = A;
},
{
pos = (81,0);
ref = acutecomb.case;
}
);
width = 660;
},
{
associatedMasterId = "0EB46722-B91C-41F5-AE00-C58F8D8E3AB4";
layerId = "89946EFA-3063-4597-8F39-C29AA3B0B012";
shapes = (
{
ref = A;
},
{
pos = (81,0);
ref = acutecomb.case;
}
);
width = 660;
}
);
unicode = 193;
},
{
color = 10;
glyphname = Abreve;
kernLeft = A;
kernRight = A;
lastChange = "2024-03-21 11:17:29 +0000";
layers = (
{
layerId = m001;
shapes = (
{
ref = A;
},
{
pos = (87,0);
ref = brevecomb.case;
}
);
width = 675;
},
{
background = {
anchors = (
{
name = bottom;
pos = (331,0);
},
{
name = top;
pos = (331,690);
}
);
shapes = (
{
closed = 1;
nodes = (
(645,0,l),
(406,690,l),
(304,690,l),
(535,0,l)
);
},
{
closed = 1;
nodes = (
(122,0,l),
(348,690,l),
(254,690,l),
(15,0,l)
);
},
{
closed = 1;
nodes = (
(514,191,l),
(514,287,l),
(146,287,l),
(146,191,l)
);
},
{
closed = 1;
nodes = (
(428,735,o),
(476,777,o),
(481,845,c),
(411,845,l),
(407,820,o),
(386,805,o),
(331,805,c),
(276,805,o),
(255,820,o),
(251,845,c),
(181,845,l),
(186,777,o),
(234,735,o),
(331,735,c)
);
}
);
};
layerId = "0EB46722-B91C-41F5-AE00-C58F8D8E3AB4";
shapes = (
{
ref = A;
},
{
pos = (81,0);
ref = brevecomb.case;
}
);
width = 660;
},
{
associatedMasterId = "0EB46722-B91C-41F5-AE00-C58F8D8E3AB4";
layerId = "89946EFA-3063-4597-8F39-C29AA3B0B012";
shapes = (
{
ref = A;
},
{
pos = (81,0);
ref = brevecomb.case;
}
);
width = 660;
}
);
unicode = 258;
},
{
color = 10;
glyphname = Acircumflex;
kernLeft = A;
kernRight = A;
lastChange = "2024-03-21 11:17:29 +0000";
layers = (
{
layerId = m001;
shapes = (
{
ref = A;
},
{
pos = (87,0);
ref = circumflexcomb.case;
}
);
width = 675;
},
{
background = {
anchors = (
{
name = bottom;
pos = (331,0);
},
{
name = top;
pos = (331,690);
}
);
shapes = (
{
closed = 1;
nodes = (
(645,0,l),
(406,690,l),
(304,690,l),
(535,0,l)
);
},
{
closed = 1;
nodes = (
(122,0,l),
(348,690,l),
(254,690,l),
(15,0,l)
);
},
{
closed = 1;
nodes = (
(514,191,l),
(514,287,l),
(146,287,l),
(146,191,l)
);
},
{
closed = 1;
nodes = (
(514,735,l),
(400,845,l),
(266,845,l),
(415,735,l)
);
},
{
closed = 1;
nodes = (
(247,735,l),
(396,845,l),
(262,845,l),
(148,735,l)
);
}
);
};
layerId = "0EB46722-B91C-41F5-AE00-C58F8D8E3AB4";
shapes = (
{
ref = A;
},
{
pos = (81,0);
ref = circumflexcomb.case;
}
);
width = 660;
},
{
associatedMasterId = "0EB46722-B91C-41F5-AE00-C58F8D8E3AB4";
layerId = "89946EFA-3063-4597-8F39-C29AA3B0B012";
shapes = (
{
ref = A;
},
{
pos = (81,0);
ref = circumflexcomb.case;
}
);
width = 660;
}
);
unicode = 194;
},
{
color = 10;
glyphname = Adieresis;
kernLeft = A;
kernRight = A;
lastChange = "2024-03-21 11:17:29 +0000";
layers = (
{
layerId = m001;
shapes = (
{
ref = A;
},
{
pos = (87,0);
ref = dieresiscomb.case;
}
);
width = 675;
},
{
background = {
anchors = (
{
name = bottom;
pos = (331,0);
},
{
name = top;
pos = (331,690);
}
);
shapes = (
{
closed = 1;
nodes = (
(645,0,l),
(406,690,l),
(304,690,l),
(535,0,l)
);
},
{
closed = 1;
nodes = (
(122,0,l),
(348,690,l),
(254,690,l),
(15,0,l)
);
},
{
closed = 1;
nodes = (
(514,191,l),
(514,287,l),
(146,287,l),
(146,191,l)
);
},
{
closed = 1;
nodes = (
(464,742,o),
(489,765,o),
(489,798,cs),
(489,832,o),
(464,855,o),
(432,855,cs),
(400,855,o),
(375,832,o),
(375,798,cs),
(375,765,o),
(400,742,o),
(432,742,cs)
);
},
{
closed = 1;
nodes = (
(262,742,o),
(287,765,o),
(287,798,cs),
(287,832,o),
(262,855,o),
(230,855,cs),
(198,855,o),
(173,832,o),
(173,798,cs),
(173,765,o),
(198,742,o),
(230,742,cs)
);
}
);
};
layerId = "0EB46722-B91C-41F5-AE00-C58F8D8E3AB4";
shapes = (
{
ref = A;
},
{
pos = (81,0);
ref = dieresiscomb.case;
}
);
width = 660;
},
{
associatedMasterId = "0EB46722-B91C-41F5-AE00-C58F8D8E3AB4";
layerId = "89946EFA-3063-4597-8F39-C29AA3B0B012";
shapes = (
{
ref = A;
},
{
pos = (81,0);
ref = dieresiscomb.case;
}
);
width = 660;
}
);
unicode = 196;
},
{
color = 10;
glyphname = Adotbelow;
kernLeft = A;
kernRight = A;
lastChange = "2024-03-21 11:17:29 +0000";
layers = (
{
layerId = m001;
shapes = (
{
ref = A;
},
{
pos = (87,0);
ref = dotbelow;
}
);
width = 675;
},
{
background = {
anchors = (
{
name = bottom;
pos = (331,0);
},
{
name = top;
pos = (331,690);
}
);
shapes = (
{
closed = 1;
nodes = (
(645,0,l),
(406,690,l),
(304,690,l),
(535,0,l)
);
},
{
closed = 1;
nodes = (
(122,0,l),
(348,690,l),
(254,690,l),
(15,0,l)
);
},
{
closed = 1;
nodes = (
(514,191,l),
(514,287,l),
(146,287,l),
(146,191,l)
);
},
{
closed = 1;
nodes = (
(366,-195,o),
(393,-170,o),
(393,-133,cs),
(393,-97,o),
(366,-72,o),
(331,-72,cs),
(296,-72,o),
(269,-97,o),
(269,-133,cs),
(269,-170,o),
(296,-195,o),
(331,-195,cs)
);
}
);
};
layerId = "0EB46722-B91C-41F5-AE00-C58F8D8E3AB4";
shapes = (
{
ref = A;
},
{
pos = (81,0);
ref = dotbelow;
}
);
width = 660;
},
{
associatedMasterId = "0EB46722-B91C-41F5-AE00-C58F8D8E3AB4";
layerId = "89946EFA-3063-4597-8F39-C29AA3B0B012";
shapes = (
{
ref = A;
},
{
pos = (81,0);
ref = dotbelow;
}
);
width = 660;
}
);
unicode = 7840;
},
{
color = 10;
glyphname = Agrave;
kernLeft = A;
kernRight = A;
lastChange = "2024-03-21 11:17:29 +0000";
layers = (
{
layerId = m001;
shapes = (
{
ref = A;
},
{
pos = (87,0);
ref = gravecomb.case;
}
);
width = 675;
},
{
background = {
anchors = (
{
name = bottom;
pos = (331,0);
},
{
name = top;
pos = (331,690);
}
);
shapes = (
{
closed = 1;
nodes = (
(645,0,l),
(406,690,l),
(304,690,l),
(535,0,l)
);
},
{
closed = 1;
nodes = (
(122,0,l),
(348,690,l),
(254,690,l),
(15,0,l)
);
},
{
closed = 1;
nodes = (
(514,191,l),
(514,287,l),
(146,287,l),
(146,191,l)
);
},
{
closed = 1;
nodes = (
(392,735,l),
(292,845,l),
(161,845,l),
(298,735,l)
);
}
);
};
layerId = "0EB46722-B91C-41F5-AE00-C58F8D8E3AB4";
shapes = (
{
ref = A;
},
{
pos = (81,0);
ref = gravecomb.case;
}
);
width = 660;
},
{
associatedMasterId = "0EB46722-B91C-41F5-AE00-C58F8D8E3AB4";
layerId = "89946EFA-3063-4597-8F39-C29AA3B0B012";
shapes = (
{
ref = A;
},
{
pos = (81,0);
ref = gravecomb.case;
}
);
width = 660;
}
);
unicode = 192;
},
{
color = 10;
glyphname = Amacron;
kernLeft = A;
kernRight = A;
lastChange = "2024-03-21 11:17:29 +0000";
layers = (
{
layerId = m001;
shapes = (
{
ref = A;
},
{
pos = (87,0);
ref = macroncomb.case;
}
);
width = 675;
},
{
background = {
anchors = (
{
name = bottom;
pos = (331,0);
},
{
name = top;
pos = (331,690);
}
);
shapes = (
{
closed = 1;
nodes = (
(645,0,l),
(406,690,l),
(304,690,l),
(535,0,l)
);
},
{
closed = 1;
nodes = (
(122,0,l),
(348,690,l),
(254,690,l),
(15,0,l)
);
},
{
closed = 1;
nodes = (
(514,191,l),
(514,287,l),
(146,287,l),
(146,191,l)
);
},
{
closed = 1;
nodes = (
(489,753,l),
(489,837,l),
(173,837,l),
(173,753,l)
);
}
);
};
layerId = "0EB46722-B91C-41F5-AE00-C58F8D8E3AB4";
shapes = (
{
ref = A;
},
{
pos = (81,0);
ref = macroncomb.case;
}
);
width = 660;
},
{
associatedMasterId = "0EB46722-B91C-41F5-AE00-C58F8D8E3AB4";
layerId = "89946EFA-3063-4597-8F39-C29AA3B0B012";
shapes = (
{
ref = A;
},
{
pos = (81,0);
ref = macroncomb.case;
}
);
width = 660;
}
);
unicode = 256;
},
{
color = 10;
glyphname = Aogonek;
kernLeft = A;
kernRight = A;
lastChange = "2024-03-21 13:34:41 +0000";
layers = (
{
layerId = m001;
shapes = (
{
ref = A;
},
{
pos = (336,0);
ref = ogonekcomb;
}
);
width = 675;
},
{
background = {
shapes = (
{
closed = 1;
nodes = (
(645,0,l),
(406,690,l),
(304,690,l),
(535,0,l)
);
},
{
closed = 1;
nodes = (
(582,-185,o),
(617,-176,o),
(645,-165,c),
(636,-84,l),
(613,-94,o),
(579,-106,o),
(559,-106,c),
(546,-106,o),
(538,-101,o),
(538,-89,c),
(538,-65,o),
(575,-34,o),
(645,0,c),
(535,0,l),
(477,-37,o),
(454,-69,o),
(454,-111,c),
(454,-153,o),
(488,-185,o),
(553,-185,cs)
);
},
{
closed = 1;
nodes = (
(122,0,l),
(348,690,l),
(254,690,l),
(15,0,l)
);
},
{
closed = 1;
nodes = (
(514,191,l),
(514,287,l),
(146,287,l),
(146,191,l)
);
}
);
};
layerId = "0EB46722-B91C-41F5-AE00-C58F8D8E3AB4";
shapes = (
{
ref = A;
},
{
pos = (341,0);
ref = ogonekcomb;
}
);
width = 660;
},
{
associatedMasterId = "0EB46722-B91C-41F5-AE00-C58F8D8E3AB4";
layerId = "89946EFA-3063-4597-8F39-C29AA3B0B012";
shapes = (
{
closed = 1;
nodes = (
(477,-37,o),
(454,-69,o),
(454,-111,c),
(454,-153,o),
(488,-185,o),
(553,-185,cs),
(582,-185,o),
(617,-176,o),
(645,-165,c),
(636,-84,l),
(613,-94,o),
(579,-106,o),
(559,-106,c),
(546,-106,o),
(538,-101,o),
(538,-89,c),
(538,-65,o),
(575,-34,o),
(645,0,c),
(535,0,l)
);
},
{
closed = 1;
nodes = (
(146,191,l),
(514,191,l),
(514,287,l),
(146,287,l)
);
},
{
closed = 1;
nodes = (
(304,690,l),
(535,0,l),
(645,0,l),
(406,690,l)
);
},
{
closed = 1;
nodes = (
(254,690,l),
(15,0,l),
(122,0,l),
(348,690,l)
);
}
);
width = 660;
}
);
unicode = 260;
},
{
color = 10;
glyphname = Aring;
kernLeft = A;
kernRight = A;
lastChange = "2024-03-21 11:17:29 +0000";
layers = (
{
layerId = m001;
shapes = (
{
ref = A;
},
{
pos = (87,0);
ref = ringcomb.case;
}
);
width = 675;
},
{
background = {
anchors = (
{
name = bottom;
pos = (331,0);
},
{
name = top;
pos = (331,690);
}
);
shapes = (
{
closed = 1;
nodes = (
(645,0,l),
(406,690,l),
(304,690,l),
(535,0,l)
);
},
{
closed = 1;
nodes = (
(122,0,l),
(348,690,l),
(254,690,l),
(15,0,l)
);
},
{
closed = 1;
nodes = (
(514,191,l),
(514,287,l),
(146,287,l),
(146,191,l)
);
},
{
closed = 1;
nodes = (
(387,735,o),
(428,769,o),
(428,821,cs),
(428,874,o),
(387,908,o),
(331,908,cs),
(275,908,o),
(234,874,o),
(234,821,cs),
(234,769,o),
(275,735,o),
(331,735,cs)
);
},
{
closed = 1;
nodes = (
(310,790,o),
(297,804,o),
(297,821,cs),
(297,839,o),
(310,853,o),
(331,853,cs),
(352,853,o),
(365,839,o),
(365,821,cs),
(365,804,o),
(352,790,o),
(331,790,cs)
);
}
);
};
layerId = "0EB46722-B91C-41F5-AE00-C58F8D8E3AB4";
shapes = (
{
ref = A;
},
{
pos = (81,0);
ref = ringcomb.case;
}
);
width = 660;
},
{
associatedMasterId = "0EB46722-B91C-41F5-AE00-C58F8D8E3AB4";
layerId = "89946EFA-3063-4597-8F39-C29AA3B0B012";
shapes = (
{
ref = A;
},
{
pos = (81,0);
ref = ringcomb.case;
}
);
width = 660;
}
);
unicode = 197;
},
{
color = 10;
glyphname = Aringacute;
kernLeft = A;
kernRight = A;
lastChange = "2024-03-21 13:44:07 +0000";
layers = (
{
layerId = m001;
shapes = (
{
ref = A;
},
{
pos = (87,0);
ref = ringcomb.case;
},
{
pos = (87,227);
ref = acutecomb.case;
}
);
width = 675;
},
{
background = {
anchors = (
{
name = bottom;
pos = (331,0);
},
{
name = top;
pos = (331,690);
}
);
shapes = (
{
closed = 1;
nodes = (
(645,0,l),
(406,690,l),
(304,690,l),
(535,0,l)
);
},
{
closed = 1;
nodes = (
(122,0,l),
(348,690,l),
(254,690,l),
(15,0,l)
);
},
{
closed = 1;
nodes = (
(514,191,l),
(514,287,l),
(146,287,l),
(146,191,l)
);
},
{
closed = 1;
nodes = (
(387,735,o),
(428,769,o),
(428,821,cs),
(428,874,o),
(387,908,o),
(331,908,cs),
(275,908,o),
(234,874,o),
(234,821,cs),
(234,769,o),
(275,735,o),
(331,735,cs)
);
},
{
closed = 1;
nodes = (
(310,790,o),
(297,804,o),
(297,821,cs),
(297,839,o),
(310,853,o),
(331,853,cs),
(352,853,o),
(365,839,o),
(365,821,cs),
(365,804,o),
(352,790,o),
(331,790,cs)
);
},
{
closed = 1;
nodes = (
(365,925,l),
(478,1015,l),
(377,1015,l),
(287,925,l)
);
}
);
};
layerId = "0EB46722-B91C-41F5-AE00-C58F8D8E3AB4";
shapes = (
{
ref = A;
},
{
pos = (81,0);
ref = ringcomb.case;
},
{
pos = (81,190);
ref = acutecomb.case;
}
);
width = 660;
},
{
associatedMasterId = "0EB46722-B91C-41F5-AE00-C58F8D8E3AB4";
layerId = "89946EFA-3063-4597-8F39-C29AA3B0B012";
shapes = (
{
ref = A;
}
);
width = 660;
}
);
unicode = 506;
},
{
color = 10;
glyphname = Atilde;
kernLeft = A;
kernRight = A;
lastChange = "2024-03-21 11:17:29 +0000";
layers = (
{
layerId = m001;
shapes = (
{
ref = A;
},
{
pos = (87,0);
ref = tildecomb.case;
}
);
width = 675;
},
{
background = {
anchors = (
{
name = bottom;
pos = (331,0);
},
{
name = top;
pos = (331,690);
}
);
shapes = (
{
closed = 1;
nodes = (
(645,0,l),
(406,690,l),
(304,690,l),
(535,0,l)
);
},
{
closed = 1;
nodes = (
(122,0,l),
(348,690,l),
(254,690,l),
(15,0,l)
);
},
{
closed = 1;
nodes = (
(514,191,l),
(514,287,l),
(146,287,l),
(146,191,l)
);
},
{
closed = 1;
nodes = (
(239,735,l),
(240,757,o),
(252,773,o),
(273,773,c),
(304,773,o),
(334,735,o),
(391,735,c),
(448,735,o),
(484,777,o),
(491,845,c),
(423,845,l),
(422,823,o),
(410,807,o),
(389,807,c),
(359,807,o),
(328,845,o),
(271,845,c),
(214,845,o),
(178,803,o),
(171,735,c)
);
}
);
};
layerId = "0EB46722-B91C-41F5-AE00-C58F8D8E3AB4";
shapes = (
{
ref = A;
},
{
pos = (81,0);
ref = tildecomb.case;
}
);
width = 660;
},
{
associatedMasterId = "0EB46722-B91C-41F5-AE00-C58F8D8E3AB4";
layerId = "89946EFA-3063-4597-8F39-C29AA3B0B012";
shapes = (
{
ref = A;
},
{
pos = (81,0);
ref = tildecomb.case;
}
);
width = 660;
}
);
unicode = 195;
},
{
color = 6;
glyphname = AE;
kernLeft = B;
kernRight = E;
lastChange = "2024-03-21 11:17:29 +0000";
layers = (
{
anchors = (
{
name = top;
pos = (536,690);
}
);
layerId = m001;
shapes = (
{
closed = 1;
nodes = (
(173,0,l),
(519,690,l),
(364,690,l),
(0,0,l)
);
},
{
closed = 1;
nodes = (
(503,162,l),
(503,295,l),
(213,295,l),
(213,162,l)
);
},
{
closed = 1;
nodes = (
(956,0,l),
(956,145,l),
(529,145,l),
(529,0,l)
);
},
{
closed = 1;
nodes = (
(616,0,l),
(616,690,l),
(461,690,l),
(461,0,l)
);
},
{
closed = 1;
nodes = (
(909,282,l),
(909,419,l),
(529,419,l),
(529,282,l)
);
},
{
closed = 1;
nodes = (
(952,545,l),
(952,690,l),
(529,690,l),
(529,545,l)
);
}
);
width = 992;
},
{
anchors = (
{
name = top;
pos = (506,690);
}
);
background = {
anchors = (
{
name = top;
pos = (506,690);
}
);
shapes = (
{
closed = 1;
nodes = (
(120,0,l),
(488,690,l),
(388,690,l),
(6,0,l)
);
},
{
closed = 1;
nodes = (
(505,193,l),
(505,287,l),
(197,287,l),
(197,193,l)
);
},
{
closed = 1;
nodes = (
(924,0,l),
(924,96,l),
(504,96,l),
(504,0,l)
);
},
{
closed = 1;
nodes = (
(559,0,l),
(559,690,l),
(454,690,l),
(454,0,l)
);
},
{
closed = 1;
nodes = (
(859,306,l),
(859,402,l),
(504,402,l),
(504,306,l)
);
},
{
closed = 1;
nodes = (
(919,594,l),
(919,690,l),
(504,690,l),
(504,594,l)
);
}
);
};
layerId = "0EB46722-B91C-41F5-AE00-C58F8D8E3AB4";
shapes = (
{
closed = 1;
nodes = (
(120,0,l),
(488,690,l),
(388,690,l),
(6,0,l)
);
},
{
closed = 1;
nodes = (
(505,193,l),
(505,287,l),
(197,287,l),
(197,193,l)
);
},
{
closed = 1;
nodes = (
(924,0,l),
(924,96,l),
(504,96,l),
(504,0,l)
);
},
{
closed = 1;
nodes = (
(559,0,l),
(559,690,l),
(454,690,l),
(454,0,l)
);
},
{
closed = 1;
nodes = (
(859,306,l),
(859,402,l),
(504,402,l),
(504,306,l)
);
},
{
closed = 1;
nodes = (
(919,594,l),
(919,690,l),
(504,690,l),
(504,594,l)
);
}
);
width = 970;
},
{
anchors = (
{
name = top;
pos = (506,690);
}
);
associatedMasterId = "0EB46722-B91C-41F5-AE00-C58F8D8E3AB4";
background = {
shapes = (
{
closed = 1;
nodes = (
(321,690,l),
(552,0,l),
(662,0,l),
(423,690,l)
);
},
{
closed = 1;
nodes = (
(271,690,l),
(32,0,l),
(139,0,l),
(365,690,l)
);
}
);
};
layerId = "89946EFA-3063-4597-8F39-C29AA3B0B012";
shapes = (
{
closed = 1;
nodes = (
(559,0,l),
(559,690,l),
(454,690,l),
(454,0,l)
);
},
{
closed = 1;
nodes = (
(504,306,l),
(859,306,l),
(859,402,l),
(504,402,l)
);
},
{
closed = 1;
nodes = (
(504,0,l),
(924,0,l),
(924,96,l),
(504,96,l)
);
},
{
closed = 1;
nodes = (
(504,594,l),
(919,594,l),
(919,690,l),
(504,690,l)
);
},
{
closed = 1;
nodes = (
(197,193,l),
(505,193,l),
(505,287,l),
(197,287,l)
);
},
{
closed = 1;
nodes = (
(388,690,l),
(6,0,l),
(120,0,l),
(488,690,l)
);
}
);
width = 970;
}
);
unicode = 198;
},
{
color = 10;
glyphname = AEacute;
kernLeft = B;
kernRight = E;
lastChange = "2024-03-21 11:17:29 +0000";
layers = (
{
layerId = m001;
shapes = (
{
ref = AE;
},
{
pos = (286,0);
ref = acutecomb.case;
}
);
width = 992;
},
{
background = {
anchors = (
{
name = top;
pos = (506,690);
}
);
shapes = (
{
closed = 1;
nodes = (
(120,0,l),
(488,690,l),
(388,690,l),
(6,0,l)
);
},
{
closed = 1;
nodes = (
(505,193,l),
(505,287,l),
(197,287,l),
(197,193,l)
);
},
{
closed = 1;
nodes = (
(924,0,l),
(924,96,l),
(504,96,l),
(504,0,l)
);
},
{
closed = 1;
nodes = (
(559,0,l),
(559,690,l),
(454,690,l),
(454,0,l)
);
},
{
closed = 1;
nodes = (
(859,306,l),
(859,402,l),
(504,402,l),
(504,306,l)
);
},
{
closed = 1;
nodes = (
(919,594,l),
(919,690,l),
(504,690,l),
(504,594,l)
);
},
{
closed = 1;
nodes = (
(539,735,l),
(676,845,l),
(545,845,l),
(445,735,l)
);
}
);
};
layerId = "0EB46722-B91C-41F5-AE00-C58F8D8E3AB4";
shapes = (
{
ref = AE;
},
{
pos = (256,0);
ref = acutecomb.case;
}
);
width = 970;
},
{
associatedMasterId = "0EB46722-B91C-41F5-AE00-C58F8D8E3AB4";
layerId = "89946EFA-3063-4597-8F39-C29AA3B0B012";
shapes = (
{
ref = AE;
},
{
pos = (256,0);
ref = acutecomb.case;
}
);
width = 970;
}
);
unicode = 508;
},
{
color = 6;
glyphname = B;
kernLeft = H;
kernRight = B;
lastChange = "2024-03-21 11:17:29 +0000";
layers = (
{
layerId = m001;
shapes = (
{
closed = 1;
nodes = (
(370,0,l),
(525,0,o),
(608,81,o),
(608,196,c),
(608,303,o),
(531,380,o),
(387,380,c),
(130,380,l),
(130,287,l),
(360,287,l),
(424,287,o),
(450,260,o),
(450,216,c),
(450,171,o),
(424,144,o),
(360,144,c),
(130,144,l),
(130,0,l)
);
},
{
closed = 1;
nodes = (
(217,0,l),
(217,690,l),
(62,690,l),
(62,0,l)
);
},
{
closed = 1;
nodes = (
(346,349,l),
(501,349,o),
(583,416,o),
(583,511,cs),
(583,618,o),
(500,690,o),
(347,690,c),
(130,690,l),
(130,546,l),
(336,546,l),
(398,546,o),
(425,521,o),
(425,480,c),
(425,439,o),
(398,414,o),
(336,414,c),
(130,414,l),
(130,349,l)
);
}
);
width = 638;
},
{
background = {
shapes = (
{
closed = 1;
nodes = (
(352,0,l),
(500,0,o),
(589,78,o),
(589,193,c),
(589,305,o),
(501,381,o),
(346,381,c),
(125,381,l),
(125,313,l),
(336,313,l),
(439,313,o),
(481,272,o),
(481,202,c),
(481,135,o),
(439,93,o),
(336,93,c),
(125,93,l),
(125,0,l)
);
},
{
closed = 1;
nodes = (
(180,0,l),
(180,690,l),
(75,690,l),
(75,0,l)
);
},
{
closed = 1;
nodes = (
(341,344,l),
(487,344,o),
(564,414,o),
(564,510,cs),
(564,615,o),
(477,690,o),
(346,690,c),
(125,690,l),
(125,597,l),
(331,597,l),
(418,597,o),
(459,559,o),
(459,501,c),
(459,442,o),
(417,399,o),
(331,399,c),
(125,399,l),
(125,344,l)
);
}
);
};
layerId = "0EB46722-B91C-41F5-AE00-C58F8D8E3AB4";
shapes = (
{
closed = 1;
nodes = (
(352,0,l),
(500,0,o),
(589,78,o),
(589,193,c),
(589,305,o),
(501,381,o),
(346,381,c),
(125,381,l),
(125,313,l),
(336,313,l),
(439,313,o),
(481,272,o),
(481,202,c),
(481,135,o),
(439,93,o),
(336,93,c),
(125,93,l),
(125,0,l)
);
},
{
closed = 1;
nodes = (
(180,0,l),
(180,690,l),
(75,690,l),
(75,0,l)
);
},
{
closed = 1;
nodes = (
(341,344,l),
(487,344,o),
(564,414,o),
(564,510,cs),
(564,615,o),
(477,690,o),
(346,690,c),
(125,690,l),
(125,597,l),
(331,597,l),
(418,597,o),
(459,559,o),
(459,501,c),
(459,442,o),
(417,399,o),
(331,399,c),
(125,399,l),
(125,344,l)
);
}
);
width = 623;
},
{
associatedMasterId = "0EB46722-B91C-41F5-AE00-C58F8D8E3AB4";
layerId = "89946EFA-3063-4597-8F39-C29AA3B0B012";
shapes = (
{
closed = 1;
nodes = (
(180,0,l),
(180,690,l),
(75,690,l),
(75,0,l)
);
},
{
closed = 1;
nodes = (
(487,344,o),
(564,414,o),
(564,510,cs),
(564,615,o),
(477,690,o),
(346,690,c),
(125,690,l),
(125,597,l),
(331,597,l),
(418,597,o),
(459,559,o),
(459,501,c),
(459,442,o),
(417,399,o),
(331,399,c),
(125,399,l),
(125,344,l),
(341,344,l)
);
},
{
closed = 1;
nodes = (
(500,0,o),
(589,78,o),
(589,193,c),
(589,305,o),
(501,381,o),
(346,381,c),
(125,381,l),
(125,313,l),
(336,313,l),
(439,313,o),
(481,272,o),
(481,202,c),
(481,135,o),
(439,93,o),
(336,93,c),
(125,93,l),
(125,0,l),
(352,0,l)
);
}
);
width = 623;
}
);
unicode = 66;
},
{
color = 6;
glyphname = C;
kernLeft = O;
kernRight = C;
lastChange = "2024-03-22 12:26:09 +0000";
layers = (
{
anchors = (
{
name = bottom;
pos = (357,0);
},
{
name = top;
pos = (357,690);
}
);
layerId = m001;
shapes = (
{
closed = 1;
nodes = (
(513,-14,o),
(628,77,o),
(658,226,c),
(505,268,l),
(492,182,o),
(438,132,o),
(356,132,c),
(257,132,o),
(194,213,o),
(194,345,cs),
(194,478,o),
(257,558,o),
(355,558,c),
(435,558,o),
(489,508,o),
(502,424,c),
(656,466,l),
(625,613,o),
(510,704,o),
(355,704,c),
(166,704,o),
(36,563,o),
(36,345,cs),
(36,128,o),
(166,-14,o),
(356,-14,c)
);
}
);
width = 686;
},
{
anchors = (
{
name = bottom;
pos = (345,0);
},
{
name = top;
pos = (345,690);
}
);
background = {
anchors = (
{
name = bottom;
pos = (345,0);
},
{
name = top;
pos = (345,690);
}
);
shapes = (
{
closed = 1;
nodes = (
(486,-10,o),
(591,67,o),
(628,209,c),
(524,237,l),
(500,136.653,o),
(441,87,o),
(342,87,c),
(228,87,o),
(153,179,o),
(153,345,cs),
(153,512,o),
(228,603,o),
(342,603,c),
(438,603,o),
(500,553.424,o),
(520,455,c),
(624,483,l),
(591,623,o),
(486,700,o),
(345,700,c),
(167,700,o),
(44,566,o),
(44,345,cs),
(44,125,o),
(167,-10,o),
(345,-10,c)
);
}
);
};
layerId = "0EB46722-B91C-41F5-AE00-C58F8D8E3AB4";
shapes = (
{
closed = 1;
nodes = (
(486,-10,o),
(591,67,o),
(628,209,c),
(524,237,l),
(500,137,o),
(441,87,o),
(342,87,c),
(228,87,o),
(153,179,o),
(153,345,cs),
(153,512,o),
(228,603,o),
(342,603,c),
(438,603,o),
(500,553,o),
(520,455,c),
(624,483,l),
(591,623,o),
(486,700,o),
(345,700,c),
(167,700,o),
(44,566,o),
(44,345,cs),
(44,125,o),
(167,-10,o),
(345,-10,c)
);
}
);
width = 667;
},
{
anchors = (
{
name = bottom;
pos = (345,0);
},
{
name = top;
pos = (345,690);
}
);
associatedMasterId = "0EB46722-B91C-41F5-AE00-C58F8D8E3AB4";
layerId = "89946EFA-3063-4597-8F39-C29AA3B0B012";
shapes = (
{
closed = 1;
nodes = (
(228,87,o),
(153,179,o),
(153,345,cs),
(153,512,o),
(228,603,o),
(342,603,c),
(438,603,o),
(500,553.424,o),
(520,455,c),
(624,483,l),
(591,623,o),
(486,700,o),
(345,700,c),
(167,700,o),
(44,566,o),
(44,345,cs),
(44,125,o),
(167,-10,o),
(345,-10,c),
(486,-10,o),
(591,67,o),
(628,209,c),
(524,237,l),
(500,136.653,o),
(441,87,o),
(342,87,c)
);
}
);
width = 667;
}
);
unicode = 67;
},
{
color = 10;
glyphname = Cacute;
kernLeft = O;
kernRight = C;
lastChange = "2024-03-21 11:17:29 +0000";
layers = (
{
layerId = m001;
shapes = (
{
ref = C;
},
{
pos = (107,0);
ref = acutecomb.case;
}
);
width = 686;
},
{
background = {
anchors = (
{
name = bottom;
pos = (345,0);
},
{
name = top;
pos = (345,690);
}
);
shapes = (
{
closed = 1;
nodes = (
(486,-10,o),
(591,67,o),
(628,209,c),
(524,237,l),
(500,136.653,o),
(441,87,o),
(342,87,c),
(228,87,o),
(153,179,o),
(153,345,cs),
(153,512,o),
(228,603,o),
(342,603,c),
(438,603,o),
(500,553.424,o),
(520,455,c),
(624,483,l),
(591,623,o),
(486,700,o),
(345,700,c),
(167,700,o),
(44,566,o),
(44,345,cs),
(44,125,o),
(167,-10,o),
(345,-10,c)
);
},
{
closed = 1;
nodes = (
(378,735,l),
(515,845,l),
(384,845,l),
(284,735,l)
);
}
);
};
layerId = "0EB46722-B91C-41F5-AE00-C58F8D8E3AB4";
shapes = (
{
ref = C;
},
{
pos = (95,0);
ref = acutecomb.case;
}
);
width = 667;
},
{
associatedMasterId = "0EB46722-B91C-41F5-AE00-C58F8D8E3AB4";
layerId = "89946EFA-3063-4597-8F39-C29AA3B0B012";
shapes = (
{
ref = C;
},
{
pos = (95,0);
ref = acutecomb.case;
}
);
width = 667;
}
);
unicode = 262;
},
{
color = 10;
glyphname = Ccaron;
kernLeft = O;
kernRight = C;
lastChange = "2024-03-21 11:17:29 +0000";
layers = (
{
layerId = m001;
shapes = (
{
ref = C;
},
{
pos = (107,0);
ref = caroncomb.case;
}
);
width = 686;
},
{
background = {
anchors = (
{
name = bottom;
pos = (345,0);
},
{
name = top;
pos = (345,690);
}
);
shapes = (
{
closed = 1;
nodes = (
(486,-10,o),
(591,67,o),
(628,209,c),
(524,237,l),
(500,136.653,o),
(441,87,o),
(342,87,c),
(228,87,o),
(153,179,o),
(153,345,cs),
(153,512,o),
(228,603,o),
(342,603,c),
(438,603,o),
(500,553.424,o),
(520,455,c),
(624,483,l),
(591,623,o),
(486,700,o),
(345,700,c),
(167,700,o),
(44,566,o),
(44,345,cs),
(44,125,o),
(167,-10,o),
(345,-10,c)
);
},
{
closed = 1;
nodes = (
(414,735,l),
(528,845,l),
(429,845,l),
(280,735,l)
);
},
{
closed = 1;
nodes = (
(410,735,l),
(261,845,l),
(162,845,l),
(276,735,l)
);
}
);
};
layerId = "0EB46722-B91C-41F5-AE00-C58F8D8E3AB4";
shapes = (
{
ref = C;
},
{
pos = (95,0);
ref = caroncomb.case;
}
);
width = 667;
},
{
associatedMasterId = "0EB46722-B91C-41F5-AE00-C58F8D8E3AB4";
layerId = "89946EFA-3063-4597-8F39-C29AA3B0B012";
shapes = (
{
ref = C;
},
{
pos = (95,0);
ref = caroncomb.case;
}
);
width = 667;
}
);
unicode = 268;
},
{
color = 10;
glyphname = Ccedilla;
kernLeft = O;
kernRight = C;
lastChange = "2024-03-21 11:17:29 +0000";
layers = (
{
layerId = m001;
shapes = (
{
ref = C;
},
{
pos = (104,0);
ref = cedillacomb;
}
);
width = 686;
},
{
background = {
anchors = (
{
name = bottom;
pos = (345,0);
},
{
name = top;
pos = (345,690);
}
);
shapes = (
{
closed = 1;
nodes = (
(486,-10,o),
(591,67,o),
(628,209,c),
(524,237,l),
(500,136.653,o),
(441,87,o),
(342,87,c),
(228,87,o),
(153,179,o),
(153,345,cs),
(153,512,o),
(228,603,o),
(342,603,c),
(438,603,o),
(500,553.424,o),
(520,455,c),
(624,483,l),
(591,623,o),
(486,700,o),
(345,700,c),
(167,700,o),
(44,566,o),
(44,345,cs),
(44,125,o),
(167,-10,o),
(345,-10,c)
);
},
{
closed = 1;
nodes = (
(396,-185,o),
(432,-151,o),
(432,-106,cs),
(432,-57,o),
(395,-29,o),
(347,-29,c),
(359,-43,l),
(365,9,l),
(309,11,l),
(296,-73,l),
(307,-71,o),
(314,-70,o),
(325,-70,c),
(349,-70,o),
(363,-79,o),
(363,-96,c),
(363,-110,o),
(350,-119,o),
(329,-119,c),
(309,-119,o),
(293,-114,o),
(275,-105,c),
(262,-169,l),
(287,-180,o),
(312,-185,o),
(338,-185,c)
);
}
);
};
layerId = "0EB46722-B91C-41F5-AE00-C58F8D8E3AB4";
shapes = (
{
ref = C;
},
{
pos = (93,0);
ref = cedillacomb;
}
);
width = 667;
},
{
associatedMasterId = "0EB46722-B91C-41F5-AE00-C58F8D8E3AB4";
layerId = "89946EFA-3063-4597-8F39-C29AA3B0B012";
shapes = (
{
ref = C;
},
{
pos = (93,0);
ref = cedilla;
}
);
width = 667;
}
);
unicode = 199;
},
{
color = 10;
glyphname = Ccircumflex;
kernLeft = O;
kernRight = C;
lastChange = "2024-03-21 11:17:29 +0000";
layers = (
{
layerId = m001;
shapes = (
{
ref = C;
},
{
pos = (107,0);
ref = circumflexcomb.case;
}
);
width = 686;
},
{
background = {
anchors = (
{
name = bottom;
pos = (345,0);
},
{
name = top;
pos = (345,690);
}
);
shapes = (
{
closed = 1;
nodes = (
(486,-10,o),
(591,67,o),
(628,209,c),
(524,237,l),
(500,136.653,o),
(441,87,o),
(342,87,c),
(228,87,o),
(153,179,o),
(153,345,cs),
(153,512,o),
(228,603,o),
(342,603,c),
(438,603,o),
(500,553.424,o),
(520,455,c),
(624,483,l),
(591,623,o),
(486,700,o),
(345,700,c),
(167,700,o),
(44,566,o),
(44,345,cs),
(44,125,o),
(167,-10,o),
(345,-10,c)
);
},
{
closed = 1;
nodes = (
(528,735,l),
(414,845,l),
(280,845,l),
(429,735,l)
);
},
{
closed = 1;
nodes = (
(261,735,l),
(410,845,l),
(276,845,l),
(162,735,l)
);
}
);
};
layerId = "0EB46722-B91C-41F5-AE00-C58F8D8E3AB4";
shapes = (
{
ref = C;
},
{
pos = (95,0);
ref = circumflexcomb.case;
}
);
width = 667;
},
{
associatedMasterId = "0EB46722-B91C-41F5-AE00-C58F8D8E3AB4";
layerId = "89946EFA-3063-4597-8F39-C29AA3B0B012";
shapes = (
{
ref = C;
},
{
pos = (95,0);
ref = circumflexcomb.case;
}
);
width = 667;
}
);
unicode = 264;
},
{
color = 10;
glyphname = Cdotaccent;
kernLeft = O;
kernRight = C;
lastChange = "2024-03-21 11:17:29 +0000";
layers = (
{
layerId = m001;
shapes = (
{
ref = C;
},
{
pos = (107,0);
ref = dotaccentcomb.case;
}
);
width = 686;
},
{
background = {
anchors = (
{
name = bottom;
pos = (345,0);
},
{
name = top;
pos = (345,690);
}
);
shapes = (
{
closed = 1;
nodes = (
(486,-10,o),
(591,67,o),
(628,209,c),
(524,237,l),
(500,136.653,o),
(441,87,o),
(342,87,c),
(228,87,o),
(153,179,o),
(153,345,cs),
(153,512,o),
(228,603,o),
(342,603,c),
(438,603,o),
(500,553.424,o),
(520,455,c),
(624,483,l),
(591,623,o),
(486,700,o),
(345,700,c),
(167,700,o),
(44,566,o),
(44,345,cs),
(44,125,o),
(167,-10,o),
(345,-10,c)
);
},
{
closed = 1;
nodes = (
(380,735,o),
(407,760,o),
(407,796,cs),
(407,833,o),
(380,858,o),
(345,858,cs),
(310,858,o),
(283,833,o),
(283,796,cs),
(283,760,o),
(310,735,o),
(345,735,cs)
);
}
);
};
layerId = "0EB46722-B91C-41F5-AE00-C58F8D8E3AB4";
shapes = (
{
ref = C;
},
{
pos = (95,0);
ref = dotaccentcomb.case;
}
);
width = 667;
},
{
associatedMasterId = "0EB46722-B91C-41F5-AE00-C58F8D8E3AB4";
layerId = "89946EFA-3063-4597-8F39-C29AA3B0B012";
shapes = (
{
ref = C;
},
{
pos = (95,0);
ref = dotaccentcomb.case;
}
);
width = 667;
}
);
unicode = 266;
},
{
color = 6;
glyphname = D;
kernLeft = H;
kernRight = O;
lastChange = "2024-03-22 12:26:09 +0000";
layers = (
{
anchors = (
{
name = top;
pos = (310,690);
}
);
layerId = m001;
shapes = (
{
closed = 1;
nodes = (
(335,0,l),
(541,0,o),
(657,136,o),
(657,345,cs),
(657,555,o),
(541,690,o),
(335,690,c),
(130,690,l),
(130,545,l),
(325,545,l),
(440,545,o),
(499,470,o),
(499,345,cs),
(499,221,o),
(440,145,o),
(325,145,c),
(130,145,l),
(130,0,l)
);
},
{
closed = 1;
nodes = (
(217,0,l),
(217,690,l),
(62,690,l),
(62,0,l)
);
}
);
width = 693;
},
{
anchors = (
{
name = top;
pos = (328,690);
}
);
background = {
anchors = (
{
name = top;
pos = (328,690);
}
);
shapes = (
{
closed = 1;
nodes = (
(309,0,l),
(511,0,o),
(634,131,o),
(634,345,cs),
(634,560,o),
(511,690,o),
(309,690,c),
(125,690,l),
(125,594,l),
(299,594,l),
(450,594,o),
(525,513.243,o),
(525,345,cs),
(525,177.718,o),
(450,96,o),
(299,96,c),
(125,96,l),
(125,0,l)
);
},
{
closed = 1;
nodes = (
(180,0,l),
(180,690,l),
(75,690,l),
(75,0,l)
);
}
);
};
layerId = "0EB46722-B91C-41F5-AE00-C58F8D8E3AB4";
shapes = (
{
closed = 1;
nodes = (
(309,0,l),
(511,0,o),
(634,131,o),
(634,345,cs),
(634,560,o),
(511,690,o),
(309,690,c),
(125,690,l),
(125,594,l),
(299,594,l),
(450,594,o),
(525,513,o),
(525,345,cs),
(525,178,o),
(450,96,o),
(299,96,c),
(125,96,l),
(125,0,l)
);
},
{
closed = 1;
nodes = (
(180,0,l),
(180,690,l),
(75,690,l),
(75,0,l)
);
}
);
width = 678;
},
{
anchors = (
{
name = top;
pos = (328,690);
}
);
associatedMasterId = "0EB46722-B91C-41F5-AE00-C58F8D8E3AB4";
layerId = "89946EFA-3063-4597-8F39-C29AA3B0B012";
shapes = (
{
closed = 1;
nodes = (
(180,0,l),
(180,690,l),
(75,690,l),
(75,0,l)
);
},
{
closed = 1;
nodes = (
(511,0,o),
(634,131,o),
(634,345,cs),
(634,560,o),
(511,690,o),
(309,690,c),
(125,690,l),
(125,594,l),
(299,594,l),
(450,594,o),
(525,513.243,o),
(525,345,cs),
(525,177.718,o),
(450,96,o),
(299,96,c),
(125,96,l),
(125,0,l),
(309,0,l)
);
}
);
width = 678;
}
);
unicode = 68;
},
{
color = 10;
glyphname = Dcaron;
kernLeft = H;
kernRight = O;
lastChange = "2024-03-21 11:17:29 +0000";
layers = (
{
layerId = m001;
shapes = (
{
ref = D;
},
{
pos = (60,0);
ref = caroncomb.case;
}
);
width = 693;
},
{
background = {
anchors = (
{
name = top;
pos = (328,690);
}
);
shapes = (
{
closed = 1;
nodes = (
(309,0,l),
(511,0,o),
(634,131,o),
(634,345,cs),
(634,560,o),
(511,690,o),
(309,690,c),
(125,690,l),
(125,594,l),
(299,594,l),
(450,594,o),
(525,513.243,o),
(525,345,cs),
(525,177.718,o),
(450,96,o),
(299,96,c),
(125,96,l),
(125,0,l)
);
},
{
closed = 1;
nodes = (
(180,0,l),
(180,690,l),
(75,690,l),
(75,0,l)
);
},
{
closed = 1;
nodes = (
(397,735,l),
(511,845,l),
(412,845,l),
(263,735,l)
);
},
{
closed = 1;
nodes = (
(393,735,l),
(244,845,l),
(145,845,l),
(259,735,l)
);
}
);
};
layerId = "0EB46722-B91C-41F5-AE00-C58F8D8E3AB4";
shapes = (
{
ref = D;
},
{
pos = (78,0);
ref = caroncomb.case;
}
);
width = 678;
},
{
associatedMasterId = "0EB46722-B91C-41F5-AE00-C58F8D8E3AB4";
layerId = "89946EFA-3063-4597-8F39-C29AA3B0B012";
shapes = (
{
ref = D;
},
{
pos = (78,0);
ref = caroncomb.case;
}
);
width = 678;
}
);
unicode = 270;
},
{
color = 10;
glyphname = Dcroat;
kernRight = O;
lastChange = "2024-03-21 11:17:30 +0000";
layers = (
{
layerId = m001;
shapes = (
{
ref = Eth;
}
);
width = 700;
},
{
background = {
shapes = (
{
closed = 1;
nodes = (
(324,0,l),
(526,0,o),
(649,131,o),
(649,345,cs),
(649,560,o),
(526,690,o),
(324,690,c),
(140,690,l),
(140,594,l),
(314,594,l),
(465,594,o),
(540,513,o),
(540,345,cs),
(540,178,o),
(465,96,o),
(314,96,c),
(140,96,l),
(140,0,l)
);
},
{
closed = 1;
nodes = (
(195,0,l),
(195,690,l),
(90,690,l),
(90,0,l)
);
},
{
closed = 1;
nodes = (
(365,295,l),
(365,386,l),
(20,386,l),
(20,295,l)
);
}
);
};
layerId = "0EB46722-B91C-41F5-AE00-C58F8D8E3AB4";
shapes = (
{
ref = Eth;
}
);
width = 693;
},
{
associatedMasterId = "0EB46722-B91C-41F5-AE00-C58F8D8E3AB4";
layerId = "89946EFA-3063-4597-8F39-C29AA3B0B012";
shapes = (
{
closed = 1;
nodes = (
(20,295,l),
(365,295,l),
(365,386,l),
(20,386,l)
);
},
{
closed = 1;
nodes = (
(195,0,l),
(195,690,l),
(90,690,l),
(90,0,l)
);
},
{
closed = 1;
nodes = (
(526,0,o),
(649,131,o),
(649,345,cs),
(649,560,o),
(526,690,o),
(324,690,c),
(140,690,l),
(140,594,l),
(314,594,l),
(465,594,o),
(540,513,o),
(540,345,cs),
(540,178,o),
(465,96,o),
(314,96,c),
(140,96,l),
(140,0,l),
(324,0,l)
);
}
);
width = 693;
}
);
unicode = 272;
},
{
color = 6;
glyphname = Eth;
kernRight = O;
lastChange = "2024-03-21 11:17:29 +0000";
layers = (
{
layerId = m001;
shapes = (
{
closed = 1;
nodes = (
(342,0,l),
(548,0,o),
(664,136,o),
(664,345,cs),
(664,555,o),
(548,690,o),
(342,690,c),
(137,690,l),
(137,545,l),
(332,545,l),
(447,545,o),
(506,470,o),
(506,345,cs),
(506,221,o),
(447,145,o),
(332,145,c),
(137,145,l),
(137,0,l)
);
},
{
closed = 1;
nodes = (
(224,0,l),
(224,690,l),
(69,690,l),
(69,0,l)
);
},
{
closed = 1;
nodes = (
(368,280,l),
(368,401,l),
(10,401,l),
(10,280,l)
);
}
);
width = 700;
},
{
background = {
shapes = (
{
closed = 1;
nodes = (
(324,0,l),
(526,0,o),
(649,131,o),
(649,345,cs),
(649,560,o),
(526,690,o),
(324,690,c),
(140,690,l),
(140,594,l),
(314,594,l),
(465,594,o),
(540,513,o),
(540,345,cs),
(540,178,o),
(465,96,o),
(314,96,c),
(140,96,l),
(140,0,l)
);
},
{
closed = 1;
nodes = (
(195,0,l),
(195,690,l),
(90,690,l),
(90,0,l)
);
},
{
closed = 1;
nodes = (
(365,295,l),
(365,386,l),
(20,386,l),
(20,295,l)
);
}
);
};
layerId = "0EB46722-B91C-41F5-AE00-C58F8D8E3AB4";
shapes = (
{
closed = 1;
nodes = (
(324,0,l),
(526,0,o),
(649,131,o),
(649,345,cs),
(649,560,o),
(526,690,o),
(324,690,c),
(140,690,l),
(140,594,l),
(314,594,l),
(465,594,o),
(540,513,o),
(540,345,cs),
(540,178,o),
(465,96,o),
(314,96,c),
(140,96,l),
(140,0,l)
);
},
{
closed = 1;
nodes = (
(195,0,l),
(195,690,l),
(90,690,l),
(90,0,l)
);
},
{
closed = 1;
nodes = (
(365,295,l),
(365,386,l),
(20,386,l),
(20,295,l)
);
}
);
width = 693;
},
{
associatedMasterId = "0EB46722-B91C-41F5-AE00-C58F8D8E3AB4";
layerId = "89946EFA-3063-4597-8F39-C29AA3B0B012";
shapes = (
{
closed = 1;
nodes = (
(20,295,l),
(365,295,l),
(365,386,l),
(20,386,l)
);
},
{
closed = 1;
nodes = (
(195,0,l),
(195,690,l),
(90,690,l),
(90,0,l)
);
},
{
closed = 1;
nodes = (
(526,0,o),
(649,131,o),
(649,345,cs),
(649,560,o),
(526,690,o),
(324,690,c),
(140,690,l),
(140,594,l),
(314,594,l),
(465,594,o),
(540,513,o),
(540,345,cs),
(540,178,o),
(465,96,o),
(314,96,c),
(140,96,l),
(140,0,l),
(324,0,l)
);
}
);
width = 693;
}
);
unicode = 208;
},
{
color = 6;
glyphname = E;
kernLeft = H;
kernRight = E;
lastChange = "2024-03-21 13:34:49 +0000";
layers = (
{
anchors = (
{
name = bottom;
pos = (327,0);
},
{
name = ogonek;
pos = (582,0);
},
{
name = top;
pos = (327,690);
}
);
layerId = m001;
shapes = (
{
closed = 1;
nodes = (
(217,0,l),
(217,690,l),
(62,690,l),
(62,0,l)
);
},
{
closed = 1;
nodes = (
(582,0,l),
(582,145,l),
(130,145,l),
(130,0,l)
);
},
{
closed = 1;
nodes = (
(535,282,l),
(535,419,l),
(130,419,l),
(130,282,l)
);
},
{
closed = 1;
nodes = (
(578,545,l),
(578,690,l),
(130,690,l),
(130,545,l)
);
}
);
width = 618;
},
{
anchors = (
{
name = bottom;
pos = (325,0);
},
{
name = ogonek;
pos = (565,0);
},
{
name = top;
pos = (325,690);
}
);
background = {
anchors = (
{
name = bottom;
pos = (325,0);
},
{
name = top;
pos = (325,690);
}
);
shapes = (
{
closed = 1;
nodes = (
(180,0,l),
(180,690,l),
(75,690,l),
(75,0,l)
);
},
{
closed = 1;
nodes = (
(565,0,l),
(565,96,l),
(125,96,l),
(125,0,l)
);
},
{
closed = 1;
nodes = (
(500,306,l),
(500,402,l),
(125,402,l),
(125,306,l)
);
},
{
closed = 1;
nodes = (
(560,594,l),
(560,690,l),
(125,690,l),
(125,594,l)
);
}
);
};
layerId = "0EB46722-B91C-41F5-AE00-C58F8D8E3AB4";
shapes = (
{
closed = 1;
nodes = (
(180,0,l),
(180,690,l),
(75,690,l),
(75,0,l)
);
},
{
closed = 1;
nodes = (
(565,0,l),
(565,96,l),
(125,96,l),
(125,0,l)
);
},
{
closed = 1;
nodes = (
(500,306,l),
(500,402,l),
(125,402,l),
(125,306,l)
);
},
{
closed = 1;
nodes = (
(560,594,l),
(560,690,l),
(125,690,l),
(125,594,l)
);
}
);
width = 611;
},
{
anchors = (
{
name = bottom;
pos = (325,0);
},
{
name = top;
pos = (325,690);
}
);
associatedMasterId = "0EB46722-B91C-41F5-AE00-C58F8D8E3AB4";
layerId = "89946EFA-3063-4597-8F39-C29AA3B0B012";
shapes = (
{
closed = 1;
nodes = (
(180,0,l),
(180,690,l),
(75,690,l),
(75,0,l)
);
},
{
closed = 1;
nodes = (
(125,306,l),
(500,306,l),
(500,402,l),
(125,402,l)
);
},
{
closed = 1;
nodes = (
(125,0,l),
(565,0,l),
(565,96,l),
(125,96,l)
);
},
{
closed = 1;
nodes = (
(125,594,l),
(560,594,l),
(560,690,l),
(125,690,l)
);
}
);
width = 611;
}
);
unicode = 69;
},
{
color = 10;
glyphname = Eacute;
kernLeft = H;
kernRight = E;
lastChange = "2024-03-21 11:17:30 +0000";
layers = (
{
layerId = m001;
shapes = (
{
ref = E;
},
{
pos = (77,0);
ref = acutecomb.case;
}
);
width = 618;
},
{
background = {
anchors = (
{
name = bottom;
pos = (325,0);
},
{
name = top;
pos = (325,690);
}
);
shapes = (
{
closed = 1;
nodes = (
(180,0,l),
(180,690,l),
(75,690,l),
(75,0,l)
);
},
{
closed = 1;
nodes = (
(565,0,l),
(565,96,l),
(125,96,l),
(125,0,l)
);
},
{
closed = 1;
nodes = (
(500,306,l),
(500,402,l),
(125,402,l),
(125,306,l)
);
},
{
closed = 1;
nodes = (
(560,594,l),
(560,690,l),
(125,690,l),
(125,594,l)
);
},
{
closed = 1;
nodes = (
(358,735,l),
(495,845,l),
(364,845,l),
(264,735,l)
);
}
);
};
layerId = "0EB46722-B91C-41F5-AE00-C58F8D8E3AB4";
shapes = (
{
ref = E;
},
{
pos = (75,0);
ref = acutecomb.case;
}
);
width = 611;
},
{
associatedMasterId = "0EB46722-B91C-41F5-AE00-C58F8D8E3AB4";
layerId = "89946EFA-3063-4597-8F39-C29AA3B0B012";
shapes = (
{
ref = E;
},
{
pos = (75,0);
ref = acutecomb.case;
}
);
width = 611;
}
);
unicode = 201;
},
{
color = 10;
glyphname = Ebreve;
kernLeft = H;
kernRight = E;
lastChange = "2024-03-21 11:17:30 +0000";
layers = (
{
layerId = m001;
shapes = (
{
ref = E;
},
{
pos = (77,0);
ref = brevecomb.case;
}
);
width = 618;
},
{
background = {
anchors = (
{
name = bottom;
pos = (325,0);
},
{
name = top;
pos = (325,690);
}
);
shapes = (
{
closed = 1;
nodes = (
(180,0,l),
(180,690,l),
(75,690,l),
(75,0,l)
);
},
{
closed = 1;
nodes = (
(565,0,l),
(565,96,l),
(125,96,l),
(125,0,l)
);
},
{
closed = 1;
nodes = (
(500,306,l),
(500,402,l),
(125,402,l),
(125,306,l)
);
},
{
closed = 1;
nodes = (
(560,594,l),
(560,690,l),
(125,690,l),
(125,594,l)
);
},
{
closed = 1;
nodes = (
(422,735,o),
(470,777,o),
(475,845,c),
(405,845,l),
(401,820,o),
(380,805,o),
(325,805,c),
(270,805,o),
(249,820,o),
(245,845,c),
(175,845,l),
(180,777,o),
(228,735,o),
(325,735,c)
);
}
);
};
layerId = "0EB46722-B91C-41F5-AE00-C58F8D8E3AB4";
shapes = (
{
ref = E;
},
{
pos = (75,0);
ref = brevecomb.case;
}
);
width = 611;
},
{
associatedMasterId = "0EB46722-B91C-41F5-AE00-C58F8D8E3AB4";
layerId = "89946EFA-3063-4597-8F39-C29AA3B0B012";
shapes = (
{
ref = E;
},
{
pos = (75,0);
ref = brevecomb.case;
}
);
width = 611;
}
);
unicode = 276;
},
{
color = 10;
glyphname = Ecaron;
kernLeft = H;
kernRight = E;
lastChange = "2024-03-21 11:17:30 +0000";
layers = (
{
layerId = m001;
shapes = (
{
ref = E;
},
{
pos = (77,0);
ref = caroncomb.case;
}
);
width = 618;
},
{
background = {
anchors = (
{
name = bottom;
pos = (325,0);
},
{
name = top;
pos = (325,690);
}
);
shapes = (
{
closed = 1;
nodes = (
(180,0,l),
(180,690,l),
(75,690,l),
(75,0,l)
);
},
{
closed = 1;
nodes = (
(565,0,l),
(565,96,l),
(125,96,l),
(125,0,l)
);
},
{
closed = 1;
nodes = (
(500,306,l),
(500,402,l),
(125,402,l),
(125,306,l)
);
},
{
closed = 1;
nodes = (
(560,594,l),
(560,690,l),
(125,690,l),
(125,594,l)
);
},
{
closed = 1;
nodes = (
(394,735,l),
(508,845,l),
(409,845,l),
(260,735,l)
);
},
{
closed = 1;
nodes = (
(390,735,l),
(241,845,l),
(142,845,l),
(256,735,l)
);
}
);
};
layerId = "0EB46722-B91C-41F5-AE00-C58F8D8E3AB4";
shapes = (
{
ref = E;
},
{
pos = (75,0);
ref = caroncomb.case;
}
);
width = 611;
},
{
associatedMasterId = "0EB46722-B91C-41F5-AE00-C58F8D8E3AB4";
layerId = "89946EFA-3063-4597-8F39-C29AA3B0B012";
shapes = (
{
ref = E;
},
{
pos = (75,0);
ref = caroncomb.case;
}
);
width = 611;
}
);
unicode = 282;
},
{
color = 10;
glyphname = Ecircumflex;
kernLeft = H;
kernRight = E;
lastChange = "2024-03-21 11:17:30 +0000";
layers = (
{
layerId = m001;
shapes = (
{
ref = E;
},
{
pos = (77,0);
ref = circumflexcomb.case;
}
);
width = 618;
},
{
background = {
anchors = (
{
name = bottom;
pos = (325,0);
},
{
name = top;
pos = (325,690);
}
);
shapes = (
{
closed = 1;
nodes = (
(180,0,l),
(180,690,l),
(75,690,l),
(75,0,l)
);
},
{
closed = 1;
nodes = (
(565,0,l),
(565,96,l),
(125,96,l),
(125,0,l)
);
},
{
closed = 1;
nodes = (
(500,306,l),
(500,402,l),
(125,402,l),
(125,306,l)
);
},
{
closed = 1;
nodes = (
(560,594,l),
(560,690,l),
(125,690,l),
(125,594,l)
);
},
{
closed = 1;
nodes = (
(508,735,l),
(394,845,l),
(260,845,l),
(409,735,l)
);
},
{
closed = 1;
nodes = (
(241,735,l),
(390,845,l),
(256,845,l),
(142,735,l)
);
}
);
};
layerId = "0EB46722-B91C-41F5-AE00-C58F8D8E3AB4";
shapes = (
{
ref = E;
},
{
pos = (75,0);
ref = circumflexcomb.case;
}
);
width = 611;
},
{
associatedMasterId = "0EB46722-B91C-41F5-AE00-C58F8D8E3AB4";
layerId = "89946EFA-3063-4597-8F39-C29AA3B0B012";
shapes = (
{
ref = E;
},
{
pos = (75,0);
ref = circumflexcomb.case;
}
);
width = 611;
}
);
unicode = 202;
},
{
color = 10;
glyphname = Edieresis;
kernLeft = H;
kernRight = E;
lastChange = "2024-03-21 11:17:30 +0000";
layers = (
{
layerId = m001;
shapes = (
{
ref = E;
},
{
pos = (77,0);
ref = dieresiscomb.case;
}
);
width = 618;
},
{
background = {
anchors = (
{
name = bottom;
pos = (325,0);
},
{
name = top;
pos = (325,690);
}
);
shapes = (
{
closed = 1;
nodes = (
(180,0,l),
(180,690,l),
(75,690,l),
(75,0,l)
);
},
{
closed = 1;
nodes = (
(565,0,l),
(565,96,l),
(125,96,l),
(125,0,l)
);
},
{
closed = 1;
nodes = (
(500,306,l),
(500,402,l),
(125,402,l),
(125,306,l)
);
},
{
closed = 1;
nodes = (
(560,594,l),
(560,690,l),
(125,690,l),
(125,594,l)
);
},
{
closed = 1;
nodes = (
(458,742,o),
(483,765,o),
(483,798,cs),
(483,832,o),
(458,855,o),
(426,855,cs),
(394,855,o),
(369,832,o),
(369,798,cs),
(369,765,o),
(394,742,o),
(426,742,cs)
);
},
{
closed = 1;
nodes = (
(256,742,o),
(281,765,o),
(281,798,cs),
(281,832,o),
(256,855,o),
(224,855,cs),
(192,855,o),
(167,832,o),
(167,798,cs),
(167,765,o),
(192,742,o),
(224,742,cs)
);
}
);
};
layerId = "0EB46722-B91C-41F5-AE00-C58F8D8E3AB4";
shapes = (
{
ref = E;
},
{
pos = (75,0);
ref = dieresiscomb.case;
}
);
width = 611;
},
{
associatedMasterId = "0EB46722-B91C-41F5-AE00-C58F8D8E3AB4";
layerId = "89946EFA-3063-4597-8F39-C29AA3B0B012";
shapes = (
{
ref = E;
},
{
pos = (75,0);
ref = dieresiscomb.case;
}
);
width = 611;
}
);
unicode = 203;
},
{
color = 10;
glyphname = Edotaccent;
kernLeft = H;
kernRight = E;
lastChange = "2024-03-21 11:17:30 +0000";
layers = (
{
layerId = m001;
shapes = (
{
ref = E;
},
{
pos = (77,0);
ref = dotaccentcomb.case;
}
);
width = 618;
},
{
background = {
anchors = (
{
name = bottom;
pos = (325,0);
},
{
name = top;
pos = (325,690);
}
);
shapes = (
{
closed = 1;
nodes = (
(180,0,l),
(180,690,l),
(75,690,l),
(75,0,l)
);
},
{
closed = 1;
nodes = (
(565,0,l),
(565,96,l),
(125,96,l),
(125,0,l)
);
},
{
closed = 1;
nodes = (
(500,306,l),
(500,402,l),
(125,402,l),
(125,306,l)
);
},
{
closed = 1;
nodes = (
(560,594,l),
(560,690,l),
(125,690,l),
(125,594,l)
);
},
{
closed = 1;
nodes = (
(360,735,o),
(387,760,o),
(387,796,cs),
(387,833,o),
(360,858,o),
(325,858,cs),
(290,858,o),
(263,833,o),
(263,796,cs),
(263,760,o),
(290,735,o),
(325,735,cs)
);
}
);
};
layerId = "0EB46722-B91C-41F5-AE00-C58F8D8E3AB4";
shapes = (
{
ref = E;
},
{
pos = (75,0);
ref = dotaccentcomb.case;
}
);
width = 611;
},
{
associatedMasterId = "0EB46722-B91C-41F5-AE00-C58F8D8E3AB4";
layerId = "89946EFA-3063-4597-8F39-C29AA3B0B012";
shapes = (
{
ref = E;
},
{
pos = (75,0);
ref = dotaccentcomb.case;
}
);
width = 611;
}
);
unicode = 278;
},
{
color = 10;
glyphname = Edotbelow;
kernLeft = H;
kernRight = E;
lastChange = "2024-03-21 11:17:30 +0000";
layers = (
{
layerId = m001;
shapes = (
{
ref = E;
},
{
pos = (77,0);
ref = dotbelow;
}
);
width = 618;
},
{
background = {
anchors = (
{
name = bottom;
pos = (325,0);
},
{
name = top;
pos = (325,690);
}
);
shapes = (
{
closed = 1;
nodes = (
(180,0,l),
(180,690,l),
(75,690,l),
(75,0,l)
);
},
{
closed = 1;
nodes = (
(565,0,l),
(565,96,l),
(125,96,l),
(125,0,l)
);
},
{
closed = 1;
nodes = (
(500,306,l),
(500,402,l),
(125,402,l),
(125,306,l)
);
},
{
closed = 1;
nodes = (
(560,594,l),
(560,690,l),
(125,690,l),
(125,594,l)
);
},
{
closed = 1;
nodes = (
(360,-195,o),
(387,-170,o),
(387,-133,cs),
(387,-97,o),
(360,-72,o),
(325,-72,cs),
(290,-72,o),
(263,-97,o),
(263,-133,cs),
(263,-170,o),
(290,-195,o),
(325,-195,cs)
);
}
);
};
layerId = "0EB46722-B91C-41F5-AE00-C58F8D8E3AB4";
shapes = (
{
ref = E;
},
{
pos = (75,0);
ref = dotbelow;
}
);
width = 611;
},
{
associatedMasterId = "0EB46722-B91C-41F5-AE00-C58F8D8E3AB4";
layerId = "89946EFA-3063-4597-8F39-C29AA3B0B012";
shapes = (
{
ref = E;
},
{
pos = (75,0);
ref = dotbelow;
}
);
width = 611;
}
);
unicode = 7864;
},
{
color = 10;
glyphname = Egrave;
kernLeft = H;
kernRight = E;
lastChange = "2024-03-21 11:17:30 +0000";
layers = (
{
layerId = m001;
shapes = (
{
ref = E;
},
{
pos = (77,0);
ref = gravecomb.case;
}
);
width = 618;
},
{
background = {
anchors = (
{
name = bottom;
pos = (325,0);
},
{
name = top;
pos = (325,690);
}
);
shapes = (
{
closed = 1;
nodes = (
(180,0,l),
(180,690,l),
(75,690,l),
(75,0,l)
);
},
{
closed = 1;
nodes = (
(565,0,l),
(565,96,l),
(125,96,l),
(125,0,l)
);
},
{
closed = 1;
nodes = (
(500,306,l),
(500,402,l),
(125,402,l),
(125,306,l)
);
},
{
closed = 1;
nodes = (
(560,594,l),
(560,690,l),
(125,690,l),
(125,594,l)
);
},
{
closed = 1;
nodes = (
(386,735,l),
(286,845,l),
(155,845,l),
(292,735,l)
);
}
);
};
layerId = "0EB46722-B91C-41F5-AE00-C58F8D8E3AB4";
shapes = (
{
ref = E;
},
{
pos = (75,0);
ref = gravecomb.case;
}
);
width = 611;
},
{
associatedMasterId = "0EB46722-B91C-41F5-AE00-C58F8D8E3AB4";
layerId = "89946EFA-3063-4597-8F39-C29AA3B0B012";
shapes = (
{
ref = E;
},
{
pos = (75,0);
ref = gravecomb.case;
}
);
width = 611;
}
);
unicode = 200;
},
{
color = 10;
glyphname = Emacron;
kernLeft = H;
kernRight = E;
lastChange = "2024-03-21 11:17:30 +0000";
layers = (
{
layerId = m001;
shapes = (
{
ref = E;
},
{
pos = (77,0);
ref = macroncomb.case;
}
);
width = 618;
},
{
background = {
anchors = (
{
name = bottom;
pos = (325,0);
},
{
name = top;
pos = (325,690);
}
);
shapes = (
{
closed = 1;
nodes = (
(180,0,l),
(180,690,l),
(75,690,l),
(75,0,l)
);
},
{
closed = 1;
nodes = (
(565,0,l),
(565,96,l),
(125,96,l),
(125,0,l)
);
},
{
closed = 1;
nodes = (
(500,306,l),
(500,402,l),
(125,402,l),
(125,306,l)
);
},
{
closed = 1;
nodes = (
(560,594,l),
(560,690,l),
(125,690,l),
(125,594,l)
);
},
{
closed = 1;
nodes = (
(483,753,l),
(483,837,l),
(167,837,l),
(167,753,l)
);
}
);
};
layerId = "0EB46722-B91C-41F5-AE00-C58F8D8E3AB4";
shapes = (
{
ref = E;
},
{
pos = (75,0);
ref = macroncomb.case;
}
);
width = 611;
},
{
associatedMasterId = "0EB46722-B91C-41F5-AE00-C58F8D8E3AB4";
layerId = "89946EFA-3063-4597-8F39-C29AA3B0B012";
shapes = (
{
ref = E;
},
{
pos = (75,0);
ref = macroncomb.case;
}
);
width = 611;
}
);
unicode = 274;
},
{
color = 10;
glyphname = Eogonek;
kernLeft = H;
kernRight = E;
lastChange = "2024-03-21 13:35:19 +0000";
layers = (
{
layerId = m001;
shapes = (
{
ref = E;
},
{
pos = (243,0);
ref = ogonekcomb;
}
);
width = 618;
},
{
background = {
shapes = (
{
closed = 1;
nodes = (
(180,0,l),
(180,690,l),
(75,690,l),
(75,0,l)
);
},
{
closed = 1;
nodes = (
(502,-185,o),
(537,-176,o),
(565,-165,c),
(556,-84,l),
(533,-94,o),
(499,-106,o),
(479,-106,c),
(466,-106,o),
(458,-101,o),
(458,-89,c),
(458,-65,o),
(495,-34,o),
(565,0,c),
(465,0,l),
(397,-37,o),
(374,-69,o),
(374,-111,c),
(374,-153,o),
(408,-185,o),
(473,-185,cs)
);
},
{
closed = 1;
nodes = (
(565,0,l),
(565,96,l),
(125,96,l),
(125,0,l)
);
},
{
closed = 1;
nodes = (
(500,306,l),
(500,402,l),
(125,402,l),
(125,306,l)
);
},
{
closed = 1;
nodes = (
(560,594,l),
(560,690,l),
(125,690,l),
(125,594,l)
);
}
);
};
layerId = "0EB46722-B91C-41F5-AE00-C58F8D8E3AB4";
shapes = (
{
ref = E;
},
{
pos = (261,0);
ref = ogonekcomb;
}
);
width = 611;
},
{
associatedMasterId = "0EB46722-B91C-41F5-AE00-C58F8D8E3AB4";
layerId = "89946EFA-3063-4597-8F39-C29AA3B0B012";
shapes = (
{
closed = 1;
nodes = (
(397,-37,o),
(374,-69,o),
(374,-111,c),
(374,-153,o),
(408,-185,o),
(473,-185,cs),
(502,-185,o),
(537,-176,o),
(565,-165,c),
(556,-84,l),
(533,-94,o),
(499,-106,o),
(479,-106,c),
(466,-106,o),
(458,-101,o),
(458,-89,c),
(458,-65,o),
(495,-34,o),
(565,0,c),
(465,0,l)
);
},
{
closed = 1;
nodes = (
(180,0,l),
(180,690,l),
(75,690,l),
(75,0,l)
);
},
{
closed = 1;
nodes = (
(125,306,l),
(500,306,l),
(500,402,l),
(125,402,l)
);
},
{
closed = 1;
nodes = (
(125,0,l),
(565,0,l),
(565,96,l),
(125,96,l)
);
},
{
closed = 1;
nodes = (
(125,594,l),
(560,594,l),
(560,690,l),
(125,690,l)
);
}
);
width = 611;
}
);
unicode = 280;
},
{
color = 10;
glyphname = Etilde;
kernLeft = H;
kernRight = E;
lastChange = "2024-03-21 11:17:30 +0000";
layers = (
{
layerId = m001;
shapes = (
{
ref = E;
},
{
pos = (77,0);
ref = tildecomb.case;
}
);
width = 618;
},
{
background = {
anchors = (
{
name = bottom;
pos = (325,0);
},
{
name = top;
pos = (325,690);
}
);
shapes = (
{
closed = 1;
nodes = (
(180,0,l),
(180,690,l),
(75,690,l),
(75,0,l)
);
},
{
closed = 1;
nodes = (
(565,0,l),
(565,96,l),
(125,96,l),
(125,0,l)
);
},
{
closed = 1;
nodes = (
(500,306,l),
(500,402,l),
(125,402,l),
(125,306,l)
);
},
{
closed = 1;
nodes = (
(560,594,l),
(560,690,l),
(125,690,l),
(125,594,l)
);
},
{
closed = 1;
nodes = (
(233,735,l),
(234,757,o),
(246,773,o),
(267,773,c),
(298,773,o),
(328,735,o),
(385,735,c),
(442,735,o),
(478,777,o),
(485,845,c),
(417,845,l),
(416,823,o),
(404,807,o),
(383,807,c),
(353,807,o),
(322,845,o),
(265,845,c),
(208,845,o),
(172,803,o),
(165,735,c)
);
}
);
};
layerId = "0EB46722-B91C-41F5-AE00-C58F8D8E3AB4";
shapes = (
{
ref = E;
},
{
pos = (75,0);
ref = tildecomb.case;
}
);
width = 611;
},
{
associatedMasterId = "0EB46722-B91C-41F5-AE00-C58F8D8E3AB4";
layerId = "89946EFA-3063-4597-8F39-C29AA3B0B012";
shapes = (
{
ref = E;
},
{
pos = (75,0);
ref = tildecomb.case;
}
);
width = 611;
}
);
unicode = 7868;
},
{
color = 6;
glyphname = Schwa;
kernLeft = O;
kernRight = O;
lastChange = "2024-03-21 11:17:29 +0000";
layers = (
{
background = {
shapes = (
{
closed = 1;
nodes = (
(36,381,o),
(35,364,o),
(35,345,c),
(35,127,o),
(170,-14,o),
(363,-14,c),
(555,-14,o),
(692,129,o),
(692,345,c),
(692,560,o),
(557,704,o),
(366,704,c),
(194,704,o),
(85,624,o),
(53,506,c),
(236,459,l),
(254,515,o),
(297,540,o),
(354,540,c),
(441,540,o),
(494,479,o),
(494,345,c),
(494,202,o),
(443,147,o),
(363,147,c),
(278,147,o),
(231,201,o),
(231,345,c),
(178,270,l),
(584,270,l),
(584,399,l),
(36,399,l)
);
}
);
};
layerId = m001;
shapes = (
{
closed = 1;
nodes = (
(557,-14,o),
(690,120,o),
(690,345,cs),
(690,571,o),
(556,704,o),
(361,704,cs),
(223,704,o),
(107,639,o),
(59,525,c),
(215,469,l),
(240,528,o),
(295,558,o),
(361,558,cs),
(465,558,o),
(532,486,o),
(532,345,cs),
(532,205,o),
(466,132,o),
(362,132,cs),
(259,132,o),
(194,205,o),
(194,345,c),
(143,275,l),
(580,275,l),
(580,409,l),
(39,409,l),
(36,388,o),
(36,357,o),
(36,345,cs),
(36,120,o),
(168,-14,o),
(362,-14,cs)
);
}
);
width = 726;
},
{
background = {
shapes = (
{
closed = 1;
nodes = (
(530,-10,o),
(653,125,o),
(653,345,cs),
(653,566,o),
(529,700,o),
(346,700,c),
(218,700,o),
(116,635,o),
(68,520,c),
(169,480,l),
(200,560,o),
(262,603,o),
(346,603,c),
(468,603,o),
(544,512,o),
(544,345,cs),
(544,179,o),
(469,87,o),
(348,87,cs),
(228,87,o),
(153,179,o),
(153,345,c),
(127,283,l),
(579,283,l),
(579,379,l),
(45,379,l),
(44,368,o),
(44,356,o),
(44,345,cs),
(44,125,o),
(167,-10,o),
(348,-10,cs)
);
}
);
};
layerId = "0EB46722-B91C-41F5-AE00-C58F8D8E3AB4";
shapes = (
{
closed = 1;
nodes = (
(530,-10,o),
(653,125,o),
(653,345,cs),
(653,566,o),
(529,700,o),
(346,700,c),
(218,700,o),
(116,635,o),
(68,520,c),
(169,480,l),
(200,560,o),
(262,603,o),
(346,603,c),
(468,603,o),
(544,512,o),
(544,345,cs),
(544,179,o),
(469,87,o),
(348,87,cs),
(228,87,o),
(153,179,o),
(153,345,c),
(127,283,l),
(579,283,l),
(579,379,l),
(45,379,l),
(44,368,o),
(44,356,o),
(44,345,cs),
(44,125,o),
(167,-10,o),
(348,-10,cs)
);
}
);
width = 697;
},
{
associatedMasterId = "0EB46722-B91C-41F5-AE00-C58F8D8E3AB4";
background = {
shapes = (
{
closed = 1;
nodes = (
(38,368,o),
(38,359,o),
(38,345,c),
(38,122,o),
(162,-10,o),
(339,-10,c),
(522,-10,o),
(651,122,o),
(651,345,c),
(651,561,o),
(525,700,o),
(336,700,c),
(203,700,o),
(99,634,o),
(53,518,c),
(174,470,l),
(206,548,o),
(260,579,o),
(336,579,c),
(449,579,o),
(517,505,o),
(517,345,c),
(517,173,o),
(446,101,o),
(339,101,c),
(238,101,o),
(172,173,o),
(172,345,c),
(135,287,l),
(545,287,l),
(545,389,l),
(39,389,l)
);
}
);
};
layerId = "89946EFA-3063-4597-8F39-C29AA3B0B012";
shapes = (
{
closed = 1;
nodes = (
(153,179,o),
(228,87,o),
(348,87,cs),
(469,87,o),
(544,179,o),
(544,345,cs),
(544,512,o),
(468,603,o),
(346,603,c),
(262,603,o),
(200,560,o),
(169,480,c),
(68,520,l),
(116,635,o),
(218,700,o),
(346,700,c),
(529,700,o),
(653,566,o),
(653,345,cs),
(653,125,o),
(530,-10,o),
(348,-10,cs),
(167,-10,o),
(44,125,o),
(44,345,cs),
(44,356,o),
(44,368,o),
(45,379,c),
(579,379,l),
(579,283,l),
(127,283,l),
(153,345,l)
);
}
);
width = 697;
}
);
unicode = 399;
},
{
color = 6;
glyphname = F;
kernLeft = H;
kernRight = F;
lastChange = "2024-03-21 11:17:29 +0000";
layers = (
{
layerId = m001;
shapes = (
{
closed = 1;
nodes = (
(217,0,l),
(217,690,l),
(62,690,l),
(62,0,l)
);
},
{
closed = 1;
nodes = (
(517,262,l),
(517,399,l),
(130,399,l),
(130,262,l)
);
},
{
closed = 1;
nodes = (
(558,545,l),
(558,690,l),
(130,690,l),
(130,545,l)
);
}
);
width = 583;
},
{
background = {
shapes = (
{
closed = 1;
nodes = (
(180,0,l),
(180,690,l),
(75,690,l),
(75,0,l)
);
},
{
closed = 1;
nodes = (
(500,286,l),
(500,382,l),
(125,382,l),
(125,286,l)
);
},
{
closed = 1;
nodes = (
(540,594,l),
(540,690,l),
(125,690,l),
(125,594,l)
);
}
);
};
layerId = "0EB46722-B91C-41F5-AE00-C58F8D8E3AB4";
shapes = (
{
closed = 1;
nodes = (
(180,0,l),
(180,690,l),
(75,690,l),
(75,0,l)
);
},
{
closed = 1;
nodes = (
(500,286,l),
(500,382,l),
(125,382,l),
(125,286,l)
);
},
{
closed = 1;
nodes = (
(540,594,l),
(540,690,l),
(125,690,l),
(125,594,l)
);
}
);
width = 576;
},
{
associatedMasterId = "0EB46722-B91C-41F5-AE00-C58F8D8E3AB4";
layerId = "89946EFA-3063-4597-8F39-C29AA3B0B012";
shapes = (
{
closed = 1;
nodes = (
(180,0,l),
(180,690,l),
(75,690,l),
(75,0,l)
);
},
{
closed = 1;
nodes = (
(125,286,l),
(500,286,l),
(500,382,l),
(125,382,l)
);
},
{
closed = 1;
nodes = (
(125,594,l),
(540,594,l),
(540,690,l),
(125,690,l)
);
}
);
width = 576;
}
);
unicode = 70;
},
{
color = 6;
glyphname = G;
kernLeft = O;
kernRight = G;
lastChange = "2024-03-21 11:17:29 +0000";
layers = (
{
anchors = (
{
name = bottom;
pos = (358,0);
},
{
name = top;
pos = (359,690);
}
);
layerId = m001;
shapes = (
{
closed = 1;
nodes = (
(474,-14,o),
(572,84,o),
(575,280,c),
(516,280,l),
(516,185,o),
(451,128,o),
(360,128,c),
(257,128,o),
(194,206,o),
(194,341,c),
(194,477,o),
(261,558,o),
(360,558,c),
(441,558,o),
(493,508,o),
(504,435,c),
(658,477,l),
(629,613,o),
(516,704,o),
(360,704,c),
(169,704,o),
(36,562,o),
(36,341,c),
(36,127,o),
(159,-14,o),
(328,-14,c)
);
},
{
closed = 1;
nodes = (
(667,0,l),
(667,377,l),
(516,377,l),
(516,214,l),
(544,0,l)
);
},
{
closed = 1;
nodes = (
(604,250,l),
(604,377,l),
(350,377,l),
(350,250,l)
);
}
);
width = 722;
},
{
anchors = (
{
name = bottom;
pos = (352,0);
},
{
name = top;
pos = (365,690);
}
);
background = {
anchors = (
{
name = bottom;
pos = (352,0);
},
{
name = top;
pos = (365,690);
}
);
shapes = (
{
closed = 1;
nodes = (
(497,-10,o),
(583,125,o),
(583,275,c),
(543,275,l),
(543,169,o),
(472,87,o),
(352,87,c),
(231,87,o),
(153,179,o),
(153,345,c),
(153,517,o),
(236,603,o),
(362,603,c),
(458,603,o),
(520,554,o),
(540,465,c),
(644,493,l),
(611,623,o),
(506,700,o),
(365,700,c),
(175,700,o),
(44,566,o),
(44,345,c),
(44,125,o),
(166,-10,o),
(335,-10,c)
);
},
{
closed = 1;
nodes = (
(644,0,l),
(644,350,l),
(543,350,l),
(543,214,l),
(552,0,l)
);
},
{
closed = 1;
nodes = (
(594,264,l),
(594,350,l),
(349,350,l),
(349,264,l)
);
}
);
};
layerId = "0EB46722-B91C-41F5-AE00-C58F8D8E3AB4";
shapes = (
{
closed = 1;
nodes = (
(497,-10,o),
(583,125,o),
(583,275,c),
(543,275,l),
(543,169,o),
(472,87,o),
(352,87,c),
(231,87,o),
(153,179,o),
(153,345,c),
(153,517,o),
(236,603,o),
(362,603,c),
(458,603,o),
(520,554,o),
(540,465,c),
(644,493,l),
(611,623,o),
(506,700,o),
(365,700,c),
(175,700,o),
(44,566,o),
(44,345,c),
(44,125,o),
(166,-10,o),
(335,-10,c)
);
},
{
closed = 1;
nodes = (
(644,0,l),
(644,350,l),
(543,350,l),
(543,214,l),
(552,0,l)
);
},
{
closed = 1;
nodes = (
(594,264,l),
(594,350,l),
(349,350,l),
(349,264,l)
);
}
);
width = 704;
},
{
anchors = (
{
name = bottom;
pos = (352,0);
},
{
name = top;
pos = (365,690);
}
);
associatedMasterId = "0EB46722-B91C-41F5-AE00-C58F8D8E3AB4";
background = {
shapes = (
{
closed = 1;
nodes = (
(234,86,o),
(149,174.48,o),
(149,345,cs),
(149,516.545,o),
(232,603,o),
(358,603,c),
(454,603,o),
(516.117,553.839,o),
(536,465,c),
(640,493,l),
(607.176,623,o),
(502,700,o),
(361,700,c),
(171.173,700,o),
(40,566,o),
(40,345,cs),
(40,125,o),
(161,-10,o),
(363,-10,c),
(471,-10,o),
(569,36,o),
(640,124,c),
(535,152,l),
(499,111,o),
(441,86,o),
(365,86,c)
);
},
{
closed = 1;
nodes = (
(535,-44,l),
(640,4,l),
(640,350,l),
(535,350,l)
);
},
{
closed = 1;
nodes = (
(590,264,l),
(590,350,l),
(345,350,l),
(345,264,l)
);
}
);
};
layerId = "89946EFA-3063-4597-8F39-C29AA3B0B012";
shapes = (
{
closed = 1;
nodes = (
(543,214,l),
(552,0,l),
(644,0,l),
(644,350,l),
(543,350,l)
);
},
{
closed = 1;
nodes = (
(594,264,l),
(594,350,l),
(349,350,l),
(349,264,l)
);
},
{
closed = 1;
nodes = (
(231,87,o),
(153,179,o),
(153,345,c),
(153,517,o),
(236,603,o),
(362,603,c),
(458,603,o),
(520,554,o),
(540,465,c),
(644,493,l),
(611,623,o),
(506,700,o),
(365,700,c),
(175,700,o),
(44,566,o),
(44,345,c),
(44,125,o),
(166,-10,o),
(335,-10,c),
(497,-10,o),
(583,125,o),
(583,275,c),
(543,275,l),
(543,169,o),
(472,87,o),
(352,87,c)
);
}
);
width = 704;
}
);
unicode = 71;
},
{
color = 10;
glyphname = Gbreve;
kernLeft = O;
kernRight = G;
lastChange = "2024-03-21 11:17:30 +0000";
layers = (
{
layerId = m001;
shapes = (
{
ref = G;
},
{
pos = (109,0);
ref = brevecomb.case;
}
);
width = 722;
},
{
background = {
anchors = (
{
name = bottom;
pos = (352,0);
},
{
name = top;
pos = (365,690);
}
);
shapes = (
{
closed = 1;
nodes = (
(497,-10,o),
(583,125,o),
(583,275,c),
(543,275,l),
(543,169,o),
(472,87,o),
(352,87,c),
(231,87,o),
(153,179,o),
(153,345,c),
(153,517,o),
(236,603,o),
(362,603,c),
(458,603,o),
(520,554,o),
(540,465,c),
(644,493,l),
(611,623,o),
(506,700,o),
(365,700,c),
(175,700,o),
(44,566,o),
(44,345,c),
(44,125,o),
(166,-10,o),
(335,-10,c)
);
},
{
closed = 1;
nodes = (
(644,0,l),
(644,350,l),
(543,350,l),
(543,214,l),
(552,0,l)
);
},
{
closed = 1;
nodes = (
(594,264,l),
(594,350,l),
(349,350,l),
(349,264,l)
);
},
{
closed = 1;
nodes = (
(462,735,o),
(510,777,o),
(515,845,c),
(445,845,l),
(441,820,o),
(420,805,o),
(365,805,c),
(310,805,o),
(289,820,o),
(285,845,c),
(215,845,l),
(220,777,o),
(268,735,o),
(365,735,c)
);
}
);
};
layerId = "0EB46722-B91C-41F5-AE00-C58F8D8E3AB4";
shapes = (
{
ref = G;
},
{
pos = (115,0);
ref = brevecomb.case;
}
);
width = 704;
},
{
associatedMasterId = "0EB46722-B91C-41F5-AE00-C58F8D8E3AB4";
layerId = "89946EFA-3063-4597-8F39-C29AA3B0B012";
shapes = (
{
ref = G;
},
{
pos = (115,0);
ref = brevecomb.case;
}
);
width = 704;
}
);
unicode = 286;
},
{
color = 10;
glyphname = Gcaron;
kernLeft = O;
kernRight = G;
lastChange = "2024-03-21 11:17:30 +0000";
layers = (
{
layerId = m001;
shapes = (
{
ref = G;
},
{
pos = (109,0);
ref = caroncomb.case;
}
);
width = 722;
},
{
background = {
anchors = (
{
name = bottom;
pos = (352,0);
},
{
name = top;
pos = (365,690);
}
);
shapes = (
{
closed = 1;
nodes = (
(497,-10,o),
(583,125,o),
(583,275,c),
(543,275,l),
(543,169,o),
(472,87,o),
(352,87,c),
(231,87,o),
(153,179,o),
(153,345,c),
(153,517,o),
(236,603,o),
(362,603,c),
(458,603,o),
(520,554,o),
(540,465,c),
(644,493,l),
(611,623,o),
(506,700,o),
(365,700,c),
(175,700,o),
(44,566,o),
(44,345,c),
(44,125,o),
(166,-10,o),
(335,-10,c)
);
},
{
closed = 1;
nodes = (
(644,0,l),
(644,350,l),
(543,350,l),
(543,214,l),
(552,0,l)
);
},
{
closed = 1;
nodes = (
(594,264,l),
(594,350,l),
(349,350,l),
(349,264,l)
);
},
{
closed = 1;
nodes = (
(434,735,l),
(548,845,l),
(449,845,l),
(300,735,l)
);
},
{
closed = 1;
nodes = (
(430,735,l),
(281,845,l),
(182,845,l),
(296,735,l)
);
}
);
};
layerId = "0EB46722-B91C-41F5-AE00-C58F8D8E3AB4";
shapes = (
{
ref = G;
},
{
pos = (115,0);
ref = caroncomb.case;
}
);
width = 704;
},
{
associatedMasterId = "0EB46722-B91C-41F5-AE00-C58F8D8E3AB4";
layerId = "89946EFA-3063-4597-8F39-C29AA3B0B012";
shapes = (
{
ref = G;
},
{
pos = (115,0);
ref = caroncomb.case;
}
);
width = 704;
}
);
unicode = 486;
},
{
color = 10;
glyphname = Gcircumflex;
kernLeft = O;
kernRight = G;
lastChange = "2024-03-21 11:17:30 +0000";
layers = (
{
layerId = m001;
shapes = (
{
ref = G;
},
{
pos = (109,0);
ref = circumflexcomb.case;
}
);
width = 722;
},
{
background = {
anchors = (
{
name = bottom;
pos = (352,0);
},
{
name = top;
pos = (365,690);
}
);
shapes = (
{
closed = 1;
nodes = (
(497,-10,o),
(583,125,o),
(583,275,c),
(543,275,l),
(543,169,o),
(472,87,o),
(352,87,c),
(231,87,o),
(153,179,o),
(153,345,c),
(153,517,o),
(236,603,o),
(362,603,c),
(458,603,o),
(520,554,o),
(540,465,c),
(644,493,l),
(611,623,o),
(506,700,o),
(365,700,c),
(175,700,o),
(44,566,o),
(44,345,c),
(44,125,o),
(166,-10,o),
(335,-10,c)
);
},
{
closed = 1;
nodes = (
(644,0,l),
(644,350,l),
(543,350,l),
(543,214,l),
(552,0,l)
);
},
{
closed = 1;
nodes = (
(594,264,l),
(594,350,l),
(349,350,l),
(349,264,l)
);
},
{
closed = 1;
nodes = (
(548,735,l),
(434,845,l),
(300,845,l),
(449,735,l)
);
},
{
closed = 1;
nodes = (
(281,735,l),
(430,845,l),
(296,845,l),
(182,735,l)
);
}
);
};
layerId = "0EB46722-B91C-41F5-AE00-C58F8D8E3AB4";
shapes = (
{
ref = G;
},
{
pos = (115,0);
ref = circumflexcomb.case;
}
);
width = 704;
},
{
associatedMasterId = "0EB46722-B91C-41F5-AE00-C58F8D8E3AB4";
layerId = "89946EFA-3063-4597-8F39-C29AA3B0B012";
shapes = (
{
ref = G;
},
{
pos = (115,0);
ref = circumflexcomb.case;
}
);
width = 704;
}
);
unicode = 284;
},
{
color = 10;
glyphname = Gcommaaccent;
kernLeft = O;
kernRight = G;
lastChange = "2024-03-21 11:17:30 +0000";
layers = (
{
layerId = m001;
shapes = (
{
ref = G;
},
{
pos = (214,0);
ref = commaaccentcomb;
}
);
width = 722;
},
{
background = {
anchors = (
{
name = bottom;
pos = (352,0);
},
{
name = top;
pos = (365,690);
}
);
shapes = (
{
closed = 1;
nodes = (
(497,-10,o),
(583,125,o),
(583,275,c),
(543,275,l),
(543,169,o),
(472,87,o),
(352,87,c),
(231,87,o),
(153,179,o),
(153,345,c),
(153,517,o),
(236,603,o),
(362,603,c),
(458,603,o),
(520,554,o),
(540,465,c),
(644,493,l),
(611,623,o),
(506,700,o),
(365,700,c),
(175,700,o),
(44,566,o),
(44,345,c),
(44,125,o),
(166,-10,o),
(335,-10,c)
);
},
{
closed = 1;
nodes = (
(644,0,l),
(644,350,l),
(543,350,l),
(543,214,l),
(552,0,l)
);
},
{
closed = 1;
nodes = (
(594,264,l),
(594,350,l),
(349,350,l),
(349,264,l)
);
},
{
closed = 1;
nodes = (
(368,-275,l),
(409,-72,l),
(305,-72,l),
(305,-275,l)
);
}
);
};
layerId = "0EB46722-B91C-41F5-AE00-C58F8D8E3AB4";
shapes = (
{
ref = G;
},
{
pos = (211,0);
ref = commaaccentcomb;
}
);
width = 704;
}
);
unicode = 290;
},
{
color = 10;
glyphname = Gdotaccent;
kernLeft = O;
kernRight = G;
lastChange = "2024-03-21 11:17:30 +0000";
layers = (
{
layerId = m001;
shapes = (
{
ref = G;
},
{
pos = (109,0);
ref = dotaccentcomb.case;
}
);
width = 722;
},
{
background = {
anchors = (
{
name = bottom;
pos = (352,0);
},
{
name = top;
pos = (365,690);
}
);
shapes = (
{
closed = 1;
nodes = (
(497,-10,o),
(583,125,o),
(583,275,c),
(543,275,l),
(543,169,o),
(472,87,o),
(352,87,c),
(231,87,o),
(153,179,o),
(153,345,c),
(153,517,o),
(236,603,o),
(362,603,c),
(458,603,o),
(520,554,o),
(540,465,c),
(644,493,l),
(611,623,o),
(506,700,o),
(365,700,c),
(175,700,o),
(44,566,o),
(44,345,c),
(44,125,o),
(166,-10,o),
(335,-10,c)
);
},
{
closed = 1;
nodes = (
(644,0,l),
(644,350,l),
(543,350,l),
(543,214,l),
(552,0,l)
);
},
{
closed = 1;
nodes = (
(594,264,l),
(594,350,l),
(349,350,l),
(349,264,l)
);
},
{
closed = 1;
nodes = (
(400,735,o),
(427,760,o),
(427,796,cs),
(427,833,o),
(400,858,o),
(365,858,cs),
(330,858,o),
(303,833,o),
(303,796,cs),
(303,760,o),
(330,735,o),
(365,735,cs)
);
}
);
};
layerId = "0EB46722-B91C-41F5-AE00-C58F8D8E3AB4";
shapes = (
{
ref = G;
},
{
pos = (115,0);
ref = dotaccentcomb.case;
}
);
width = 704;
},
{
associatedMasterId = "0EB46722-B91C-41F5-AE00-C58F8D8E3AB4";
layerId = "89946EFA-3063-4597-8F39-C29AA3B0B012";
shapes = (
{
ref = G;
},
{
pos = (115,0);
ref = dotaccentcomb.case;
}
);
width = 704;
}
);
unicode = 288;
},
{
color = 6;
glyphname = H;
kernLeft = H;
kernRight = H;
lastChange = "2024-03-22 12:23:55 +0000";
layers = (
{
anchors = (
{
name = bottom;
pos = (358,0);
},
{
name = center;
pos = (358,518);
},
{
name = top;
pos = (358,690);
},
{
name = topleft;
pos = (20,690);
}
);
layerId = m001;
shapes = (
{
closed = 1;
nodes = (
(653,0,l),
(653,690,l),
(498,690,l),
(498,0,l)
);
},
{
closed = 1;
nodes = (
(217,0,l),
(217,690,l),
(62,690,l),
(62,0,l)
);
},
{
closed = 1;
nodes = (
(585,278,l),
(585,423,l),
(130,423,l),
(130,278,l)
);
}
);
width = 715;
},
{
anchors = (
{
name = bottom;
pos = (353,0);
},
{
name = center;
pos = (353,518);
},
{
name = top;
pos = (353,690);
},
{
name = topleft;
pos = (20,690);
}
);
background = {
anchors = (
{
name = bottom;
pos = (353,0);
},
{
name = center;
pos = (353,518);
},
{
name = top;
pos = (353,690);
},
{
name = topleft;
pos = (20,690);
}
);
shapes = (
{
closed = 1;
nodes = (
(630,0,l),
(630,690,l),
(525,690,l),
(525,0,l)
);
},
{
closed = 1;
nodes = (
(180,0,l),
(180,690,l),
(75,690,l),
(75,0,l)
);
},
{
closed = 1;
nodes = (
(580,306,l),
(580,402,l),
(125,402,l),
(125,306,l)
);
}
);
};
layerId = "0EB46722-B91C-41F5-AE00-C58F8D8E3AB4";
shapes = (
{
closed = 1;
nodes = (
(630,0,l),
(630,690,l),
(525,690,l),
(525,0,l)
);
},
{
closed = 1;
nodes = (
(180,0,l),
(180,690,l),
(75,690,l),
(75,0,l)
);
},
{
closed = 1;
nodes = (
(580,306,l),
(580,402,l),
(125,402,l),
(125,306,l)
);
}
);
width = 705;
},
{
anchors = (
{
name = bottom;
pos = (353,0);
},
{
name = top;
pos = (353,690);
}
);
associatedMasterId = "0EB46722-B91C-41F5-AE00-C58F8D8E3AB4";
layerId = "89946EFA-3063-4597-8F39-C29AA3B0B012";
shapes = (
{
closed = 1;
nodes = (
(180,0,l),
(180,690,l),
(75,690,l),
(75,0,l)
);
},
{
closed = 1;
nodes = (
(630,0,l),
(630,690,l),
(525,690,l),
(525,0,l)
);
},
{
closed = 1;
nodes = (
(125,306,l),
(580,306,l),
(580,402,l),
(125,402,l)
);
}
);
width = 705;
}
);
unicode = 72;
},
{
color = 6;
glyphname = Hbar;
lastChange = "2024-03-21 11:17:29 +0000";
layers = (
{
layerId = m001;
shapes = (
{
closed = 1;
nodes = (
(658,0,l),
(658,690,l),
(503,690,l),
(503,0,l)
);
},
{
closed = 1;
nodes = (
(222,0,l),
(222,690,l),
(67,690,l),
(67,0,l)
);
},
{
closed = 1;
nodes = (
(590,228,l),
(590,373,l),
(135,373,l),
(135,228,l)
);
},
{
closed = 1;
nodes = (
(715,478,l),
(715,599,l),
(10,599,l),
(10,478,l)
);
}
);
width = 725;
},
{
background = {
shapes = (
{
closed = 1;
nodes = (
(645,0,l),
(645,690,l),
(540,690,l),
(540,0,l)
);
},
{
closed = 1;
nodes = (
(195,0,l),
(195,690,l),
(90,690,l),
(90,0,l)
);
},
{
closed = 1;
nodes = (
(595,286,l),
(595,382,l),
(140,382,l),
(140,286,l)
);
},
{
closed = 1;
nodes = (
(715,482,l),
(715,573,l),
(20,573,l),
(20,482,l)
);
}
);
};
layerId = "0EB46722-B91C-41F5-AE00-C58F8D8E3AB4";
shapes = (
{
closed = 1;
nodes = (
(645,0,l),
(645,690,l),
(540,690,l),
(540,0,l)
);
},
{
closed = 1;
nodes = (
(195,0,l),
(195,690,l),
(90,690,l),
(90,0,l)
);
},
{
closed = 1;
nodes = (
(595,286,l),
(595,382,l),
(140,382,l),
(140,286,l)
);
},
{
closed = 1;
nodes = (
(715,482,l),
(715,573,l),
(20,573,l),
(20,482,l)
);
}
);
width = 735;
},
{
associatedMasterId = "0EB46722-B91C-41F5-AE00-C58F8D8E3AB4";
layerId = "89946EFA-3063-4597-8F39-C29AA3B0B012";
shapes = (
{
closed = 1;
nodes = (
(20,482,l),
(715,482,l),
(715,573,l),
(20,573,l)
);
},
{
closed = 1;
nodes = (
(195,0,l),
(195,690,l),
(90,690,l),
(90,0,l)
);
},
{
closed = 1;
nodes = (
(645,0,l),
(645,690,l),
(540,690,l),
(540,0,l)
);
},
{
closed = 1;
nodes = (
(140,286,l),
(595,286,l),
(595,382,l),
(140,382,l)
);
}
);
width = 735;
}
);
unicode = 294;
},
{
color = 10;
glyphname = Hcircumflex;
kernLeft = H;
kernRight = H;
lastChange = "2024-03-21 11:17:30 +0000";
layers = (
{
layerId = m001;
shapes = (
{
ref = H;
},
{
pos = (108,0);
ref = circumflexcomb.case;
}
);
width = 715;
},
{
background = {
anchors = (
{
name = bottom;
pos = (353,0);
},
{
name = center;
pos = (353,518);
},
{
name = top;
pos = (353,690);
},
{
name = topleft;
pos = (20,690);
}
);
shapes = (
{
closed = 1;
nodes = (
(630,0,l),
(630,690,l),
(525,690,l),
(525,0,l)
);
},
{
closed = 1;
nodes = (
(180,0,l),
(180,690,l),
(75,690,l),
(75,0,l)
);
},
{
closed = 1;
nodes = (
(580,306,l),
(580,402,l),
(125,402,l),
(125,306,l)
);
},
{
closed = 1;
nodes = (
(536,735,l),
(422,845,l),
(288,845,l),
(437,735,l)
);
},
{
closed = 1;
nodes = (
(269,735,l),
(418,845,l),
(284,845,l),
(170,735,l)
);
}
);
};
layerId = "0EB46722-B91C-41F5-AE00-C58F8D8E3AB4";
shapes = (
{
ref = H;
},
{
pos = (103,0);
ref = circumflexcomb.case;
}
);
width = 705;
},
{
associatedMasterId = "0EB46722-B91C-41F5-AE00-C58F8D8E3AB4";
layerId = "89946EFA-3063-4597-8F39-C29AA3B0B012";
shapes = (
{
ref = H;
},
{
pos = (103,0);
ref = circumflexcomb.case;
}
);
width = 705;
}
);
unicode = 292;
},
{
color = 6;
glyphname = I;
kernLeft = H;
kernRight = H;
lastChange = "2024-03-21 13:35:24 +0000";
layers = (
{
anchors = (
{
name = bottom;
pos = (139,0);
},
{
name = ogonek;
pos = (217,0);
},
{
name = top;
pos = (139,690);
}
);
layerId = m001;
shapes = (
{
closed = 1;
nodes = (
(217,0,l),
(217,690,l),
(62,690,l),
(62,0,l)
);
}
);
width = 279;
},
{
anchors = (
{
name = bottom;
pos = (128,0);
},
{
name = ogonek;
pos = (180,0);
},
{
name = top;
pos = (128,690);
}
);
background = {
anchors = (
{
name = bottom;
pos = (128,0);
},
{
name = top;
pos = (128,690);
}
);
shapes = (
{
closed = 1;
nodes = (
(180,0,l),
(180,690,l),
(75,690,l),
(75,0,l)
);
}
);
};
layerId = "0EB46722-B91C-41F5-AE00-C58F8D8E3AB4";
shapes = (
{
closed = 1;
nodes = (
(180,0,l),
(180,690,l),
(75,690,l),
(75,0,l)
);
}
);
width = 255;
},
{
anchors = (
{
name = bottom;
pos = (128,0);
},
{
name = top;
pos = (128,690);
}
);
associatedMasterId = "0EB46722-B91C-41F5-AE00-C58F8D8E3AB4";
layerId = "89946EFA-3063-4597-8F39-C29AA3B0B012";
shapes = (
{
closed = 1;
nodes = (
(180,0,l),
(180,690,l),
(75,690,l),
(75,0,l)
);
}
);
width = 255;
}
);
unicode = 73;
},
{
color = 10;
glyphname = IJ;
kernLeft = H;
kernRight = U;
lastChange = "2024-03-21 11:17:30 +0000";
layers = (
{
layerId = m001;
shapes = (
{
ref = I;
},
{
pos = (279,0);
ref = J;
}
);
width = 869;
},
{
background = {
shapes = (
{
closed = 1;
nodes = (
(652,-10,o),
(745,86,o),
(745,237,c),
(745,690,l),
(640,690,l),
(640,244,l),
(640,138,o),
(589,87,o),
(511,87,c),
(436,87,o),
(392,136,o),
(379,230,c),
(276,209,l),
(296,67,o),
(383,-10,o),
(511,-10,c)
);
},
{
closed = 1;
nodes = (
(180,0,l),
(180,690,l),
(75,690,l),
(75,0,l)
);
}
);
};
layerId = "0EB46722-B91C-41F5-AE00-C58F8D8E3AB4";
shapes = (
{
ref = I;
},
{
pos = (255,0);
ref = J;
}
);
width = 815;
},
{
associatedMasterId = "0EB46722-B91C-41F5-AE00-C58F8D8E3AB4";
layerId = "89946EFA-3063-4597-8F39-C29AA3B0B012";
shapes = (
{
closed = 1;
nodes = (
(180,0,l),
(180,690,l),
(75,690,l),
(75,0,l)
);
},
{
closed = 1;
nodes = (
(296,67,o),
(383,-10,o),
(511,-10,c),
(652,-10,o),
(745,86,o),
(745,237,c),
(745,690,l),
(640,690,l),
(640,244,l),
(640,138,o),
(589,87,o),
(511,87,c),
(436,87,o),
(392,136,o),
(379,230,c),
(276,209,l)
);
}
);
width = 815;
}
);
unicode = 306;
},
{
color = 10;
glyphname = Iacute;
kernLeft = H;
kernRight = H;
lastChange = "2024-03-21 11:17:30 +0000";
layers = (
{
layerId = m001;
shapes = (
{
ref = I;
},
{
pos = (-111,0);
ref = acutecomb.case;
}
);
width = 279;
},
{
background = {
anchors = (
{
name = bottom;
pos = (128,0);
},
{
name = top;
pos = (128,690);
}
);
shapes = (
{
closed = 1;
nodes = (
(180,0,l),
(180,690,l),
(75,690,l),
(75,0,l)
);
},
{
closed = 1;
nodes = (
(161,735,l),
(298,845,l),
(167,845,l),
(67,735,l)
);
}
);
};
layerId = "0EB46722-B91C-41F5-AE00-C58F8D8E3AB4";
shapes = (
{
ref = I;
},
{
pos = (-122,0);
ref = acutecomb.case;
}
);
width = 255;
},
{
associatedMasterId = "0EB46722-B91C-41F5-AE00-C58F8D8E3AB4";
layerId = "89946EFA-3063-4597-8F39-C29AA3B0B012";
shapes = (
{
ref = I;
},
{
pos = (-122,0);
ref = acutecomb.case;
}
);
width = 255;
}
);
unicode = 205;
},
{
color = 10;
glyphname = Ibreve;
kernLeft = H;
kernRight = H;
lastChange = "2024-03-21 11:17:30 +0000";
layers = (
{
layerId = m001;
shapes = (
{
ref = I;
},
{
pos = (-111,0);
ref = brevecomb.case;
}
);
width = 279;
},
{
background = {
anchors = (
{
name = bottom;
pos = (128,0);
},
{
name = top;
pos = (128,690);
}
);
shapes = (
{
closed = 1;
nodes = (
(180,0,l),
(180,690,l),
(75,690,l),
(75,0,l)
);
},
{
closed = 1;
nodes = (
(225,735,o),
(273,777,o),
(278,845,c),
(208,845,l),
(204,820,o),
(183,805,o),
(128,805,c),
(73,805,o),
(52,820,o),
(48,845,c),
(-22,845,l),
(-17,777,o),
(31,735,o),
(128,735,c)
);
}
);
};
layerId = "0EB46722-B91C-41F5-AE00-C58F8D8E3AB4";
shapes = (
{
ref = I;
},
{
pos = (-122,0);
ref = brevecomb.case;
}
);
width = 255;
},
{
associatedMasterId = "0EB46722-B91C-41F5-AE00-C58F8D8E3AB4";
layerId = "89946EFA-3063-4597-8F39-C29AA3B0B012";
shapes = (
{
ref = I;
},
{
pos = (-122,0);
ref = brevecomb.case;
}
);
width = 255;
}
);
unicode = 300;
},
{
color = 10;
glyphname = Icircumflex;
kernLeft = H;
kernRight = H;
lastChange = "2024-03-21 11:17:30 +0000";
layers = (
{
layerId = m001;
shapes = (
{
ref = I;
},
{
pos = (-111,0);
ref = circumflexcomb.case;
}
);
width = 279;
},
{
background = {
anchors = (
{
name = bottom;
pos = (128,0);
},
{
name = top;
pos = (128,690);
}
);
shapes = (
{
closed = 1;
nodes = (
(180,0,l),
(180,690,l),
(75,690,l),
(75,0,l)
);
},
{
closed = 1;
nodes = (
(311,735,l),
(197,845,l),
(63,845,l),
(212,735,l)
);
},
{
closed = 1;
nodes = (
(44,735,l),
(193,845,l),
(59,845,l),
(-55,735,l)
);
}
);
};
layerId = "0EB46722-B91C-41F5-AE00-C58F8D8E3AB4";
shapes = (
{
ref = I;
},
{
pos = (-122,0);
ref = circumflexcomb.case;
}
);
width = 255;
},
{
associatedMasterId = "0EB46722-B91C-41F5-AE00-C58F8D8E3AB4";
layerId = "89946EFA-3063-4597-8F39-C29AA3B0B012";
shapes = (
{
ref = I;
},
{
pos = (-122,0);
ref = circumflexcomb.case;
}
);
width = 255;
}
);
unicode = 206;
},
{
color = 10;
glyphname = Idieresis;
kernLeft = H;
kernRight = H;
lastChange = "2024-03-21 11:17:30 +0000";
layers = (
{
layerId = m001;
shapes = (
{
ref = I;
},
{
pos = (-111,0);
ref = dieresiscomb.case;
}
);
width = 279;
},
{
background = {
anchors = (
{
name = bottom;
pos = (128,0);
},
{
name = top;
pos = (128,690);
}
);
shapes = (
{
closed = 1;
nodes = (
(180,0,l),
(180,690,l),
(75,690,l),
(75,0,l)
);
},
{
closed = 1;
nodes = (
(261,742,o),
(286,765,o),
(286,798,cs),
(286,832,o),
(261,855,o),
(229,855,cs),
(197,855,o),
(172,832,o),
(172,798,cs),
(172,765,o),
(197,742,o),
(229,742,cs)
);
},
{
closed = 1;
nodes = (
(59,742,o),
(84,765,o),
(84,798,cs),
(84,832,o),
(59,855,o),
(27,855,cs),
(-5,855,o),
(-30,832,o),
(-30,798,cs),
(-30,765,o),
(-5,742,o),
(27,742,cs)
);
}
);
};
layerId = "0EB46722-B91C-41F5-AE00-C58F8D8E3AB4";
shapes = (
{
ref = I;
},
{
pos = (-122,0);
ref = dieresiscomb.case;
}
);
width = 255;
},
{
associatedMasterId = "0EB46722-B91C-41F5-AE00-C58F8D8E3AB4";
layerId = "89946EFA-3063-4597-8F39-C29AA3B0B012";
shapes = (
{
ref = I;
},
{
pos = (-122,0);
ref = dieresiscomb.case;
}
);
width = 255;
}
);
unicode = 207;
},
{
color = 10;
glyphname = Idotaccent;
kernLeft = H;
kernRight = H;
lastChange = "2024-03-21 11:17:30 +0000";
layers = (
{
layerId = m001;
shapes = (
{
ref = I;
},
{
pos = (-111,0);
ref = dotaccentcomb.case;
}
);
width = 279;
},
{
background = {
anchors = (
{
name = bottom;
pos = (128,0);
},
{
name = top;
pos = (128,690);
}
);
shapes = (
{
closed = 1;
nodes = (
(180,0,l),
(180,690,l),
(75,690,l),
(75,0,l)
);
},
{
closed = 1;
nodes = (
(163,735,o),
(190,760,o),
(190,796,cs),
(190,833,o),
(163,858,o),
(128,858,cs),
(93,858,o),
(66,833,o),
(66,796,cs),
(66,760,o),
(93,735,o),
(128,735,cs)
);
}
);
};
layerId = "0EB46722-B91C-41F5-AE00-C58F8D8E3AB4";
shapes = (
{
ref = I;
},
{
pos = (-122,0);
ref = dotaccentcomb.case;
}
);
width = 255;
},
{
associatedMasterId = "0EB46722-B91C-41F5-AE00-C58F8D8E3AB4";
layerId = "89946EFA-3063-4597-8F39-C29AA3B0B012";
shapes = (
{
ref = I;
},
{
pos = (-122,0);
ref = dotaccentcomb.case;
}
);
width = 255;
}
);
unicode = 304;
},
{
color = 10;
glyphname = Idotbelow;
kernLeft = H;
kernRight = H;
lastChange = "2024-03-21 11:17:30 +0000";
layers = (
{
layerId = m001;
shapes = (
{
ref = I;
},
{
pos = (-111,0);
ref = dotbelow;
}
);
width = 279;
},
{
background = {
anchors = (
{
name = bottom;
pos = (128,0);
},
{
name = top;
pos = (128,690);
}
);
shapes = (
{
closed = 1;
nodes = (
(180,0,l),
(180,690,l),
(75,690,l),
(75,0,l)
);
},
{
closed = 1;
nodes = (
(163,-195,o),
(190,-170,o),
(190,-133,cs),
(190,-97,o),
(163,-72,o),
(128,-72,cs),
(93,-72,o),
(66,-97,o),
(66,-133,cs),
(66,-170,o),
(93,-195,o),
(128,-195,cs)
);
}
);
};
layerId = "0EB46722-B91C-41F5-AE00-C58F8D8E3AB4";
shapes = (
{
ref = I;
},
{
pos = (-122,0);
ref = dotbelow;
}
);
width = 255;
},
{
associatedMasterId = "0EB46722-B91C-41F5-AE00-C58F8D8E3AB4";
layerId = "89946EFA-3063-4597-8F39-C29AA3B0B012";
shapes = (
{
ref = I;
},
{
pos = (-122,0);
ref = dotbelow;
}
);
width = 255;
}
);
unicode = 7882;
},
{
color = 10;
glyphname = Igrave;
kernLeft = H;
kernRight = H;
lastChange = "2024-03-21 11:17:30 +0000";
layers = (
{
layerId = m001;
shapes = (
{
ref = I;
},
{
pos = (-111,0);
ref = gravecomb.case;
}
);
width = 279;
},
{
background = {
anchors = (
{
name = bottom;
pos = (128,0);
},
{
name = top;
pos = (128,690);
}
);
shapes = (
{
closed = 1;
nodes = (
(180,0,l),
(180,690,l),
(75,690,l),
(75,0,l)
);
},
{
closed = 1;
nodes = (
(189,735,l),
(89,845,l),
(-42,845,l),
(95,735,l)
);
}
);
};
layerId = "0EB46722-B91C-41F5-AE00-C58F8D8E3AB4";
shapes = (
{
ref = I;
},
{
pos = (-122,0);
ref = gravecomb.case;
}
);
width = 255;
},
{
associatedMasterId = "0EB46722-B91C-41F5-AE00-C58F8D8E3AB4";
layerId = "89946EFA-3063-4597-8F39-C29AA3B0B012";
shapes = (
{
ref = I;
},
{
pos = (-122,0);
ref = gravecomb.case;
}
);
width = 255;
}
);
unicode = 204;
},
{
color = 10;
glyphname = Imacron;
kernLeft = H;
kernRight = H;
lastChange = "2024-03-21 11:17:30 +0000";
layers = (
{
layerId = m001;
shapes = (
{
ref = I;
},
{
pos = (-111,0);
ref = macroncomb.case;
}
);
width = 279;
},
{
background = {
anchors = (
{
name = bottom;
pos = (128,0);
},
{
name = top;
pos = (128,690);
}
);
shapes = (
{
closed = 1;
nodes = (
(180,0,l),
(180,690,l),
(75,690,l),
(75,0,l)
);
},
{
closed = 1;
nodes = (
(286,753,l),
(286,837,l),
(-30,837,l),
(-30,753,l)
);
}
);
};
layerId = "0EB46722-B91C-41F5-AE00-C58F8D8E3AB4";
shapes = (
{
ref = I;
},
{
pos = (-122,0);
ref = macroncomb.case;
}
);
width = 255;
},
{
associatedMasterId = "0EB46722-B91C-41F5-AE00-C58F8D8E3AB4";
layerId = "89946EFA-3063-4597-8F39-C29AA3B0B012";
shapes = (
{
ref = I;
},
{
pos = (-122,0);
ref = macroncomb.case;
}
);
width = 255;
}
);
unicode = 298;
},
{
color = 10;
glyphname = Iogonek;
kernLeft = H;
kernRight = H;
lastChange = "2024-03-21 13:35:24 +0000";
layers = (
{
layerId = m001;
shapes = (
{
ref = I;
},
{
pos = (-122,0);
ref = ogonekcomb;
}
);
width = 279;
},
{
background = {
shapes = (
{
closed = 1;
nodes = (
(180,0,l),
(180,690,l),
(75,690,l),
(75,0,l)
);
},
{
closed = 1;
nodes = (
(117,-185,o),
(152,-176,o),
(180,-165,c),
(171,-84,l),
(148,-94,o),
(114,-106,o),
(94,-106,c),
(81,-106,o),
(73,-101,o),
(73,-89,c),
(73,-65,o),
(110,-34,o),
(180,0,c),
(75,0,l),
(12,-37,o),
(-11,-69,o),
(-11,-111,c),
(-11,-153,o),
(23,-185,o),
(88,-185,cs)
);
}
);
};
layerId = "0EB46722-B91C-41F5-AE00-C58F8D8E3AB4";
shapes = (
{
ref = I;
},
{
pos = (-124,0);
ref = ogonekcomb;
}
);
width = 255;
},
{
associatedMasterId = "0EB46722-B91C-41F5-AE00-C58F8D8E3AB4";
layerId = "89946EFA-3063-4597-8F39-C29AA3B0B012";
shapes = (
{
closed = 1;
nodes = (
(12,-37,o),
(-11,-69,o),
(-11,-111,c),
(-11,-153,o),
(23,-185,o),
(88,-185,cs),
(117,-185,o),
(152,-176,o),
(180,-165,c),
(171,-84,l),
(148,-94,o),
(114,-106,o),
(94,-106,c),
(81,-106,o),
(73,-101,o),
(73,-89,c),
(73,-65,o),
(110,-34,o),
(180,0,c),
(75,0,l)
);
},
{
closed = 1;
nodes = (
(180,0,l),
(180,690,l),
(75,690,l),
(75,0,l)
);
}
);
width = 255;
}
);
unicode = 302;
},
{
color = 10;
glyphname = Itilde;
kernLeft = H;
kernRight = H;
lastChange = "2024-03-21 11:17:30 +0000";
layers = (
{
layerId = m001;
shapes = (
{
ref = I;
},
{
pos = (-111,0);
ref = tildecomb.case;
}
);
width = 279;
},
{
background = {
anchors = (
{
name = bottom;
pos = (128,0);
},
{
name = top;
pos = (128,690);
}
);
shapes = (
{
closed = 1;
nodes = (
(180,0,l),
(180,690,l),
(75,690,l),
(75,0,l)
);
},
{
closed = 1;
nodes = (
(36,735,l),
(37,757,o),
(49,773,o),
(70,773,c),
(101,773,o),
(131,735,o),
(188,735,c),
(245,735,o),
(281,777,o),
(288,845,c),
(220,845,l),
(219,823,o),
(207,807,o),
(186,807,c),
(156,807,o),
(125,845,o),
(68,845,c),
(11,845,o),
(-25,803,o),
(-32,735,c)
);
}
);
};
layerId = "0EB46722-B91C-41F5-AE00-C58F8D8E3AB4";
shapes = (
{
ref = I;
},
{
pos = (-122,0);
ref = tildecomb.case;
}
);
width = 255;
},
{
associatedMasterId = "0EB46722-B91C-41F5-AE00-C58F8D8E3AB4";
layerId = "89946EFA-3063-4597-8F39-C29AA3B0B012";
shapes = (
{
ref = I;
},
{
pos = (-122,0);
ref = tildecomb.case;
}
);
width = 255;
}
);
unicode = 296;
},
{
color = 6;
glyphname = J;
kernLeft = J;
kernRight = U;
lastChange = "2024-03-22 12:26:09 +0000";
layers = (
{
anchors = (
{
name = top;
pos = (457,690);
}
);
layerId = m001;
shapes = (
{
closed = 1;
nodes = (
(437,-14,o),
(535,91,o),
(535,253,c),
(535,690,l),
(380,690,l),
(380,261,l),
(380,180,o),
(341,132,o),
(270,132,c),
(210,132,o),
(169,169,o),
(162,240,c),
(12,202,l),
(35,66,o),
(130,-14,o),
(269,-14,c)
);
}
);
width = 590;
},
{
anchors = (
{
name = top;
pos = (436,690);
}
);
background = {
anchors = (
{
name = top;
pos = (436,690);
}
);
shapes = (
{
closed = 1;
nodes = (
(396.975,-10,o),
(490,86,o),
(490,237,c),
(490,690,l),
(385,690,l),
(385,244,l),
(385,138,o),
(333.957,87,o),
(256,87,c),
(180.704,87,o),
(137.014,136.375,o),
(124,230,c),
(21,209,l),
(41.143,67,o),
(128.429,-10,o),
(256,-10,c)
);
}
);
};
layerId = "0EB46722-B91C-41F5-AE00-C58F8D8E3AB4";
shapes = (
{
closed = 1;
nodes = (
(397,-10,o),
(490,86,o),
(490,237,c),
(490,690,l),
(385,690,l),
(385,244,l),
(385,138,o),
(334,87,o),
(256,87,c),
(181,87,o),
(137,136,o),
(124,230,c),
(21,209,l),
(41,67,o),
(128,-10,o),
(256,-10,c)
);
}
);
width = 560;
},
{
anchors = (
{
name = top;
pos = (436,690);
}
);
associatedMasterId = "0EB46722-B91C-41F5-AE00-C58F8D8E3AB4";
layerId = "89946EFA-3063-4597-8F39-C29AA3B0B012";
shapes = (
{
closed = 1;
nodes = (
(41.143,67,o),
(128.429,-10,o),
(256,-10,c),
(396.975,-10,o),
(490,86,o),
(490,237,c),
(490,690,l),
(385,690,l),
(385,244,l),
(385,138,o),
(333.957,87,o),
(256,87,c),
(180.704,87,o),
(137.014,136.375,o),
(124,230,c),
(21,209,l)
);
}
);
width = 560;
}
);
unicode = 74;
},
{
color = 10;
glyphname = Jcircumflex;
kernLeft = J;
kernRight = U;
lastChange = "2024-03-21 11:17:30 +0000";
layers = (
{
layerId = m001;
shapes = (
{
ref = J;
},
{
pos = (207,0);
ref = circumflexcomb.case;
}
);
width = 590;
},
{
background = {
anchors = (
{
name = top;
pos = (436,690);
}
);
shapes = (
{
closed = 1;
nodes = (
(396.975,-10,o),
(490,86,o),
(490,237,c),
(490,690,l),
(385,690,l),
(385,244,l),
(385,138,o),
(333.957,87,o),
(256,87,c),
(180.704,87,o),
(137.014,136.375,o),
(124,230,c),
(21,209,l),
(41.143,67,o),
(128.429,-10,o),
(256,-10,c)
);
},
{
closed = 1;
nodes = (
(619,735,l),
(505,845,l),
(371,845,l),
(520,735,l)
);
},
{
closed = 1;
nodes = (
(352,735,l),
(501,845,l),
(367,845,l),
(253,735,l)
);
}
);
};
layerId = "0EB46722-B91C-41F5-AE00-C58F8D8E3AB4";
shapes = (
{
ref = J;
},
{
pos = (186,0);
ref = circumflexcomb.case;
}
);
width = 560;
},
{
associatedMasterId = "0EB46722-B91C-41F5-AE00-C58F8D8E3AB4";
layerId = "89946EFA-3063-4597-8F39-C29AA3B0B012";
shapes = (
{
ref = J;
},
{
pos = (186,0);
ref = circumflexcomb.case;
}
);
width = 560;
}
);
unicode = 308;
},
{
color = 6;
glyphname = K;
kernLeft = H;
kernRight = X;
lastChange = "2024-03-21 11:17:29 +0000";
layers = (
{
anchors = (
{
name = bottom;
pos = (331,0);
},
{
name = top;
pos = (331,690);
}
);
layerId = m001;
shapes = (
{
closed = 1;
nodes = (
(639,690,l),
(456,690,l),
(178,357,l),
(178,153,l)
);
},
{
closed = 1;
nodes = (
(217,0,l),
(217,690,l),
(62,690,l),
(62,0,l)
);
},
{
closed = 1;
nodes = (
(657,0,l),
(367,421,l),
(269,301,l),
(470,0,l)
);
}
);
width = 657;
},
{
anchors = (
{
name = bottom;
pos = (337,0);
},
{
name = top;
pos = (337,690);
}
);
background = {
anchors = (
{
name = bottom;
pos = (337,0);
},
{
name = top;
pos = (337,690);
}
);
shapes = (
{
closed = 1;
nodes = (
(609,690,l),
(485,690,l),
(153,309,l),
(153,173,l)
);
},
{
closed = 1;
nodes = (
(180,0,l),
(180,690,l),
(75,690,l),
(75,0,l)
);
},
{
closed = 1;
nodes = (
(628,0,l),
(343,403,l),
(275,329,l),
(501,0,l)
);
}
);
};
layerId = "0EB46722-B91C-41F5-AE00-C58F8D8E3AB4";
shapes = (
{
closed = 1;
nodes = (
(609,690,l),
(485,690,l),
(153,309,l),
(153,173,l)
);
},
{
closed = 1;
nodes = (
(180,0,l),
(180,690,l),
(75,690,l),
(75,0,l)
);
},
{
closed = 1;
nodes = (
(628,0,l),
(343,403,l),
(275,329,l),
(501,0,l)
);
}
);
width = 641;
},
{
anchors = (
{
name = bottom;
pos = (337,0);
},
{
name = top;
pos = (337,690);
}
);
associatedMasterId = "0EB46722-B91C-41F5-AE00-C58F8D8E3AB4";
layerId = "89946EFA-3063-4597-8F39-C29AA3B0B012";
shapes = (
{
closed = 1;
nodes = (
(275,329,l),
(501,0,l),
(628,0,l),
(343,403,l)
);
},
{
closed = 1;
nodes = (
(153,173,l),
(609,690,l),
(485,690,l),
(153,309,l)
);
},
{
closed = 1;
nodes = (
(180,0,l),
(180,690,l),
(75,690,l),
(75,0,l)
);
}
);
width = 641;
}
);
unicode = 75;
},
{
color = 10;
glyphname = Kcommaaccent;
kernLeft = H;
kernRight = X;
lastChange = "2024-03-21 11:17:30 +0000";
layers = (
{
layerId = m001;
shapes = (
{
ref = K;
},
{
pos = (187,0);
ref = commaaccentcomb;
}
);
width = 657;
},
{
background = {
anchors = (
{
name = bottom;
pos = (337,0);
},
{
name = top;
pos = (337,690);
}
);
shapes = (
{
closed = 1;
nodes = (
(609,690,l),
(485,690,l),
(153,309,l),
(153,173,l)
);
},
{
closed = 1;
nodes = (
(180,0,l),
(180,690,l),
(75,690,l),
(75,0,l)
);
},
{
closed = 1;
nodes = (
(628,0,l),
(343,403,l),
(275,329,l),
(501,0,l)
);
},
{
closed = 1;
nodes = (
(353,-275,l),
(394,-72,l),
(290,-72,l),
(290,-275,l)
);
}
);
};
layerId = "0EB46722-B91C-41F5-AE00-C58F8D8E3AB4";
shapes = (
{
ref = K;
},
{
pos = (196,0);
ref = commaaccentcomb;
}
);
width = 641;
}
);
unicode = 310;
},
{
color = 6;
glyphname = L;
kernLeft = H;
kernRight = L;
lastChange = "2024-03-21 11:17:29 +0000";
layers = (
{
anchors = (
{
name = bottom;
pos = (282,0);
},
{
name = top;
pos = (139,690);
}
);
layerId = m001;
shapes = (
{
closed = 1;
nodes = (
(217,0,l),
(217,690,l),
(62,690,l),
(62,0,l)
);
},
{
closed = 1;
nodes = (
(515,0,l),
(515,145,l),
(130,145,l),
(130,0,l)
);
}
);
width = 545;
},
{
anchors = (
{
name = bottom;
pos = (302,0);
},
{
name = top;
pos = (128,690);
}
);
background = {
anchors = (
{
name = bottom;
pos = (302,0);
},
{
name = top;
pos = (128,690);
}
);
shapes = (
{
closed = 1;
nodes = (
(180,0,l),
(180,690,l),
(75,690,l),
(75,0,l)
);
},
{
closed = 1;
nodes = (
(510,0,l),
(510,96,l),
(125,96,l),
(125,0,l)
);
}
);
};
layerId = "0EB46722-B91C-41F5-AE00-C58F8D8E3AB4";
shapes = (
{
closed = 1;
nodes = (
(180,0,l),
(180,690,l),
(75,690,l),
(75,0,l)
);
},
{
closed = 1;
nodes = (
(510,0,l),
(510,96,l),
(125,96,l),
(125,0,l)
);
}
);
width = 539;
},
{
anchors = (
{
name = bottom;
pos = (302,0);
},
{
name = top;
pos = (128,690);
}
);
associatedMasterId = "0EB46722-B91C-41F5-AE00-C58F8D8E3AB4";
layerId = "89946EFA-3063-4597-8F39-C29AA3B0B012";
shapes = (
{
closed = 1;
nodes = (
(180,0,l),
(180,690,l),
(75,690,l),
(75,0,l)
);
},
{
closed = 1;
nodes = (
(125,0,l),
(510,0,l),
(510,96,l),
(125,96,l)
);
}
);
width = 539;
}
);
unicode = 76;
},
{
color = 10;
glyphname = Lacute;
kernLeft = H;
kernRight = L;
lastChange = "2024-03-21 11:17:30 +0000";
layers = (
{
layerId = m001;
shapes = (
{
ref = L;
},
{
pos = (-111,0);
ref = acutecomb.case;
}
);
width = 545;
},
{
background = {
anchors = (
{
name = bottom;
pos = (302,0);
},
{
name = top;
pos = (128,690);
}
);
shapes = (
{
closed = 1;
nodes = (
(180,0,l),
(180,690,l),
(75,690,l),
(75,0,l)
);
},
{
closed = 1;
nodes = (
(510,0,l),
(510,96,l),
(125,96,l),
(125,0,l)
);
},
{
closed = 1;
nodes = (
(161,735,l),
(298,845,l),
(167,845,l),
(67,735,l)
);
}
);
};
layerId = "0EB46722-B91C-41F5-AE00-C58F8D8E3AB4";
shapes = (
{
ref = L;
},
{
pos = (-122,0);
ref = acutecomb.case;
}
);
width = 539;
},
{
associatedMasterId = "0EB46722-B91C-41F5-AE00-C58F8D8E3AB4";
layerId = "89946EFA-3063-4597-8F39-C29AA3B0B012";
shapes = (
{
ref = L;
},
{
pos = (-122,0);
ref = acutecomb.case;
}
);
width = 539;
}
);
unicode = 313;
},
{
color = 10;
glyphname = Lcaron;
kernLeft = H;
kernRight = L;
lastChange = "2024-03-21 13:43:29 +0000";
layers = (
{
layerId = m001;
shapes = (
{
ref = L;
},
{
pos = (263,-26);
ref = caroncomb.alt;
}
);
width = 545;
},
{
background = {
shapes = (
{
closed = 1;
nodes = (
(180,0,l),
(180,690,l),
(75,690,l),
(75,0,l)
);
},
{
closed = 1;
nodes = (
(510,0,l),
(510,96,l),
(125,96,l),
(125,0,l)
);
},
{
closed = 1;
nodes = (
(398,417,l),
(442,690,l),
(338,690,l),
(338,417,l)
);
}
);
};
layerId = "0EB46722-B91C-41F5-AE00-C58F8D8E3AB4";
shapes = (
{
ref = L;
},
{
pos = (251,-25);
ref = caroncomb.alt;
}
);
width = 539;
},
{
associatedMasterId = "0EB46722-B91C-41F5-AE00-C58F8D8E3AB4";
layerId = "89946EFA-3063-4597-8F39-C29AA3B0B012";
shapes = (
{
closed = 1;
nodes = (
(338,417,l),
(398,417,l),
(442,690,l),
(338,690,l)
);
},
{
closed = 1;
nodes = (
(180,0,l),
(180,690,l),
(75,690,l),
(75,0,l)
);
},
{
closed = 1;
nodes = (
(125,0,l),
(510,0,l),
(510,96,l),
(125,96,l)
);
}
);
width = 540;
}
);
unicode = 317;
},
{
color = 10;
glyphname = Lcommaaccent;
kernLeft = H;
kernRight = L;
lastChange = "2024-03-21 11:17:30 +0000";
layers = (
{
layerId = m001;
shapes = (
{
ref = L;
},
{
pos = (138,0);
ref = commaaccentcomb;
}
);
width = 545;
},
{
background = {
anchors = (
{
name = bottom;
pos = (302,0);
},
{
name = top;
pos = (128,690);
}
);
shapes = (
{
closed = 1;
nodes = (
(180,0,l),
(180,690,l),
(75,690,l),
(75,0,l)
);
},
{
closed = 1;
nodes = (
(510,0,l),
(510,96,l),
(125,96,l),
(125,0,l)
);
},
{
closed = 1;
nodes = (
(318,-275,l),
(359,-72,l),
(255,-72,l),
(255,-275,l)
);
}
);
};
layerId = "0EB46722-B91C-41F5-AE00-C58F8D8E3AB4";
shapes = (
{
ref = L;
},
{
pos = (161,0);
ref = commaaccentcomb;
}
);
width = 539;
}
);
unicode = 315;
},
{
color = 10;
glyphname = Ldot;
kernLeft = H;
lastChange = "2024-03-21 13:43:13 +0000";
layers = (
{
layerId = m001;
shapes = (
{
ref = L;
},
{
pos = (254,0);
ref = periodcentered.loclCAT.case;
}
);
width = 545;
},
{
background = {
shapes = (
{
closed = 1;
nodes = (
(180,0,l),
(180,690,l),
(75,690,l),
(75,0,l)
);
},
{
closed = 1;
nodes = (
(510,0,l),
(510,96,l),
(125,96,l),
(125,0,l)
);
},
{
closed = 1;
nodes = (
(431,271,o),
(458,299,o),
(458,337,cs),
(458,376,o),
(431,404,o),
(393,404,cs),
(355,404,o),
(328,376,o),
(328,337,cs),
(328,299,o),
(355,271,o),
(393,271,cs)
);
}
);
};
layerId = "0EB46722-B91C-41F5-AE00-C58F8D8E3AB4";
shapes = (
{
ref = L;
},
{
pos = (283,-10);
ref = periodcentered.loclCAT.case;
}
);
width = 539;
},
{
associatedMasterId = "0EB46722-B91C-41F5-AE00-C58F8D8E3AB4";
layerId = "89946EFA-3063-4597-8F39-C29AA3B0B012";
shapes = (
{
closed = 1;
nodes = (
(180,0,l),
(180,690,l),
(75,690,l),
(75,0,l)
);
},
{
closed = 1;
nodes = (
(125,0,l),
(510,0,l),
(510,96,l),
(125,96,l)
);
},
{
closed = 1;
nodes = (
(431,271,o),
(458,299,o),
(458,337,cs),
(458,376,o),
(431,404,o),
(393,404,cs),
(355,404,o),
(328,376,o),
(328,337,cs),
(328,299,o),
(355,271,o),
(393,271,cs)
);
}
);
width = 538;
}
);
unicode = 319;
},
{
color = 6;
glyphname = Lslash;
kernLeft = H;
kernRight = L;
lastChange = "2024-03-21 11:17:29 +0000";
layers = (
{
layerId = m001;
shapes = (
{
closed = 1;
nodes = (
(410,383,l),
(410,517,l),
(10,314,l),
(10,180,l)
);
},
{
closed = 1;
nodes = (
(525,0,l),
(525,145,l),
(140,145,l),
(140,0,l)
);
},
{
closed = 1;
nodes = (
(227,0,l),
(227,690,l),
(72,690,l),
(72,0,l)
);
}
);
width = 555;
},
{
background = {
shapes = (
{
closed = 1;
nodes = (
(375,392,l),
(375,493,l),
(20,313,l),
(20,212,l)
);
},
{
closed = 1;
nodes = (
(525,0,l),
(525,96,l),
(140,96,l),
(140,0,l)
);
},
{
closed = 1;
nodes = (
(195,0,l),
(195,690,l),
(90,690,l),
(90,0,l)
);
}
);
};
layerId = "0EB46722-B91C-41F5-AE00-C58F8D8E3AB4";
shapes = (
{
closed = 1;
nodes = (
(375,392,l),
(375,493,l),
(20,313,l),
(20,212,l)
);
},
{
closed = 1;
nodes = (
(525,0,l),
(525,96,l),
(140,96,l),
(140,0,l)
);
},
{
closed = 1;
nodes = (
(195,0,l),
(195,690,l),
(90,690,l),
(90,0,l)
);
}
);
width = 553;
},
{
associatedMasterId = "0EB46722-B91C-41F5-AE00-C58F8D8E3AB4";
layerId = "89946EFA-3063-4597-8F39-C29AA3B0B012";
shapes = (
{
closed = 1;
nodes = (
(20,212,l),
(375,392,l),
(375,493,l),
(20,313,l)
);
},
{
closed = 1;
nodes = (
(195,0,l),
(195,690,l),
(90,690,l),
(90,0,l)
);
},
{
closed = 1;
nodes = (
(140,0,l),
(525,0,l),
(525,96,l),
(140,96,l)
);
}
);
width = 553;
}
);
unicode = 321;
},
{
color = 6;
glyphname = M;
kernLeft = H;
kernRight = H;
lastChange = "2024-03-21 11:17:29 +0000";
layers = (
{
layerId = m001;
shapes = (
{
closed = 1;
nodes = (
(476,0,l),
(333,690,l),
(179,690,l),
(334,0,l)
);
},
{
closed = 1;
nodes = (
(209,0,l),
(209,690,l),
(62,690,l),
(62,0,l)
);
},
{
closed = 1;
nodes = (
(555,0,l),
(707,690,l),
(559,690,l),
(418,0,l)
);
},
{
closed = 1;
nodes = (
(832,0,l),
(832,690,l),
(677,690,l),
(677,0,l)
);
}
);
width = 894;
},
{
background = {
shapes = (
{
closed = 1;
nodes = (
(471,0,l),
(241,690,l),
(139,690,l),
(368,0,l)
);
},
{
closed = 1;
nodes = (
(175,0,l),
(175,690,l),
(75,690,l),
(75,0,l)
);
},
{
closed = 1;
nodes = (
(501,0,l),
(714,690,l),
(615,690,l),
(408,0,l)
);
},
{
closed = 1;
nodes = (
(787,0,l),
(787,690,l),
(682,690,l),
(682,0,l)
);
}
);
};
layerId = "0EB46722-B91C-41F5-AE00-C58F8D8E3AB4";
shapes = (
{
closed = 1;
nodes = (
(471,0,l),
(241,690,l),
(139,690,l),
(368,0,l)
);
},
{
closed = 1;
nodes = (
(175,0,l),
(175,690,l),
(75,690,l),
(75,0,l)
);
},
{
closed = 1;
nodes = (
(501,0,l),
(714,690,l),
(615,690,l),
(408,0,l)
);
},
{
closed = 1;
nodes = (
(787,0,l),
(787,690,l),
(682,690,l),
(682,0,l)
);
}
);
width = 862;
},
{
associatedMasterId = "0EB46722-B91C-41F5-AE00-C58F8D8E3AB4";
layerId = "89946EFA-3063-4597-8F39-C29AA3B0B012";
shapes = (
{
closed = 1;
nodes = (
(139,690,l),
(368,0,l),
(471,0,l),
(241,690,l)
);
},
{
closed = 1;
nodes = (
(175,0,l),
(175,690,l),
(75,690,l),
(75,0,l)
);
},
{
closed = 1;
nodes = (
(408,0,l),
(501,0,l),
(714,690,l),
(615,690,l)
);
},
{
closed = 1;
nodes = (
(787,0,l),
(787,690,l),
(682,690,l),
(682,0,l)
);
}
);
width = 862;
}
);
unicode = 77;
},
{
color = 6;
glyphname = N;
kernLeft = H;
kernRight = H;
lastChange = "2024-03-21 11:17:29 +0000";
layers = (
{
anchors = (
{
name = bottom;
pos = (358,0);
},
{
name = top;
pos = (358,690);
}
);
layerId = m001;
shapes = (
{
closed = 1;
nodes = (
(559,0,l),
(319,690,l),
(161,690,l),
(401,0,l)
);
},
{
closed = 1;
nodes = (
(209,0,l),
(209,690,l),
(62,690,l),
(62,0,l)
);
},
{
closed = 1;
nodes = (
(658,0,l),
(658,690,l),
(511,690,l),
(511,0,l)
);
}
);
width = 720;
},
{
anchors = (
{
name = bottom;
pos = (355,0);
},
{
name = top;
pos = (355,690);
}
);
background = {
anchors = (
{
name = bottom;
pos = (355,0);
},
{
name = top;
pos = (355,690);
}
);
shapes = (
{
closed = 1;
nodes = (
(599,0,l),
(217,690,l),
(106,690,l),
(488,0,l)
);
},
{
closed = 1;
nodes = (
(175,0,l),
(175,690,l),
(75,690,l),
(75,0,l)
);
},
{
closed = 1;
nodes = (
(630,0,l),
(630,690,l),
(530,690,l),
(530,0,l)
);
}
);
};
layerId = "0EB46722-B91C-41F5-AE00-C58F8D8E3AB4";
shapes = (
{
closed = 1;
nodes = (
(599,0,l),
(217,690,l),
(106,690,l),
(488,0,l)
);
},
{
closed = 1;
nodes = (
(175,0,l),
(175,690,l),
(75,690,l),
(75,0,l)
);
},
{
closed = 1;
nodes = (
(630,0,l),
(630,690,l),
(530,690,l),
(530,0,l)
);
}
);
width = 705;
},
{
anchors = (
{
name = bottom;
pos = (355,0);
},
{
name = top;
pos = (355,690);
}
);
associatedMasterId = "0EB46722-B91C-41F5-AE00-C58F8D8E3AB4";
layerId = "89946EFA-3063-4597-8F39-C29AA3B0B012";
shapes = (
{
closed = 1;
nodes = (
(106,690,l),
(488,0,l),
(599,0,l),
(217,690,l)
);
},
{
closed = 1;
nodes = (
(175,0,l),
(175,690,l),
(75,690,l),
(75,0,l)
);
},
{
closed = 1;
nodes = (
(630,0,l),
(630,690,l),
(530,690,l),
(530,0,l)
);
}
);
width = 705;
}
);
unicode = 78;
},
{
color = 10;
glyphname = Nacute;
kernLeft = H;
kernRight = H;
lastChange = "2024-03-21 11:17:30 +0000";
layers = (
{
layerId = m001;
shapes = (
{
ref = N;
},
{
pos = (108,0);
ref = acutecomb.case;
}
);
width = 720;
},
{
background = {
anchors = (
{
name = bottom;
pos = (355,0);
},
{
name = top;
pos = (355,690);
}
);
shapes = (
{
closed = 1;
nodes = (
(599,0,l),
(217,690,l),
(106,690,l),
(488,0,l)
);
},
{
closed = 1;
nodes = (
(175,0,l),
(175,690,l),
(75,690,l),
(75,0,l)
);
},
{
closed = 1;
nodes = (
(630,0,l),
(630,690,l),
(530,690,l),
(530,0,l)
);
},
{
closed = 1;
nodes = (
(388,735,l),
(525,845,l),
(394,845,l),
(294,735,l)
);
}
);
};
layerId = "0EB46722-B91C-41F5-AE00-C58F8D8E3AB4";
shapes = (
{
ref = N;
},
{
pos = (105,0);
ref = acutecomb.case;
}
);
width = 705;
},
{
associatedMasterId = "0EB46722-B91C-41F5-AE00-C58F8D8E3AB4";
layerId = "89946EFA-3063-4597-8F39-C29AA3B0B012";
shapes = (
{
ref = N;
},
{
pos = (105,0);
ref = acutecomb.case;
}
);
width = 705;
}
);
unicode = 323;
},
{
color = 10;
glyphname = Ncaron;
kernLeft = H;
kernRight = H;
lastChange = "2024-03-21 11:17:30 +0000";
layers = (
{
layerId = m001;
shapes = (
{
ref = N;
},
{
pos = (108,0);
ref = caroncomb.case;
}
);
width = 720;
},
{
background = {
anchors = (
{
name = bottom;
pos = (355,0);
},
{
name = top;
pos = (355,690);
}
);
shapes = (
{
closed = 1;
nodes = (
(599,0,l),
(217,690,l),
(106,690,l),
(488,0,l)
);
},
{
closed = 1;
nodes = (
(175,0,l),
(175,690,l),
(75,690,l),
(75,0,l)
);
},
{
closed = 1;
nodes = (
(630,0,l),
(630,690,l),
(530,690,l),
(530,0,l)
);
},
{
closed = 1;
nodes = (
(424,735,l),
(538,845,l),
(439,845,l),
(290,735,l)
);
},
{
closed = 1;
nodes = (
(420,735,l),
(271,845,l),
(172,845,l),
(286,735,l)
);
}
);
};
layerId = "0EB46722-B91C-41F5-AE00-C58F8D8E3AB4";
shapes = (
{
ref = N;
},
{
pos = (105,0);
ref = caroncomb.case;
}
);
width = 705;
},
{
associatedMasterId = "0EB46722-B91C-41F5-AE00-C58F8D8E3AB4";
layerId = "89946EFA-3063-4597-8F39-C29AA3B0B012";
shapes = (
{
ref = N;
},
{
pos = (105,0);
ref = caroncomb.case;
}
);
width = 705;
}
);
unicode = 327;
},
{
color = 10;
glyphname = Ncommaaccent;
kernLeft = H;
kernRight = H;
lastChange = "2024-03-21 11:17:30 +0000";
layers = (
{
layerId = m001;
shapes = (
{
ref = N;
},
{
pos = (214,0);
ref = commaaccentcomb;
}
);
width = 720;
},
{
background = {
anchors = (
{
name = bottom;
pos = (355,0);
},
{
name = top;
pos = (355,690);
}
);
shapes = (
{
closed = 1;
nodes = (
(599,0,l),
(217,690,l),
(106,690,l),
(488,0,l)
);
},
{
closed = 1;
nodes = (
(175,0,l),
(175,690,l),
(75,690,l),
(75,0,l)
);
},
{
closed = 1;
nodes = (
(630,0,l),
(630,690,l),
(530,690,l),
(530,0,l)
);
},
{
closed = 1;
nodes = (
(371,-275,l),
(412,-72,l),
(308,-72,l),
(308,-275,l)
);
}
);
};
layerId = "0EB46722-B91C-41F5-AE00-C58F8D8E3AB4";
shapes = (
{
ref = N;
},
{
pos = (214,0);
ref = commaaccentcomb;
}
);
width = 705;
}
);
unicode = 325;
},
{
color = 6;
glyphname = Nhookleft;
kernLeft = H;
kernRight = H;
lastChange = "2024-03-21 11:17:29 +0000";
layers = (
{
background = {
shapes = (
{
closed = 1;
nodes = (
(170,690,l),
(70,690,l),
(70,-7,l),
(70,-70,o),
(45,-94,o),
(-12,-94,c),
(-29,-94,o),
(-50,-90,o),
(-68,-83,c),
(-68,-175,l),
(-45,-182,o),
(-22,-185,o),
(6,-185,c),
(112,-185,o),
(170,-123,o),
(170,-10,c)
);
},
{
closed = 1;
nodes = (
(101,690,l),
(483,0,l),
(594,0,l),
(212,690,l)
);
},
{
closed = 1;
nodes = (
(625,0,l),
(625,690,l),
(525,690,l),
(525,0,l)
);
}
);
};
layerId = m001;
shapes = (
{
closed = 1;
nodes = (
(559,0,l),
(319,690,l),
(161,690,l),
(401,0,l)
);
},
{
closed = 1;
nodes = (
(140,-190,o),
(209,-125,o),
(209,4,c),
(209,690,l),
(62,690,l),
(62,9,l),
(62,-33,o),
(38,-54,o),
(-8,-54,c),
(-31,-54,o),
(-51,-49,o),
(-71,-42,c),
(-71,-175,l),
(-43,-184,o),
(-15,-190,o),
(23,-190,c)
);
},
{
closed = 1;
nodes = (
(658,0,l),
(658,690,l),
(511,690,l),
(511,0,l)
);
}
);
width = 720;
},
{
background = {
shapes = (
{
closed = 1;
nodes = (
(599,0,l),
(217,690,l),
(106,690,l),
(488,0,l)
);
},
{
closed = 1;
nodes = (
(117,-185,o),
(175,-123,o),
(175,-10,c),
(175,690,l),
(75,690,l),
(75,-7,l),
(75,-70,o),
(50,-94,o),
(-7,-94,c),
(-24,-94,o),
(-45,-90,o),
(-63,-83,c),
(-63,-175,l),
(-40,-182,o),
(-17,-185,o),
(11,-185,c)
);
},
{
closed = 1;
nodes = (
(630,0,l),
(630,690,l),
(530,690,l),
(530,0,l)
);
}
);
};
layerId = "0EB46722-B91C-41F5-AE00-C58F8D8E3AB4";
shapes = (
{
closed = 1;
nodes = (
(599,0,l),
(217,690,l),
(106,690,l),
(488,0,l)
);
},
{
closed = 1;
nodes = (
(117,-185,o),
(175,-123,o),
(175,-10,c),
(175,690,l),
(75,690,l),
(75,-7,l),
(75,-70,o),
(50,-94,o),
(-7,-94,c),
(-24,-94,o),
(-45,-90,o),
(-63,-83,c),
(-63,-175,l),
(-40,-182,o),
(-17,-185,o),
(11,-185,c)
);
},
{
closed = 1;
nodes = (
(630,0,l),
(630,690,l),
(530,690,l),
(530,0,l)
);
}
);
width = 705;
},
{
associatedMasterId = "0EB46722-B91C-41F5-AE00-C58F8D8E3AB4";
layerId = "89946EFA-3063-4597-8F39-C29AA3B0B012";
shapes = (
{
closed = 1;
nodes = (
(175,690,l),
(75,690,l),
(75,-7,l),
(75,-70,o),
(50,-94,o),
(-7,-94,c),
(-24,-94,o),
(-45,-90,o),
(-63,-83,c),
(-63,-175,l),
(-40,-182,o),
(-17,-185,o),
(11,-185,c),
(117,-185,o),
(175,-123,o),
(175,-10,c)
);
},
{
closed = 1;
nodes = (
(106,690,l),
(488,0,l),
(599,0,l),
(217,690,l)
);
},
{
closed = 1;
nodes = (
(630,0,l),
(630,690,l),
(530,690,l),
(530,0,l)
);
}
);
width = 705;
}
);
unicode = 413;
},
{
color = 10;
glyphname = Ntilde;
kernLeft = H;
kernRight = H;
lastChange = "2024-03-21 11:17:30 +0000";
layers = (
{
layerId = m001;
shapes = (
{
ref = N;
},
{
pos = (108,0);
ref = tildecomb.case;
}
);
width = 720;
},
{
background = {
anchors = (
{
name = bottom;
pos = (355,0);
},
{
name = top;
pos = (355,690);
}
);
shapes = (
{
closed = 1;
nodes = (
(599,0,l),
(217,690,l),
(106,690,l),
(488,0,l)
);
},
{
closed = 1;
nodes = (
(175,0,l),
(175,690,l),
(75,690,l),
(75,0,l)
);
},
{
closed = 1;
nodes = (
(630,0,l),
(630,690,l),
(530,690,l),
(530,0,l)
);
},
{
closed = 1;
nodes = (
(263,735,l),
(264,757,o),
(276,773,o),
(297,773,c),
(328,773,o),
(358,735,o),
(415,735,c),
(472,735,o),
(508,777,o),
(515,845,c),
(447,845,l),
(446,823,o),
(434,807,o),
(413,807,c),
(383,807,o),
(352,845,o),
(295,845,c),
(238,845,o),
(202,803,o),
(195,735,c)
);
}
);
};
layerId = "0EB46722-B91C-41F5-AE00-C58F8D8E3AB4";
shapes = (
{
ref = N;
},
{
pos = (105,0);
ref = tildecomb.case;
}
);
width = 705;
},
{
associatedMasterId = "0EB46722-B91C-41F5-AE00-C58F8D8E3AB4";
layerId = "89946EFA-3063-4597-8F39-C29AA3B0B012";
shapes = (
{
ref = N;
},
{
pos = (105,0);
ref = tildecomb.case;
}
);
width = 705;
}
);
unicode = 209;
},
{
color = 6;
glyphname = Eng;
kernLeft = H;
kernRight = H;
lastChange = "2024-03-21 11:17:29 +0000";
layers = (
{
background = {
shapes = (
{
closed = 1;
nodes = (
(525,-70,o),
(500,-94,o),
(443,-94,c),
(426,-94,o),
(405,-90,o),
(387,-83,c),
(387,-175,l),
(410,-182,o),
(433,-185,o),
(461,-185,c),
(567,-185,o),
(625,-123,o),
(625,-10,c),
(625,690,l),
(525,690,l),
(525,-7,l)
);
},
{
closed = 1;
nodes = (
(101,690,l),
(531,-15,l),
(594,60,l),
(212,690,l)
);
},
{
closed = 1;
nodes = (
(170,0,l),
(170,690,l),
(70,690,l),
(70,0,l)
);
}
);
};
layerId = m001;
shapes = (
{
closed = 1;
nodes = (
(559,0,l),
(319,690,l),
(161,690,l),
(401,0,l)
);
},
{
closed = 1;
nodes = (
(209,0,l),
(209,690,l),
(62,690,l),
(62,0,l)
);
},
{
closed = 1;
nodes = (
(589,-190,o),
(658,-125,o),
(658,4,c),
(658,690,l),
(511,690,l),
(511,9,l),
(511,-33,o),
(487,-54,o),
(441,-54,c),
(418,-54,o),
(398,-49,o),
(378,-42,c),
(378,-175,l),
(406,-184,o),
(434,-190,o),
(472,-190,c)
);
}
);
width = 720;
},
{
background = {
shapes = (
{
closed = 1;
nodes = (
(599,0,l),
(217,690,l),
(106,690,l),
(488,0,l)
);
},
{
closed = 1;
nodes = (
(175,0,l),
(175,690,l),
(75,690,l),
(75,0,l)
);
},
{
closed = 1;
nodes = (
(572,-185,o),
(630,-123,o),
(630,-10,c),
(630,690,l),
(530,690,l),
(530,-7,l),
(530,-70,o),
(505,-94,o),
(448,-94,c),
(431,-94,o),
(410,-90,o),
(392,-83,c),
(392,-175,l),
(415,-182,o),
(438,-185,o),
(466,-185,c)
);
}
);
};
layerId = "0EB46722-B91C-41F5-AE00-C58F8D8E3AB4";
shapes = (
{
closed = 1;
nodes = (
(599,0,l),
(217,690,l),
(106,690,l),
(488,0,l)
);
},
{
closed = 1;
nodes = (
(175,0,l),
(175,690,l),
(75,690,l),
(75,0,l)
);
},
{
closed = 1;
nodes = (
(572,-185,o),
(630,-123,o),
(630,-10,c),
(630,690,l),
(530,690,l),
(530,-7,l),
(530,-70,o),
(505,-94,o),
(448,-94,c),
(431,-94,o),
(410,-90,o),
(392,-83,c),
(392,-175,l),
(415,-182,o),
(438,-185,o),
(466,-185,c)
);
}
);
width = 705;
},
{
associatedMasterId = "0EB46722-B91C-41F5-AE00-C58F8D8E3AB4";
background = {
shapes = (
{
closed = 1;
nodes = (
(525,-70,o),
(500,-94,o),
(443,-94,c),
(426,-94,o),
(405,-90,o),
(387,-83,c),
(387,-175,l),
(410,-182,o),
(433,-185,o),
(461,-185,c),
(567,-185,o),
(625,-123,o),
(625,-10,c),
(625,690,l),
(525,690,l),
(525,-7,l)
);
},
{
closed = 1;
nodes = (
(101,690,l),
(531,-15,l),
(594,60,l),
(212,690,l)
);
},
{
closed = 1;
nodes = (
(170,0,l),
(170,690,l),
(70,690,l),
(70,0,l)
);
}
);
};
layerId = "89946EFA-3063-4597-8F39-C29AA3B0B012";
shapes = (
{
closed = 1;
nodes = (
(530,-70,o),
(505,-94,o),
(448,-94,c),
(431,-94,o),
(410,-90,o),
(392,-83,c),
(392,-175,l),
(415,-182,o),
(438,-185,o),
(466,-185,c),
(572,-185,o),
(630,-123,o),
(630,-10,c),
(630,690,l),
(530,690,l),
(530,-7,l)
);
},
{
closed = 1;
nodes = (
(106,690,l),
(488,0,l),
(599,0,l),
(217,690,l)
);
},
{
closed = 1;
nodes = (
(175,0,l),
(175,690,l),
(75,690,l),
(75,0,l)
);
}
);
width = 705;
}
);
unicode = 330;
},
{
color = 6;
glyphname = O;
kernLeft = O;
kernRight = O;
lastChange = "2024-03-21 13:35:44 +0000";
layers = (
{
anchors = (
{
name = bottom;
pos = (362,0);
},
{
name = ogonek;
pos = (465,0);
},
{
name = top;
pos = (363,690);
}
);
layerId = m001;
shapes = (
{
closed = 1;
nodes = (
(557,-14,o),
(690,119,o),
(690,345,cs),
(690,571,o),
(557,704,o),
(363,704,c),
(169,704,o),
(36,571,o),
(36,345,cs),
(36,119,o),
(169,-14,o),
(363,-14,c)
);
},
{
closed = 1;
nodes = (
(260,132,o),
(194,204,o),
(194,345,cs),
(194,486,o),
(260,558,o),
(363,558,c),
(466,558,o),
(532,486,o),
(532,345,cs),
(532,204,o),
(466,132,o),
(363,132,c)
);
}
);
width = 726;
},
{
anchors = (
{
name = bottom;
pos = (348,0);
},
{
name = ogonek;
pos = (429,0);
},
{
name = top;
pos = (348,690);
}
);
background = {
anchors = (
{
name = bottom;
pos = (348,0);
},
{
name = top;
pos = (348,690);
}
);
shapes = (
{
closed = 1;
nodes = (
(530,-10,o),
(653,125,o),
(653,345,cs),
(653,566,o),
(530,700,o),
(348,700,cs),
(167,700,o),
(44,566,o),
(44,345,cs),
(44,125,o),
(167,-10,o),
(348,-10,cs)
);
},
{
closed = 1;
nodes = (
(228,87,o),
(153,179,o),
(153,345,cs),
(153,512,o),
(228,603,o),
(348,603,cs),
(469,603,o),
(544,512,o),
(544,345,cs),
(544,179,o),
(469,87,o),
(348,87,cs)
);
}
);
};
layerId = "0EB46722-B91C-41F5-AE00-C58F8D8E3AB4";
shapes = (
{
closed = 1;
nodes = (
(530,-10,o),
(653,125,o),
(653,345,cs),
(653,566,o),
(530,700,o),
(348,700,cs),
(167,700,o),
(44,566,o),
(44,345,cs),
(44,125,o),
(167,-10,o),
(348,-10,cs)
);
},
{
closed = 1;
nodes = (
(228,87,o),
(153,179,o),
(153,345,cs),
(153,512,o),
(228,603,o),
(348,603,cs),
(469,603,o),
(544,512,o),
(544,345,cs),
(544,179,o),
(469,87,o),
(348,87,cs)
);
}
);
width = 697;
},
{
anchors = (
{
name = bottom;
pos = (348,0);
},
{
name = top;
pos = (348,690);
}
);
associatedMasterId = "0EB46722-B91C-41F5-AE00-C58F8D8E3AB4";
background = {
shapes = (
{
closed = 1;
nodes = (
(160,0,l),
(160,530,l),
(60,530,l),
(60,0,l)
);
},
{
closed = 1;
nodes = (
(400,0,l),
(500,0,l),
(500,332,l),
(500,460,o),
(425,540,o),
(318,540,c),
(209,540,o),
(127,451,o),
(127,309,c),
(160,309,l),
(160,406,o),
(213,457,o),
(280,457,c),
(347,457,o),
(400,406,o),
(400,309,c)
);
}
);
};
layerId = "89946EFA-3063-4597-8F39-C29AA3B0B012";
shapes = (
{
closed = 1;
nodes = (
(530,-10,o),
(653,125,o),
(653,345,cs),
(653,566,o),
(530,700,o),
(348,700,cs),
(167,700,o),
(44,566,o),
(44,345,cs),
(44,125,o),
(167,-10,o),
(348,-10,cs)
);
},
{
closed = 1;
nodes = (
(228,87,o),
(153,179,o),
(153,345,cs),
(153,512,o),
(228,603,o),
(348,603,cs),
(469,603,o),
(544,512,o),
(544,345,cs),
(544,179,o),
(469,87,o),
(348,87,cs)
);
}
);
width = 697;
}
);
unicode = 79;
},
{
color = 10;
glyphname = Oacute;
kernLeft = O;
kernRight = O;
lastChange = "2024-03-21 11:17:30 +0000";
layers = (
{
layerId = m001;
shapes = (
{
ref = O;
},
{
pos = (113,0);
ref = acutecomb.case;
}
);
width = 726;
},
{
background = {
anchors = (
{
name = bottom;
pos = (348,0);
},
{
name = top;
pos = (348,690);
}
);
shapes = (
{
closed = 1;
nodes = (
(530,-10,o),
(653,125,o),
(653,345,cs),
(653,566,o),
(530,700,o),
(348,700,cs),
(167,700,o),
(44,566,o),
(44,345,cs),
(44,125,o),
(167,-10,o),
(348,-10,cs)
);
},
{
closed = 1;
nodes = (
(228,87,o),
(153,179,o),
(153,345,cs),
(153,512,o),
(228,603,o),
(348,603,cs),
(469,603,o),
(544,512,o),
(544,345,cs),
(544,179,o),
(469,87,o),
(348,87,cs)
);
},
{
closed = 1;
nodes = (
(381,735,l),
(518,845,l),
(387,845,l),
(287,735,l)
);
}
);
};
layerId = "0EB46722-B91C-41F5-AE00-C58F8D8E3AB4";
shapes = (
{
ref = O;
},
{
pos = (98,0);
ref = acutecomb.case;
}
);
width = 697;
},
{
associatedMasterId = "0EB46722-B91C-41F5-AE00-C58F8D8E3AB4";
layerId = "89946EFA-3063-4597-8F39-C29AA3B0B012";
shapes = (
{
ref = O;
},
{
pos = (98,0);
ref = acutecomb.case;
}
);
width = 697;
}
);
unicode = 211;
},
{
color = 10;
glyphname = Obreve;
kernLeft = O;
kernRight = O;
lastChange = "2024-03-21 11:17:30 +0000";
layers = (
{
layerId = m001;
shapes = (
{
ref = O;
},
{
pos = (113,0);
ref = brevecomb.case;
}
);
width = 726;
},
{
background = {
anchors = (
{
name = bottom;
pos = (348,0);
},
{
name = top;
pos = (348,690);
}
);
shapes = (
{
closed = 1;
nodes = (
(530,-10,o),
(653,125,o),
(653,345,cs),
(653,566,o),
(530,700,o),
(348,700,cs),
(167,700,o),
(44,566,o),
(44,345,cs),
(44,125,o),
(167,-10,o),
(348,-10,cs)
);
},
{
closed = 1;
nodes = (
(228,87,o),
(153,179,o),
(153,345,cs),
(153,512,o),
(228,603,o),
(348,603,cs),
(469,603,o),
(544,512,o),
(544,345,cs),
(544,179,o),
(469,87,o),
(348,87,cs)
);
},
{
closed = 1;
nodes = (
(445,735,o),
(493,777,o),
(498,845,c),
(428,845,l),
(424,820,o),
(403,805,o),
(348,805,c),
(293,805,o),
(272,820,o),
(268,845,c),
(198,845,l),
(203,777,o),
(251,735,o),
(348,735,c)
);
}
);
};
layerId = "0EB46722-B91C-41F5-AE00-C58F8D8E3AB4";
shapes = (
{
ref = O;
},
{
pos = (98,0);
ref = brevecomb.case;
}
);
width = 697;
},
{
associatedMasterId = "0EB46722-B91C-41F5-AE00-C58F8D8E3AB4";
layerId = "89946EFA-3063-4597-8F39-C29AA3B0B012";
shapes = (
{
ref = O;
},
{
pos = (98,0);
ref = brevecomb.case;
}
);
width = 697;
}
);
unicode = 334;
},
{
color = 10;
glyphname = Ocircumflex;
kernLeft = O;
kernRight = O;
lastChange = "2024-03-21 11:17:30 +0000";
layers = (
{
layerId = m001;
shapes = (
{
ref = O;
},
{
pos = (113,0);
ref = circumflexcomb.case;
}
);
width = 726;
},
{
background = {
anchors = (
{
name = bottom;
pos = (348,0);
},
{
name = top;
pos = (348,690);
}
);
shapes = (
{
closed = 1;
nodes = (
(530,-10,o),
(653,125,o),
(653,345,cs),
(653,566,o),
(530,700,o),
(348,700,cs),
(167,700,o),
(44,566,o),
(44,345,cs),
(44,125,o),
(167,-10,o),
(348,-10,cs)
);
},
{
closed = 1;
nodes = (
(228,87,o),
(153,179,o),
(153,345,cs),
(153,512,o),
(228,603,o),
(348,603,cs),
(469,603,o),
(544,512,o),
(544,345,cs),
(544,179,o),
(469,87,o),
(348,87,cs)
);
},
{
closed = 1;
nodes = (
(531,735,l),
(417,845,l),
(283,845,l),
(432,735,l)
);
},
{
closed = 1;
nodes = (
(264,735,l),
(413,845,l),
(279,845,l),
(165,735,l)
);
}
);
};
layerId = "0EB46722-B91C-41F5-AE00-C58F8D8E3AB4";
shapes = (
{
ref = O;
},
{
pos = (98,0);
ref = circumflexcomb.case;
}
);
width = 697;
},
{
associatedMasterId = "0EB46722-B91C-41F5-AE00-C58F8D8E3AB4";
layerId = "89946EFA-3063-4597-8F39-C29AA3B0B012";
shapes = (
{
ref = O;
},
{
pos = (98,0);
ref = circumflexcomb.case;
}
);
width = 697;
}
);
unicode = 212;
},
{
color = 10;
glyphname = Odieresis;
kernLeft = O;
kernRight = O;
lastChange = "2024-03-21 11:17:30 +0000";
layers = (
{
layerId = m001;
shapes = (
{
ref = O;
},
{
pos = (113,0);
ref = dieresiscomb.case;
}
);
width = 726;
},
{
background = {
anchors = (
{
name = bottom;
pos = (348,0);
},
{
name = top;
pos = (348,690);
}
);
shapes = (
{
closed = 1;
nodes = (
(530,-10,o),
(653,125,o),
(653,345,cs),
(653,566,o),
(530,700,o),
(348,700,cs),
(167,700,o),
(44,566,o),
(44,345,cs),
(44,125,o),
(167,-10,o),
(348,-10,cs)
);
},
{
closed = 1;
nodes = (
(228,87,o),
(153,179,o),
(153,345,cs),
(153,512,o),
(228,603,o),
(348,603,cs),
(469,603,o),
(544,512,o),
(544,345,cs),
(544,179,o),
(469,87,o),
(348,87,cs)
);
},
{
closed = 1;
nodes = (
(481,742,o),
(506,765,o),
(506,798,cs),
(506,832,o),
(481,855,o),
(449,855,cs),
(417,855,o),
(392,832,o),
(392,798,cs),
(392,765,o),
(417,742,o),
(449,742,cs)
);
},
{
closed = 1;
nodes = (
(279,742,o),
(304,765,o),
(304,798,cs),
(304,832,o),
(279,855,o),
(247,855,cs),
(215,855,o),
(190,832,o),
(190,798,cs),
(190,765,o),
(215,742,o),
(247,742,cs)
);
}
);
};
layerId = "0EB46722-B91C-41F5-AE00-C58F8D8E3AB4";
shapes = (
{
ref = O;
},
{
pos = (98,0);
ref = dieresiscomb.case;
}
);
width = 697;
},
{
associatedMasterId = "0EB46722-B91C-41F5-AE00-C58F8D8E3AB4";
layerId = "89946EFA-3063-4597-8F39-C29AA3B0B012";
shapes = (
{
ref = O;
},
{
pos = (98,0);
ref = dieresiscomb.case;
}
);
width = 697;
}
);
unicode = 214;
},
{
color = 10;
glyphname = Odotbelow;
kernLeft = O;
kernRight = O;
lastChange = "2024-03-21 11:17:30 +0000";
layers = (
{
layerId = m001;
shapes = (
{
ref = O;
},
{
pos = (112,0);
ref = dotbelow;
}
);
width = 726;
},
{
background = {
anchors = (
{
name = bottom;
pos = (348,0);
},
{
name = top;
pos = (348,690);
}
);
shapes = (
{
closed = 1;
nodes = (
(530,-10,o),
(653,125,o),
(653,345,cs),
(653,566,o),
(530,700,o),
(348,700,cs),
(167,700,o),
(44,566,o),
(44,345,cs),
(44,125,o),
(167,-10,o),
(348,-10,cs)
);
},
{
closed = 1;
nodes = (
(228,87,o),
(153,179,o),
(153,345,cs),
(153,512,o),
(228,603,o),
(348,603,cs),
(469,603,o),
(544,512,o),
(544,345,cs),
(544,179,o),
(469,87,o),
(348,87,cs)
);
},
{
closed = 1;
nodes = (
(383,-195,o),
(410,-170,o),
(410,-133,cs),
(410,-97,o),
(383,-72,o),
(348,-72,cs),
(313,-72,o),
(286,-97,o),
(286,-133,cs),
(286,-170,o),
(313,-195,o),
(348,-195,cs)
);
}
);
};
layerId = "0EB46722-B91C-41F5-AE00-C58F8D8E3AB4";
shapes = (
{
ref = O;
},
{
pos = (98,0);
ref = dotbelow;
}
);
width = 697;
},
{
associatedMasterId = "0EB46722-B91C-41F5-AE00-C58F8D8E3AB4";
layerId = "89946EFA-3063-4597-8F39-C29AA3B0B012";
shapes = (
{
ref = O;
},
{
pos = (98,0);
ref = dotbelow;
}
);
width = 697;
}
);
unicode = 7884;
},
{
color = 10;
glyphname = Ograve;
kernLeft = O;
kernRight = O;
lastChange = "2024-03-21 11:17:30 +0000";
layers = (
{
layerId = m001;
shapes = (
{
ref = O;
},
{
pos = (113,0);
ref = gravecomb.case;
}
);
width = 726;
},
{
background = {
anchors = (
{
name = bottom;
pos = (348,0);
},
{
name = top;
pos = (348,690);
}
);
shapes = (
{
closed = 1;
nodes = (
(530,-10,o),
(653,125,o),
(653,345,cs),
(653,566,o),
(530,700,o),
(348,700,cs),
(167,700,o),
(44,566,o),
(44,345,cs),
(44,125,o),
(167,-10,o),
(348,-10,cs)
);
},
{
closed = 1;
nodes = (
(228,87,o),
(153,179,o),
(153,345,cs),
(153,512,o),
(228,603,o),
(348,603,cs),
(469,603,o),
(544,512,o),
(544,345,cs),
(544,179,o),
(469,87,o),
(348,87,cs)
);
},
{
closed = 1;
nodes = (
(409,735,l),
(309,845,l),
(178,845,l),
(315,735,l)
);
}
);
};
layerId = "0EB46722-B91C-41F5-AE00-C58F8D8E3AB4";
shapes = (
{
ref = O;
},
{
pos = (98,0);
ref = gravecomb.case;
}
);
width = 697;
},
{
associatedMasterId = "0EB46722-B91C-41F5-AE00-C58F8D8E3AB4";
layerId = "89946EFA-3063-4597-8F39-C29AA3B0B012";
shapes = (
{
ref = O;
},
{
pos = (98,0);
ref = gravecomb.case;
}
);
width = 697;
}
);
unicode = 210;
},
{
color = 10;
glyphname = Ohungarumlaut;
kernLeft = O;
kernRight = O;
lastChange = "2024-03-21 11:17:30 +0000";
layers = (
{
layerId = m001;
shapes = (
{
ref = O;
},
{
pos = (113,0);
ref = hungarumlautcomb.case;
}
);
width = 726;
},
{
background = {
anchors = (
{
name = bottom;
pos = (348,0);
},
{
name = top;
pos = (348,690);
}
);
shapes = (
{
closed = 1;
nodes = (
(530,-10,o),
(653,125,o),
(653,345,cs),
(653,566,o),
(530,700,o),
(348,700,cs),
(167,700,o),
(44,566,o),
(44,345,cs),
(44,125,o),
(167,-10,o),
(348,-10,cs)
);
},
{
closed = 1;
nodes = (
(228,87,o),
(153,179,o),
(153,345,cs),
(153,512,o),
(228,603,o),
(348,603,cs),
(469,603,o),
(544,512,o),
(544,345,cs),
(544,179,o),
(469,87,o),
(348,87,cs)
);
},
{
closed = 1;
nodes = (
(469,735,l),
(606,845,l),
(481,845,l),
(381,735,l)
);
},
{
closed = 1;
nodes = (
(323,735,l),
(420,845,l),
(306,845,l),
(235,735,l)
);
}
);
};
layerId = "0EB46722-B91C-41F5-AE00-C58F8D8E3AB4";
shapes = (
{
ref = O;
},
{
pos = (98,0);
ref = hungarumlautcomb.case;
}
);
width = 697;
},
{
associatedMasterId = "0EB46722-B91C-41F5-AE00-C58F8D8E3AB4";
layerId = "89946EFA-3063-4597-8F39-C29AA3B0B012";
shapes = (
{
ref = O;
},
{
pos = (98,0);
ref = hungarumlautcomb.case;
}
);
width = 697;
}
);
unicode = 336;
},
{
color = 10;
glyphname = Omacron;
kernLeft = O;
kernRight = O;
lastChange = "2024-03-21 11:17:30 +0000";
layers = (
{
layerId = m001;
shapes = (
{
ref = O;
},
{
pos = (113,0);
ref = macroncomb.case;
}
);
width = 726;
},
{
background = {
anchors = (
{
name = bottom;
pos = (348,0);
},
{
name = top;
pos = (348,690);
}
);
shapes = (
{
closed = 1;
nodes = (
(530,-10,o),
(653,125,o),
(653,345,cs),
(653,566,o),
(530,700,o),
(348,700,cs),
(167,700,o),
(44,566,o),
(44,345,cs),
(44,125,o),
(167,-10,o),
(348,-10,cs)
);
},
{
closed = 1;
nodes = (
(228,87,o),
(153,179,o),
(153,345,cs),
(153,512,o),
(228,603,o),
(348,603,cs),
(469,603,o),
(544,512,o),
(544,345,cs),
(544,179,o),
(469,87,o),
(348,87,cs)
);
},
{
closed = 1;
nodes = (
(506,753,l),
(506,837,l),
(190,837,l),
(190,753,l)
);
}
);
};
layerId = "0EB46722-B91C-41F5-AE00-C58F8D8E3AB4";
shapes = (
{
ref = O;
},
{
pos = (98,0);
ref = macroncomb.case;
}
);
width = 697;
},
{
associatedMasterId = "0EB46722-B91C-41F5-AE00-C58F8D8E3AB4";
layerId = "89946EFA-3063-4597-8F39-C29AA3B0B012";
shapes = (
{
ref = O;
},
{
pos = (98,0);
ref = macroncomb.case;
}
);
width = 697;
}
);
unicode = 332;
},
{
color = 10;
glyphname = Oogonek;
kernLeft = O;
kernRight = O;
lastChange = "2024-03-21 13:35:44 +0000";
layers = (
{
background = {
shapes = (
{
closed = 1;
nodes = (
(607,46,o),
(690,166,o),
(690,345,cs),
(690,571,o),
(557,704,o),
(363,704,c),
(169,704,o),
(36,571,o),
(36,345,cs),
(36,119,o),
(169,-14,o),
(363,-14,c),
(374,-14,o),
(384,-14,o),
(394,-13,c),
(390,1,l),
(288,-32,o),
(260,-69,o),
(260,-111,c),
(260,-156,o),
(299,-190,o),
(371,-190,cs),
(402,-190,o),
(438,-183,o),
(468,-170,c),
(459,-75,l),
(439,-87,o),
(413,-96,o),
(394,-96,c),
(379,-96,o),
(371,-89,o),
(371,-79,c),
(371,-60,o),
(393,-29,o),
(476,3,c)
);
},
{
closed = 1;
nodes = (
(260,132,o),
(194,204,o),
(194,345,cs),
(194,486,o),
(260,558,o),
(363,558,c),
(466,558,o),
(532,486,o),
(532,345,cs),
(532,204,o),
(466,132,o),
(363,132,c)
);
}
);
};
layerId = m001;
shapes = (
{
ref = O;
},
{
pos = (126,0);
ref = ogonekcomb;
}
);
width = 726;
},
{
background = {
shapes = (
{
closed = 1;
nodes = (
(378,-185,o),
(413,-176,o),
(441,-165,c),
(432,-84,l),
(409,-94,o),
(375,-106,o),
(355,-106,c),
(342,-106,o),
(334,-101,o),
(334,-89,c),
(334,-65,o),
(367,-27,o),
(459,9,cs),
(578,55,o),
(653,173,o),
(653,345,cs),
(653,566,o),
(530,700,o),
(348,700,cs),
(167,700,o),
(44,566,o),
(44,345,cs),
(44,125,o),
(167,-10,o),
(348,-10,cs),
(355,-10,o),
(362,-10,o),
(368,-9,c),
(367,0,l),
(278,-37,o),
(250,-69,o),
(250,-111,c),
(250,-153,o),
(284,-185,o),
(349,-185,cs)
);
},
{
closed = 1;
nodes = (
(228,87,o),
(153,179,o),
(153,345,cs),
(153,512,o),
(228,603,o),
(348,603,cs),
(469,603,o),
(544,512,o),
(544,345,cs),
(544,179,o),
(469,87,o),
(348,87,cs)
);
}
);
};
layerId = "0EB46722-B91C-41F5-AE00-C58F8D8E3AB4";
shapes = (
{
ref = O;
},
{
pos = (125,0);
ref = ogonekcomb;
}
);
width = 697;
},
{
associatedMasterId = "0EB46722-B91C-41F5-AE00-C58F8D8E3AB4";
layerId = "89946EFA-3063-4597-8F39-C29AA3B0B012";
shapes = (
{
closed = 1;
nodes = (
(228,87,o),
(153,179,o),
(153,345,cs),
(153,512,o),
(228,603,o),
(348,603,cs),
(469,603,o),
(544,512,o),
(544,345,cs),
(544,179,o),
(469,87,o),
(348,87,cs)
);
},
{
closed = 1;
nodes = (
(278,-37,o),
(250,-69,o),
(250,-111,c),
(250,-153,o),
(284,-185,o),
(349,-185,cs),
(378,-185,o),
(413,-176,o),
(441,-165,c),
(432,-84,l),
(409,-94,o),
(375,-106,o),
(355,-106,c),
(342,-106,o),
(334,-101,o),
(334,-89,c),
(334,-65,o),
(367,-27,o),
(459,9,cs),
(578,55,o),
(653,173,o),
(653,345,cs),
(653,566,o),
(530,700,o),
(348,700,cs),
(167,700,o),
(44,566,o),
(44,345,cs),
(44,125,o),
(167,-10,o),
(348,-10,cs),
(355,-10,o),
(362,-10,o),
(368,-9,c),
(367,0,l)
);
}
);
width = 697;
}
);
unicode = 490;
},
{
color = 6;
glyphname = Oslash;
kernLeft = C;
kernRight = D;
lastChange = "2024-03-21 11:17:29 +0000";
layers = (
{
anchors = (
{
name = top;
pos = (363,690);
}
);
layerId = m001;
shapes = (
{
closed = 1;
nodes = (
(163,0,l),
(726,690,l),
(563,690,l),
(0,0,l)
);
},
{
closed = 1;
nodes = (
(557,-14,o),
(690,119,o),
(690,345,cs),
(690,571,o),
(557,704,o),
(363,704,c),
(169,704,o),
(36,571,o),
(36,345,cs),
(36,119,o),
(169,-14,o),
(363,-14,c)
);
},
{
closed = 1;
nodes = (
(260,132,o),
(194,204,o),
(194,345,cs),
(194,486,o),
(260,558,o),
(363,558,c),
(466,558,o),
(532,486,o),
(532,345,cs),
(532,204,o),
(466,132,o),
(363,132,c)
);
}
);
width = 726;
},
{
anchors = (
{
name = top;
pos = (348,690);
}
);
background = {
anchors = (
{
name = top;
pos = (348,690);
}
);
shapes = (
{
closed = 1;
nodes = (
(113,0,l),
(693,690,l),
(584,690,l),
(4,0,l)
);
},
{
closed = 1;
nodes = (
(530,-10,o),
(653,125,o),
(653,345,cs),
(653,566,o),
(530,700,o),
(348,700,cs),
(167,700,o),
(44,566,o),
(44,345,cs),
(44,125,o),
(167,-10,o),
(348,-10,cs)
);
},
{
closed = 1;
nodes = (
(228,87,o),
(153,179,o),
(153,345,cs),
(153,512,o),
(228,603,o),
(348,603,cs),
(469,603,o),
(544,512,o),
(544,345,cs),
(544,179,o),
(469,87,o),
(348,87,cs)
);
}
);
};
layerId = "0EB46722-B91C-41F5-AE00-C58F8D8E3AB4";
shapes = (
{
closed = 1;
nodes = (
(113,0,l),
(693,690,l),
(584,690,l),
(4,0,l)
);
},
{
closed = 1;
nodes = (
(530,-10,o),
(653,125,o),
(653,345,cs),
(653,566,o),
(530,700,o),
(348,700,cs),
(167,700,o),
(44,566,o),
(44,345,cs),
(44,125,o),
(167,-10,o),
(348,-10,cs)
);
},
{
closed = 1;
nodes = (
(228,87,o),
(153,179,o),
(153,345,cs),
(153,512,o),
(228,603,o),
(348,603,cs),
(469,603,o),
(544,512,o),
(544,345,cs),
(544,179,o),
(469,87,o),
(348,87,cs)
);
}
);
width = 697;
},
{
anchors = (
{
name = top;
pos = (348,690);
}
);
associatedMasterId = "0EB46722-B91C-41F5-AE00-C58F8D8E3AB4";
layerId = "89946EFA-3063-4597-8F39-C29AA3B0B012";
shapes = (
{
closed = 1;
nodes = (
(113,0,l),
(693,690,l),
(584,690,l),
(4,0,l)
);
},
{
closed = 1;
nodes = (
(530,-10,o),
(653,125,o),
(653,345,cs),
(653,566,o),
(530,700,o),
(348,700,cs),
(167,700,o),
(44,566,o),
(44,345,cs),
(44,125,o),
(167,-10,o),
(348,-10,cs)
);
},
{
closed = 1;
nodes = (
(228,87,o),
(153,179,o),
(153,345,cs),
(153,512,o),
(228,603,o),
(348,603,cs),
(469,603,o),
(544,512,o),
(544,345,cs),
(544,179,o),
(469,87,o),
(348,87,cs)
);
}
);
width = 697;
}
);
unicode = 216;
},
{
color = 10;
glyphname = Oslashacute;
kernLeft = C;
kernRight = D;
lastChange = "2024-03-21 11:17:30 +0000";
layers = (
{
layerId = m001;
shapes = (
{
ref = Oslash;
},
{
pos = (113,0);
ref = acutecomb.case;
}
);
width = 726;
},
{
background = {
anchors = (
{
name = top;
pos = (348,690);
}
);
shapes = (
{
closed = 1;
nodes = (
(113,0,l),
(693,690,l),
(584,690,l),
(4,0,l)
);
},
{
closed = 1;
nodes = (
(530,-10,o),
(653,125,o),
(653,345,cs),
(653,566,o),
(530,700,o),
(348,700,cs),
(167,700,o),
(44,566,o),
(44,345,cs),
(44,125,o),
(167,-10,o),
(348,-10,cs)
);
},
{
closed = 1;
nodes = (
(228,87,o),
(153,179,o),
(153,345,cs),
(153,512,o),
(228,603,o),
(348,603,cs),
(469,603,o),
(544,512,o),
(544,345,cs),
(544,179,o),
(469,87,o),
(348,87,cs)
);
},
{
closed = 1;
nodes = (
(381,735,l),
(518,845,l),
(387,845,l),
(287,735,l)
);
}
);
};
layerId = "0EB46722-B91C-41F5-AE00-C58F8D8E3AB4";
shapes = (
{
ref = Oslash;
},
{
pos = (98,0);
ref = acutecomb.case;
}
);
width = 697;
},
{
associatedMasterId = "0EB46722-B91C-41F5-AE00-C58F8D8E3AB4";
layerId = "89946EFA-3063-4597-8F39-C29AA3B0B012";
shapes = (
{
ref = Oslash;
},
{
pos = (98,0);
ref = acutecomb.case;
}
);
width = 697;
}
);
unicode = 510;
},
{
color = 10;
glyphname = Otilde;
kernLeft = O;
kernRight = O;
lastChange = "2024-03-21 11:17:30 +0000";
layers = (
{
layerId = m001;
shapes = (
{
ref = O;
},
{
pos = (113,0);
ref = tildecomb.case;
}
);
width = 726;
},
{
background = {
anchors = (
{
name = bottom;
pos = (348,0);
},
{
name = top;
pos = (348,690);
}
);
shapes = (
{
closed = 1;
nodes = (
(530,-10,o),
(653,125,o),
(653,345,cs),
(653,566,o),
(530,700,o),
(348,700,cs),
(167,700,o),
(44,566,o),
(44,345,cs),
(44,125,o),
(167,-10,o),
(348,-10,cs)
);
},
{
closed = 1;
nodes = (
(228,87,o),
(153,179,o),
(153,345,cs),
(153,512,o),
(228,603,o),
(348,603,cs),
(469,603,o),
(544,512,o),
(544,345,cs),
(544,179,o),
(469,87,o),
(348,87,cs)
);
},
{
closed = 1;
nodes = (
(256,735,l),
(257,757,o),
(269,773,o),
(290,773,c),
(321,773,o),
(351,735,o),
(408,735,c),
(465,735,o),
(501,777,o),
(508,845,c),
(440,845,l),
(439,823,o),
(427,807,o),
(406,807,c),
(376,807,o),
(345,845,o),
(288,845,c),
(231,845,o),
(195,803,o),
(188,735,c)
);
}
);
};
layerId = "0EB46722-B91C-41F5-AE00-C58F8D8E3AB4";
shapes = (
{
ref = O;
},
{
pos = (98,0);
ref = tildecomb.case;
}
);
width = 697;
},
{
associatedMasterId = "0EB46722-B91C-41F5-AE00-C58F8D8E3AB4";
layerId = "89946EFA-3063-4597-8F39-C29AA3B0B012";
shapes = (
{
ref = O;
},
{
pos = (98,0);
ref = tildecomb.case;
}
);
width = 697;
}
);
unicode = 213;
},
{
color = 6;
glyphname = OE;
kernLeft = O;
kernRight = E;
lastChange = "2024-03-21 11:17:29 +0000";
layers = (
{
layerId = m001;
shapes = (
{
closed = 1;
nodes = (
(513,0,l),
(513,145,l),
(391,145,l),
(269,145,o),
(194,215,o),
(194,345,cs),
(194,476,o),
(269,545,o),
(391,545,c),
(513,545,l),
(513,690,l),
(381,690,l),
(175,690,o),
(36,563,o),
(36,345,cs),
(36,128,o),
(175,0,o),
(381,0,c)
);
},
{
closed = 1;
nodes = (
(973,0,l),
(973,145,l),
(546,145,l),
(546,0,l)
);
},
{
closed = 1;
nodes = (
(633,0,l),
(633,690,l),
(478,690,l),
(478,0,l)
);
},
{
closed = 1;
nodes = (
(926,282,l),
(926,419,l),
(546,419,l),
(546,282,l)
);
},
{
closed = 1;
nodes = (
(969,545,l),
(969,690,l),
(546,690,l),
(546,545,l)
);
}
);
width = 1009;
},
{
background = {
shapes = (
{
closed = 1;
nodes = (
(505,0,l),
(505,96,l),
(365,96,l),
(233,96,o),
(153,185,o),
(153,345,cs),
(153,506,o),
(233,594,o),
(365,594,c),
(505,594,l),
(505,690,l),
(360,690,l),
(170,690,o),
(44,560,o),
(44,345,cs),
(44,131,o),
(170,0,o),
(360,0,c)
);
},
{
closed = 1;
nodes = (
(954,0,l),
(954,96,l),
(534,96,l),
(534,0,l)
);
},
{
closed = 1;
nodes = (
(589,0,l),
(589,690,l),
(484,690,l),
(484,0,l)
);
},
{
closed = 1;
nodes = (
(889,306,l),
(889,402,l),
(534,402,l),
(534,306,l)
);
},
{
closed = 1;
nodes = (
(949,594,l),
(949,690,l),
(534,690,l),
(534,594,l)
);
}
);
};
layerId = "0EB46722-B91C-41F5-AE00-C58F8D8E3AB4";
shapes = (
{
closed = 1;
nodes = (
(505,0,l),
(505,96,l),
(365,96,l),
(233,96,o),
(153,185,o),
(153,345,cs),
(153,506,o),
(233,594,o),
(365,594,c),
(505,594,l),
(505,690,l),
(360,690,l),
(170,690,o),
(44,560,o),
(44,345,cs),
(44,131,o),
(170,0,o),
(360,0,c)
);
},
{
closed = 1;
nodes = (
(954,0,l),
(954,96,l),
(534,96,l),
(534,0,l)
);
},
{
closed = 1;
nodes = (
(589,0,l),
(589,690,l),
(484,690,l),
(484,0,l)
);
},
{
closed = 1;
nodes = (
(889,306,l),
(889,402,l),
(534,402,l),
(534,306,l)
);
},
{
closed = 1;
nodes = (
(949,594,l),
(949,690,l),
(534,690,l),
(534,594,l)
);
}
);
width = 1000;
},
{
associatedMasterId = "0EB46722-B91C-41F5-AE00-C58F8D8E3AB4";
layerId = "89946EFA-3063-4597-8F39-C29AA3B0B012";
shapes = (
{
closed = 1;
nodes = (
(589,0,l),
(589,690,l),
(484,690,l),
(484,0,l)
);
},
{
closed = 1;
nodes = (
(534,306,l),
(889,306,l),
(889,402,l),
(534,402,l)
);
},
{
closed = 1;
nodes = (
(534,0,l),
(954,0,l),
(954,96,l),
(534,96,l)
);
},
{
closed = 1;
nodes = (
(534,594,l),
(949,594,l),
(949,690,l),
(534,690,l)
);
},
{
closed = 1;
nodes = (
(505,0,l),
(505,96,l),
(365,96,l),
(233,96,o),
(153,185,o),
(153,345,cs),
(153,506,o),
(233,594,o),
(365,594,c),
(505,594,l),
(505,690,l),
(360,690,l),
(170,690,o),
(44,560,o),
(44,345,cs),
(44,131,o),
(170,0,o),
(360,0,c)
);
}
);
width = 1000;
}
);
unicode = 338;
},
{
color = 6;
glyphname = P;
kernLeft = H;
kernRight = P;
lastChange = "2024-03-22 12:26:09 +0000";
layers = (
{
layerId = m001;
shapes = (
{
closed = 1;
nodes = (
(341,213,l),
(519,213,o),
(612,307,o),
(612,452,cs),
(612,596,o),
(519,690,o),
(341,690,c),
(130,690,l),
(130,545,l),
(332,545,l),
(419,545,o),
(454,512,o),
(454,452,cs),
(454,391,o),
(419,358,o),
(332,358,c),
(130,358,l),
(130,213,l)
);
},
{
closed = 1;
nodes = (
(217,0,l),
(217,690,l),
(62,690,l),
(62,0,l)
);
}
);
width = 632;
},
{
background = {
shapes = (
{
closed = 1;
nodes = (
(329,240,l),
(483,240,o),
(584,325,o),
(584,465,cs),
(584,605,o),
(483,690,o),
(329,690,c),
(125,690,l),
(125,594,l),
(319,594,l),
(425,594,o),
(475,552.237,o),
(475,465,cs),
(475,378.691,o),
(425,336,o),
(319,336,c),
(125,336,l),
(125,240,l)
);
},
{
closed = 1;
nodes = (
(180,0,l),
(180,690,l),
(75,690,l),
(75,0,l)
);
}
);
};
layerId = "0EB46722-B91C-41F5-AE00-C58F8D8E3AB4";
shapes = (
{
closed = 1;
nodes = (
(329,240,l),
(483,240,o),
(584,325,o),
(584,465,cs),
(584,605,o),
(483,690,o),
(329,690,c),
(125,690,l),
(125,594,l),
(319,594,l),
(425,594,o),
(475,552,o),
(475,465,cs),
(475,379,o),
(425,336,o),
(319,336,c),
(125,336,l),
(125,240,l)
);
},
{
closed = 1;
nodes = (
(180,0,l),
(180,690,l),
(75,690,l),
(75,0,l)
);
}
);
width = 613;
},
{
associatedMasterId = "0EB46722-B91C-41F5-AE00-C58F8D8E3AB4";
layerId = "89946EFA-3063-4597-8F39-C29AA3B0B012";
shapes = (
{
closed = 1;
nodes = (
(180,0,l),
(180,690,l),
(75,690,l),
(75,0,l)
);
},
{
closed = 1;
nodes = (
(483,240,o),
(584,325,o),
(584,465,cs),
(584,605,o),
(483,690,o),
(329,690,c),
(125,690,l),
(125,594,l),
(319,594,l),
(425,594,o),
(475,552.237,o),
(475,465,cs),
(475,378.691,o),
(425,336,o),
(319,336,c),
(125,336,l),
(125,240,l),
(329,240,l)
);
}
);
width = 613;
}
);
unicode = 80;
},
{
color = 6;
glyphname = Thorn;
kernLeft = H;
lastChange = "2024-03-21 11:17:29 +0000";
layers = (
{
layerId = m001;
shapes = (
{
closed = 1;
nodes = (
(341,110,l),
(519,110,o),
(612,204,o),
(612,348,cs),
(612,493,o),
(519,587,o),
(341,587,c),
(130,587,l),
(130,442,l),
(332,442,l),
(419,442,o),
(454,409,o),
(454,348,cs),
(454,287,o),
(419,254,o),
(332,254,c),
(130,254,l),
(130,110,l)
);
},
{
closed = 1;
nodes = (
(217,0,l),
(217,690,l),
(62,690,l),
(62,0,l)
);
}
);
width = 632;
},
{
background = {
shapes = (
{
closed = 1;
nodes = (
(329,125,l),
(483,125,o),
(584,210,o),
(584,350,cs),
(584,490,o),
(483,575,o),
(329,575,c),
(125,575,l),
(125,479,l),
(319,479,l),
(425,479,o),
(475,437,o),
(475,350,cs),
(475,264,o),
(425,221,o),
(319,221,c),
(125,221,l),
(125,125,l)
);
},
{
closed = 1;
nodes = (
(180,0,l),
(180,690,l),
(75,690,l),
(75,0,l)
);
}
);
};
layerId = "0EB46722-B91C-41F5-AE00-C58F8D8E3AB4";
shapes = (
{
closed = 1;
nodes = (
(329,125,l),
(483,125,o),
(584,210,o),
(584,350,cs),
(584,490,o),
(483,575,o),
(329,575,c),
(125,575,l),
(125,479,l),
(319,479,l),
(425,479,o),
(475,437,o),
(475,350,cs),
(475,264,o),
(425,221,o),
(319,221,c),
(125,221,l),
(125,125,l)
);
},
{
closed = 1;
nodes = (
(180,0,l),
(180,690,l),
(75,690,l),
(75,0,l)
);
}
);
width = 614;
},
{
associatedMasterId = "0EB46722-B91C-41F5-AE00-C58F8D8E3AB4";
layerId = "89946EFA-3063-4597-8F39-C29AA3B0B012";
shapes = (
{
closed = 1;
nodes = (
(180,0,l),
(180,690,l),
(75,690,l),
(75,0,l)
);
},
{
closed = 1;
nodes = (
(483,125,o),
(584,210,o),
(584,350,cs),
(584,490,o),
(483,575,o),
(329,575,c),
(125,575,l),
(125,479,l),
(319,479,l),
(425,479,o),
(475,437,o),
(475,350,cs),
(475,264,o),
(425,221,o),
(319,221,c),
(125,221,l),
(125,125,l),
(329,125,l)
);
}
);
width = 614;
}
);
unicode = 222;
},
{
color = 6;
glyphname = Q;
kernLeft = O;
kernRight = O;
lastChange = "2024-03-21 11:17:29 +0000";
layers = (
{
layerId = m001;
shapes = (
{
closed = 1;
nodes = (
(557,-14,o),
(690,119,o),
(690,345,cs),
(690,571,o),
(557,704,o),
(363,704,c),
(169,704,o),
(36,571,o),
(36,345,cs),
(36,119,o),
(169,-14,o),
(363,-14,c)
);
},
{
closed = 1;
nodes = (
(643,-60,l),
(518,112,l),
(446,231,l),
(290,231,l),
(408,61,l),
(477,-60,l)
);
},
{
closed = 1;
nodes = (
(260,132,o),
(194,204,o),
(194,345,cs),
(194,486,o),
(260,558,o),
(363,558,c),
(466,558,o),
(532,486,o),
(532,345,cs),
(532,204,o),
(466,132,o),
(363,132,c)
);
}
);
width = 726;
},
{
background = {
shapes = (
{
closed = 1;
nodes = (
(530,-10,o),
(653,125,o),
(653,345,cs),
(653,566,o),
(530,700,o),
(348,700,cs),
(167,700,o),
(44,566,o),
(44,345,cs),
(44,125,o),
(167,-10,o),
(348,-10,cs)
);
},
{
closed = 1;
nodes = (
(620,-55,l),
(501,90,l),
(428,195,l),
(317,195,l),
(433,49,l),
(504,-55,l)
);
},
{
closed = 1;
nodes = (
(228,87,o),
(153,179,o),
(153,345,cs),
(153,512,o),
(228,603,o),
(348,603,cs),
(469,603,o),
(544,512,o),
(544,345,cs),
(544,179,o),
(469,87,o),
(348,87,cs)
);
}
);
};
layerId = "0EB46722-B91C-41F5-AE00-C58F8D8E3AB4";
shapes = (
{
closed = 1;
nodes = (
(530,-10,o),
(653,125,o),
(653,345,cs),
(653,566,o),
(530,700,o),
(348,700,cs),
(167,700,o),
(44,566,o),
(44,345,cs),
(44,125,o),
(167,-10,o),
(348,-10,cs)
);
},
{
closed = 1;
nodes = (
(620,-55,l),
(501,90,l),
(428,195,l),
(317,195,l),
(433,49,l),
(504,-55,l)
);
},
{
closed = 1;
nodes = (
(228,87,o),
(153,179,o),
(153,345,cs),
(153,512,o),
(228,603,o),
(348,603,cs),
(469,603,o),
(544,512,o),
(544,345,cs),
(544,179,o),
(469,87,o),
(348,87,cs)
);
}
);
width = 697;
},
{
associatedMasterId = "0EB46722-B91C-41F5-AE00-C58F8D8E3AB4";
background = {
shapes = (
{
closed = 1;
nodes = (
(293,-105,o),
(356,-160,o),
(457,-160,c),
(491,-160,o),
(515,-157,o),
(540,-150,c),
(540,-58,l),
(521,-65,o),
(499,-69,o),
(472,-69,c),
(415,-69,o),
(391,-47,o),
(396,10,c),
(301,5,l)
);
},
{
closed = 1;
nodes = (
(526,-10,o),
(649,125,o),
(649,345,cs),
(649,566,o),
(526,700,o),
(344,700,cs),
(163,700,o),
(40,566,o),
(40,345,cs),
(40,125,o),
(163,-10,o),
(344,-10,cs)
);
},
{
closed = 1;
nodes = (
(224,87,o),
(149,179,o),
(149,345,cs),
(149,512,o),
(224,603,o),
(344,603,cs),
(465,603,o),
(540,512,o),
(540,345,cs),
(540,179,o),
(465,87,o),
(344,87,cs)
);
},
{
closed = 1;
nodes = (
(638,-85,l),
(402,225,l),
(291,225,l),
(522,-85,l)
);
},
{
closed = 1;
nodes = (
(526,-10,o),
(649,125,o),
(649,345,cs),
(649,566,o),
(526,700,o),
(344,700,cs),
(163,700,o),
(40,566,o),
(40,345,cs),
(40,125,o),
(163,-10,o),
(344,-10,cs)
);
},
{
closed = 1;
nodes = (
(224,87,o),
(149,179,o),
(149,345,cs),
(149,512,o),
(224,603,o),
(344,603,cs),
(465,603,o),
(540,512,o),
(540,345,cs),
(540,179,o),
(465,87,o),
(344,87,cs)
);
}
);
};
layerId = "89946EFA-3063-4597-8F39-C29AA3B0B012";
shapes = (
{
closed = 1;
nodes = (
(620,-55,l),
(501,90,l),
(428,195,l),
(317,195,l),
(433,49,l),
(504,-55,l)
);
},
{
closed = 1;
nodes = (
(530,-10,o),
(653,125,o),
(653,345,cs),
(653,566,o),
(530,700,o),
(348,700,cs),
(167,700,o),
(44,566,o),
(44,345,cs),
(44,125,o),
(167,-10,o),
(348,-10,cs)
);
},
{
closed = 1;
nodes = (
(228,87,o),
(153,179,o),
(153,345,cs),
(153,512,o),
(228,603,o),
(348,603,cs),
(469,603,o),
(544,512,o),
(544,345,cs),
(544,179,o),
(469,87,o),
(348,87,cs)
);
}
);
width = 697;
}
);
unicode = 81;
},
{
color = 6;
glyphname = R;
kernLeft = H;
kernRight = R;
lastChange = "2024-03-22 12:26:09 +0000";
layers = (
{
anchors = (
{
name = bottom;
pos = (329,0);
},
{
name = top;
pos = (329,690);
}
);
layerId = m001;
shapes = (
{
closed = 1;
nodes = (
(345,233,l),
(512,233,o),
(602,323,o),
(602,462,cs),
(602,600,o),
(512,690,o),
(345,690,c),
(130,690,l),
(130,545,l),
(336,545,l),
(412,545,o),
(444,516,o),
(444,462,cs),
(444,407,o),
(412,378,o),
(336,378,c),
(130,378,l),
(130,233,l)
);
},
{
closed = 1;
nodes = (
(217,0,l),
(217,690,l),
(62,690,l),
(62,0,l)
);
},
{
closed = 1;
nodes = (
(621,0,l),
(426,299,l),
(266,299,l),
(447,0,l)
);
}
);
width = 642;
},
{
anchors = (
{
name = bottom;
pos = (324,0);
},
{
name = top;
pos = (324,690);
}
);
background = {
anchors = (
{
name = bottom;
pos = (324,0);
},
{
name = top;
pos = (324,690);
}
);
shapes = (
{
closed = 1;
nodes = (
(329,260,l),
(476.961,260,o),
(574,341,o),
(574,475,cs),
(574,609,o),
(477,690,o),
(329,690,c),
(125,690,l),
(125,594,l),
(319,594,l),
(418.205,594,o),
(465,555.475,o),
(465,475,cs),
(465,395.381,o),
(418.205,356,o),
(319,356,c),
(125,356,l),
(125,260,l)
);
},
{
closed = 1;
nodes = (
(180,0,l),
(180,690,l),
(75,690,l),
(75,0,l)
);
},
{
closed = 1;
nodes = (
(589,0,l),
(394,299,l),
(279,299,l),
(466,0,l)
);
}
);
};
layerId = "0EB46722-B91C-41F5-AE00-C58F8D8E3AB4";
shapes = (
{
closed = 1;
nodes = (
(329,260,l),
(477,260,o),
(574,341,o),
(574,475,cs),
(574,609,o),
(477,690,o),
(329,690,c),
(125,690,l),
(125,594,l),
(319,594,l),
(418,594,o),
(465,555,o),
(465,475,cs),
(465,395,o),
(418,356,o),
(319,356,c),
(125,356,l),
(125,260,l)
);
},
{
closed = 1;
nodes = (
(180,0,l),
(180,690,l),
(75,690,l),
(75,0,l)
);
},
{
closed = 1;
nodes = (
(589,0,l),
(394,299,l),
(279,299,l),
(466,0,l)
);
}
);
width = 619;
},
{
anchors = (
{
name = bottom;
pos = (324,0);
},
{
name = top;
pos = (324,690);
}
);
associatedMasterId = "0EB46722-B91C-41F5-AE00-C58F8D8E3AB4";
layerId = "89946EFA-3063-4597-8F39-C29AA3B0B012";
shapes = (
{
closed = 1;
nodes = (
(589,0,l),
(394,299,l),
(279,299,l),
(466,0,l)
);
},
{
closed = 1;
nodes = (
(180,0,l),
(180,690,l),
(75,690,l),
(75,0,l)
);
},
{
closed = 1;
nodes = (
(476.961,260,o),
(574,341,o),
(574,475,cs),
(574,609,o),
(477,690,o),
(329,690,c),
(125,690,l),
(125,594,l),
(319,594,l),
(418.205,594,o),
(465,555.475,o),
(465,475,cs),
(465,395.381,o),
(418.205,356,o),
(319,356,c),
(125,356,l),
(125,260,l),
(329,260,l)
);
}
);
width = 619;
}
);
unicode = 82;
},
{
color = 10;
glyphname = Racute;
kernLeft = H;
kernRight = R;
lastChange = "2024-03-21 11:17:30 +0000";
layers = (
{
layerId = m001;
shapes = (
{
ref = R;
},
{
pos = (79,0);
ref = acutecomb.case;
}
);
width = 642;
},
{
background = {
anchors = (
{
name = bottom;
pos = (324,0);
},
{
name = top;
pos = (324,690);
}
);
shapes = (
{
closed = 1;
nodes = (
(329,260,l),
(476.961,260,o),
(574,341,o),
(574,475,cs),
(574,609,o),
(477,690,o),
(329,690,c),
(125,690,l),
(125,594,l),
(319,594,l),
(418.205,594,o),
(465,555.475,o),
(465,475,cs),
(465,395.381,o),
(418.205,356,o),
(319,356,c),
(125,356,l),
(125,260,l)
);
},
{
closed = 1;
nodes = (
(180,0,l),
(180,690,l),
(75,690,l),
(75,0,l)
);
},
{
closed = 1;
nodes = (
(589,0,l),
(394,299,l),
(279,299,l),
(466,0,l)
);
},
{
closed = 1;
nodes = (
(357,735,l),
(494,845,l),
(363,845,l),
(263,735,l)
);
}
);
};
layerId = "0EB46722-B91C-41F5-AE00-C58F8D8E3AB4";
shapes = (
{
ref = R;
},
{
pos = (74,0);
ref = acutecomb.case;
}
);
width = 619;
},
{
associatedMasterId = "0EB46722-B91C-41F5-AE00-C58F8D8E3AB4";
layerId = "89946EFA-3063-4597-8F39-C29AA3B0B012";
shapes = (
{
ref = R;
},
{
pos = (74,0);
ref = acutecomb.case;
}
);
width = 619;
}
);
unicode = 340;
},
{
color = 10;
glyphname = Rcaron;
kernLeft = H;
kernRight = R;
lastChange = "2024-03-21 11:17:30 +0000";
layers = (
{
layerId = m001;
shapes = (
{
ref = R;
},
{
pos = (79,0);
ref = caroncomb.case;
}
);
width = 642;
},
{
background = {
anchors = (
{
name = bottom;
pos = (324,0);
},
{
name = top;
pos = (324,690);
}
);
shapes = (
{
closed = 1;
nodes = (
(329,260,l),
(476.961,260,o),
(574,341,o),
(574,475,cs),
(574,609,o),
(477,690,o),
(329,690,c),
(125,690,l),
(125,594,l),
(319,594,l),
(418.205,594,o),
(465,555.475,o),
(465,475,cs),
(465,395.381,o),
(418.205,356,o),
(319,356,c),
(125,356,l),
(125,260,l)
);
},
{
closed = 1;
nodes = (
(180,0,l),
(180,690,l),
(75,690,l),
(75,0,l)
);
},
{
closed = 1;
nodes = (
(589,0,l),
(394,299,l),
(279,299,l),
(466,0,l)
);
},
{
closed = 1;
nodes = (
(393,735,l),
(507,845,l),
(408,845,l),
(259,735,l)
);
},
{
closed = 1;
nodes = (
(389,735,l),
(240,845,l),
(141,845,l),
(255,735,l)
);
}
);
};
layerId = "0EB46722-B91C-41F5-AE00-C58F8D8E3AB4";
shapes = (
{
ref = R;
},
{
pos = (74,0);
ref = caroncomb.case;
}
);
width = 619;
},
{
associatedMasterId = "0EB46722-B91C-41F5-AE00-C58F8D8E3AB4";
layerId = "89946EFA-3063-4597-8F39-C29AA3B0B012";
shapes = (
{
ref = R;
},
{
pos = (74,0);
ref = caroncomb.case;
}
);
width = 619;
}
);
unicode = 344;
},
{
color = 10;
glyphname = Rcedilla;
kernLeft = H;
kernRight = R;
lastChange = "2024-03-21 11:17:30 +0000";
layers = (
{
layerId = m001;
shapes = (
{
ref = R;
},
{
pos = (75,0);
ref = commaaccent;
}
);
width = 642;
},
{
background = {
anchors = (
{
name = bottom;
pos = (324,0);
},
{
name = top;
pos = (324,690);
}
);
shapes = (
{
closed = 1;
nodes = (
(329,260,l),
(476.961,260,o),
(574,341,o),
(574,475,cs),
(574,609,o),
(477,690,o),
(329,690,c),
(125,690,l),
(125,594,l),
(319,594,l),
(418.205,594,o),
(465,555.475,o),
(465,475,cs),
(465,395.381,o),
(418.205,356,o),
(319,356,c),
(125,356,l),
(125,260,l)
);
},
{
closed = 1;
nodes = (
(180,0,l),
(180,690,l),
(75,690,l),
(75,0,l)
);
},
{
closed = 1;
nodes = (
(589,0,l),
(394,299,l),
(279,299,l),
(466,0,l)
);
},
{
closed = 1;
nodes = (
(340,-275,l),
(381,-72,l),
(277,-72,l),
(277,-275,l)
);
}
);
};
layerId = "0EB46722-B91C-41F5-AE00-C58F8D8E3AB4";
shapes = (
{
ref = R;
},
{
pos = (69,0);
ref = commaaccent;
}
);
width = 619;
},
{
associatedMasterId = "0EB46722-B91C-41F5-AE00-C58F8D8E3AB4";
layerId = "89946EFA-3063-4597-8F39-C29AA3B0B012";
shapes = (
{
ref = R;
},
{
pos = (69,0);
ref = commaaccent;
}
);
width = 619;
}
);
unicode = 342;
},
{
color = 6;
glyphname = S;
kernLeft = S;
kernRight = S;
lastChange = "2024-03-22 12:26:09 +0000";
layers = (
{
anchors = (
{
name = bottom;
pos = (317,0);
},
{
name = top;
pos = (315,690);
}
);
layerId = m001;
shapes = (
{
closed = 1;
nodes = (
(485,-14,o),
(589,71,o),
(589,196,c),
(589,462,o),
(204,391,o),
(204,507,c),
(204,538,o),
(230,566,o),
(299,566,c),
(364,566,o),
(412,536,o),
(436,466,c),
(581,517,l),
(542,640,o),
(443,704,o),
(313,704,c),
(147,704,o),
(48,619,o),
(48,498,c),
(48,245,o),
(430,322,o),
(430,190,c),
(430,153,o),
(398,125,o),
(325,125,c),
(255,125,o),
(204,159,o),
(178,241,c),
(27,190,l),
(69,53,o),
(170,-14,o),
(316,-14,c)
);
}
);
width = 621;
},
{
anchors = (
{
name = bottom;
pos = (294,0);
},
{
name = top;
pos = (294,690);
}
);
background = {
anchors = (
{
name = bottom;
pos = (294,0);
},
{
name = top;
pos = (294,690);
}
);
shapes = (
{
closed = 1;
nodes = (
(457,-10,o),
(553,74,o),
(553,184,c),
(553,456,o),
(155,362,o),
(155,520,c),
(155,568,o),
(194,607,o),
(284,607,c),
(366,607,o),
(420,572.333,o),
(446,499,c),
(546,532,l),
(511,637,o),
(422,700,o),
(293,700,c),
(136,700,o),
(50,615,o),
(50,509,c),
(50,257,o),
(447,357,o),
(447,174,c),
(447,119,o),
(391,83,o),
(302,83,c),
(211,83,o),
(156,119.64,o),
(131,196,c),
(28,163,l),
(64,55,o),
(154,-10,o),
(294,-10,c)
);
}
);
};
layerId = "0EB46722-B91C-41F5-AE00-C58F8D8E3AB4";
shapes = (
{
closed = 1;
nodes = (
(457,-10,o),
(553,74,o),
(553,184,c),
(553,456,o),
(155,362,o),
(155,520,c),
(155,568,o),
(194,607,o),
(284,607,c),
(366,607,o),
(420,572,o),
(446,499,c),
(546,532,l),
(511,637,o),
(422,700,o),
(293,700,c),
(136,700,o),
(50,615,o),
(50,509,c),
(50,257,o),
(447,357,o),
(447,174,c),
(447,119,o),
(391,83,o),
(302,83,c),
(211,83,o),
(156,120,o),
(131,196,c),
(28,163,l),
(64,55,o),
(154,-10,o),
(294,-10,c)
);
}
);
width = 592;
},
{
anchors = (
{
name = bottom;
pos = (294,0);
},
{
name = top;
pos = (294,690);
}
);
associatedMasterId = "0EB46722-B91C-41F5-AE00-C58F8D8E3AB4";
layerId = "89946EFA-3063-4597-8F39-C29AA3B0B012";
shapes = (
{
closed = 1;
nodes = (
(553,456,o),
(155,362,o),
(155,520,c),
(155,568,o),
(194,607,o),
(284,607,c),
(366,607,o),
(420,572.333,o),
(446,499,c),
(546,532,l),
(511,637,o),
(422,700,o),
(293,700,c),
(136,700,o),
(50,615,o),
(50,509,c),
(50,257,o),
(447,357,o),
(447,174,c),
(447,119,o),
(391,83,o),
(302,83,c),
(211,83,o),
(156,119.64,o),
(131,196,c),
(28,163,l),
(64,55,o),
(154,-10,o),
(294,-10,c),
(457,-10,o),
(553,74,o),
(553,184,c)
);
}
);
width = 592;
}
);
unicode = 83;
},
{
color = 10;
glyphname = Sacute;
kernLeft = S;
kernRight = S;
lastChange = "2024-03-21 11:17:30 +0000";
layers = (
{
layerId = m001;
shapes = (
{
ref = S;
},
{
pos = (65,0);
ref = acutecomb.case;
}
);
width = 621;
},
{
background = {
anchors = (
{
name = bottom;
pos = (294,0);
},
{
name = top;
pos = (294,690);
}
);
shapes = (
{
closed = 1;
nodes = (
(457,-10,o),
(553,74,o),
(553,184,c),
(553,456,o),
(155,362,o),
(155,520,c),
(155,568,o),
(194,607,o),
(284,607,c),
(366,607,o),
(420,572.333,o),
(446,499,c),
(546,532,l),
(511,637,o),
(422,700,o),
(293,700,c),
(136,700,o),
(50,615,o),
(50,509,c),
(50,257,o),
(447,357,o),
(447,174,c),
(447,119,o),
(391,83,o),
(302,83,c),
(211,83,o),
(156,119.64,o),
(131,196,c),
(28,163,l),
(64,55,o),
(154,-10,o),
(294,-10,c)
);
},
{
closed = 1;
nodes = (
(327,735,l),
(464,845,l),
(333,845,l),
(233,735,l)
);
}
);
};
layerId = "0EB46722-B91C-41F5-AE00-C58F8D8E3AB4";
shapes = (
{
ref = S;
},
{
pos = (44,0);
ref = acutecomb.case;
}
);
width = 592;
},
{
associatedMasterId = "0EB46722-B91C-41F5-AE00-C58F8D8E3AB4";
layerId = "89946EFA-3063-4597-8F39-C29AA3B0B012";
shapes = (
{
ref = S;
},
{
pos = (44,0);
ref = acutecomb.case;
}
);
width = 592;
}
);
unicode = 346;
},
{
color = 10;
glyphname = Scaron;
kernLeft = S;
kernRight = S;
lastChange = "2024-03-21 11:17:30 +0000";
layers = (
{
layerId = m001;
shapes = (
{
ref = S;
},
{
pos = (65,0);
ref = caroncomb.case;
}
);
width = 621;
},
{
background = {
anchors = (
{
name = bottom;
pos = (294,0);
},
{
name = top;
pos = (294,690);
}
);
shapes = (
{
closed = 1;
nodes = (
(457,-10,o),
(553,74,o),
(553,184,c),
(553,456,o),
(155,362,o),
(155,520,c),
(155,568,o),
(194,607,o),
(284,607,c),
(366,607,o),
(420,572.333,o),
(446,499,c),
(546,532,l),
(511,637,o),
(422,700,o),
(293,700,c),
(136,700,o),
(50,615,o),
(50,509,c),
(50,257,o),
(447,357,o),
(447,174,c),
(447,119,o),
(391,83,o),
(302,83,c),
(211,83,o),
(156,119.64,o),
(131,196,c),
(28,163,l),
(64,55,o),
(154,-10,o),
(294,-10,c)
);
},
{
closed = 1;
nodes = (
(363,735,l),
(477,845,l),
(378,845,l),
(229,735,l)
);
},
{
closed = 1;
nodes = (
(359,735,l),
(210,845,l),
(111,845,l),
(225,735,l)
);
}
);
};
layerId = "0EB46722-B91C-41F5-AE00-C58F8D8E3AB4";
shapes = (
{
ref = S;
},
{
pos = (44,0);
ref = caroncomb.case;
}
);
width = 592;
},
{
associatedMasterId = "0EB46722-B91C-41F5-AE00-C58F8D8E3AB4";
layerId = "89946EFA-3063-4597-8F39-C29AA3B0B012";
shapes = (
{
ref = S;
},
{
pos = (44,0);
ref = caroncomb.case;
}
);
width = 592;
}
);
unicode = 352;
},
{
color = 10;
glyphname = Scedilla;
kernLeft = S;
kernRight = S;
lastChange = "2024-03-21 11:17:30 +0000";
layers = (
{
layerId = m001;
shapes = (
{
ref = S;
},
{
pos = (64,0);
ref = cedillacomb;
}
);
width = 621;
},
{
background = {
anchors = (
{
name = bottom;
pos = (294,0);
},
{
name = top;
pos = (294,690);
}
);
shapes = (
{
closed = 1;
nodes = (
(457,-10,o),
(553,74,o),
(553,184,c),
(553,456,o),
(155,362,o),
(155,520,c),
(155,568,o),
(194,607,o),
(284,607,c),
(366,607,o),
(420,572.333,o),
(446,499,c),
(546,532,l),
(511,637,o),
(422,700,o),
(293,700,c),
(136,700,o),
(50,615,o),
(50,509,c),
(50,257,o),
(447,357,o),
(447,174,c),
(447,119,o),
(391,83,o),
(302,83,c),
(211,83,o),
(156,119.64,o),
(131,196,c),
(28,163,l),
(64,55,o),
(154,-10,o),
(294,-10,c)
);
},
{
closed = 1;
nodes = (
(345,-185,o),
(381,-151,o),
(381,-106,cs),
(381,-57,o),
(344,-29,o),
(296,-29,c),
(308,-43,l),
(314,9,l),
(258,11,l),
(245,-73,l),
(256,-71,o),
(263,-70,o),
(274,-70,c),
(298,-70,o),
(312,-79,o),
(312,-96,c),
(312,-110,o),
(299,-119,o),
(278,-119,c),
(258,-119,o),
(242,-114,o),
(224,-105,c),
(211,-169,l),
(236,-180,o),
(261,-185,o),
(287,-185,c)
);
}
);
};
layerId = "0EB46722-B91C-41F5-AE00-C58F8D8E3AB4";
shapes = (
{
ref = S;
},
{
pos = (42,0);
ref = cedillacomb;
}
);
width = 592;
},
{
associatedMasterId = "0EB46722-B91C-41F5-AE00-C58F8D8E3AB4";
layerId = "89946EFA-3063-4597-8F39-C29AA3B0B012";
shapes = (
{
ref = S;
},
{
pos = (42,0);
ref = cedilla;
}
);
width = 592;
}
);
unicode = 350;
},
{
color = 10;
glyphname = Scircumflex;
kernLeft = S;
kernRight = S;
lastChange = "2024-03-21 11:17:30 +0000";
layers = (
{
layerId = m001;
shapes = (
{
ref = S;
},
{
pos = (65,0);
ref = circumflexcomb.case;
}
);
width = 621;
},
{
background = {
anchors = (
{
name = bottom;
pos = (294,0);
},
{
name = top;
pos = (294,690);
}
);
shapes = (
{
closed = 1;
nodes = (
(457,-10,o),
(553,74,o),
(553,184,c),
(553,456,o),
(155,362,o),
(155,520,c),
(155,568,o),
(194,607,o),
(284,607,c),
(366,607,o),
(420,572.333,o),
(446,499,c),
(546,532,l),
(511,637,o),
(422,700,o),
(293,700,c),
(136,700,o),
(50,615,o),
(50,509,c),
(50,257,o),
(447,357,o),
(447,174,c),
(447,119,o),
(391,83,o),
(302,83,c),
(211,83,o),
(156,119.64,o),
(131,196,c),
(28,163,l),
(64,55,o),
(154,-10,o),
(294,-10,c)
);
},
{
closed = 1;
nodes = (
(477,735,l),
(363,845,l),
(229,845,l),
(378,735,l)
);
},
{
closed = 1;
nodes = (
(210,735,l),
(359,845,l),
(225,845,l),
(111,735,l)
);
}
);
};
layerId = "0EB46722-B91C-41F5-AE00-C58F8D8E3AB4";
shapes = (
{
ref = S;
},
{
pos = (44,0);
ref = circumflexcomb.case;
}
);
width = 592;
},
{
associatedMasterId = "0EB46722-B91C-41F5-AE00-C58F8D8E3AB4";
layerId = "89946EFA-3063-4597-8F39-C29AA3B0B012";
shapes = (
{
ref = S;
},
{
pos = (44,0);
ref = circumflexcomb.case;
}
);
width = 592;
}
);
unicode = 348;
},
{
color = 10;
glyphname = Scommaaccent;
kernLeft = S;
kernRight = S;
lastChange = "2024-03-21 11:17:30 +0000";
layers = (
{
layerId = m001;
shapes = (
{
ref = S;
},
{
pos = (173,0);
ref = commaaccentcomb;
}
);
width = 621;
},
{
background = {
anchors = (
{
name = bottom;
pos = (294,0);
},
{
name = top;
pos = (294,690);
}
);
shapes = (
{
closed = 1;
nodes = (
(457,-10,o),
(553,74,o),
(553,184,c),
(553,456,o),
(155,362,o),
(155,520,c),
(155,568,o),
(194,607,o),
(284,607,c),
(366,607,o),
(420,572.333,o),
(446,499,c),
(546,532,l),
(511,637,o),
(422,700,o),
(293,700,c),
(136,700,o),
(50,615,o),
(50,509,c),
(50,257,o),
(447,357,o),
(447,174,c),
(447,119,o),
(391,83,o),
(302,83,c),
(211,83,o),
(156,119.64,o),
(131,196,c),
(28,163,l),
(64,55,o),
(154,-10,o),
(294,-10,c)
);
},
{
closed = 1;
nodes = (
(310,-275,l),
(351,-72,l),
(247,-72,l),
(247,-275,l)
);
}
);
};
layerId = "0EB46722-B91C-41F5-AE00-C58F8D8E3AB4";
shapes = (
{
ref = S;
},
{
pos = (153,0);
ref = commaaccentcomb;
}
);
width = 592;
},
{
associatedMasterId = "0EB46722-B91C-41F5-AE00-C58F8D8E3AB4";
layerId = "89946EFA-3063-4597-8F39-C29AA3B0B012";
shapes = (
{
ref = S;
},
{
pos = (39,0);
ref = commaaccent;
}
);
width = 592;
}
);
unicode = 536;
},
{
color = 6;
glyphname = Germandbls;
lastChange = "2024-03-22 12:26:09 +0000";
layers = (
{
background = {
shapes = (
{
closed = 1;
nodes = (
(385,493,o),
(353,442,o),
(353,390,c),
(353,258,o),
(536,249,o),
(536,146,c),
(536,105,o),
(496.833,80,o),
(442,80,c),
(398.396,80,o),
(365.694,94.143,o),
(321,125,c),
(286,35,l),
(327.727,8,o),
(376.944,-10,o),
(439,-10,c),
(566.505,-10,o),
(635,58,o),
(635,151,c),
(635,303,o),
(446,326,o),
(446,400,c),
(446,426,o),
(476,461,o),
(583,489,c),
(561,643,o),
(457,700,o),
(337,700,cs),
(172,700,o),
(70,596,o),
(70,426,c),
(70,0,l),
(175,0,l),
(175,416,l),
(175,539,o),
(231,603,o),
(338,603,cs),
(402,603,o),
(455,578,o),
(472,529,c)
);
}
);
};
layerId = m001;
shapes = (
{
closed = 1;
nodes = (
(584,-14,o),
(664,58,o),
(664,159,c),
(664,313,o),
(497,333,o),
(497,394,c),
(497,419,o),
(518,439,o),
(612,471,c),
(589,622,o),
(491,704,o),
(336,704,cs),
(157,704,o),
(55,594,o),
(55,425,c),
(55,0,l),
(210,0,l),
(210,417,l),
(210,506,o),
(254,562,o),
(337,562,cs),
(389,562,o),
(425,544,o),
(445,511,c),
(384,482,o),
(350,434,o),
(350,381,c),
(350,247,o),
(515,244,o),
(515,166,c),
(515,129,o),
(487,106,o),
(440,106,c),
(406,106,o),
(372,120,o),
(338,144,c),
(288,29,l),
(334,1,o),
(385,-14,o),
(450,-14,c)
);
}
);
width = 692;
},
{
background = {
shapes = (
{
closed = 1;
nodes = (
(566.505,-10,o),
(635,58,o),
(635,151,c),
(635,303,o),
(446,326,o),
(446,400,c),
(446,426,o),
(476,461,o),
(583,489,c),
(561,643,o),
(457,700,o),
(337,700,cs),
(172,700,o),
(70,596,o),
(70,426,c),
(70,0,l),
(175,0,l),
(175,416,l),
(175,539,o),
(231,603,o),
(338,603,cs),
(402,603,o),
(455,578,o),
(472,529,c),
(385,493,o),
(353,442,o),
(353,390,c),
(353,258,o),
(536,249,o),
(536,146,c),
(536,105,o),
(496.833,80,o),
(442,80,c),
(398.396,80,o),
(365.694,94.143,o),
(321,125,c),
(286,35,l),
(327.727,8,o),
(376.944,-10,o),
(439,-10,c)
);
}
);
};
layerId = "0EB46722-B91C-41F5-AE00-C58F8D8E3AB4";
shapes = (
{
closed = 1;
nodes = (
(567,-10,o),
(635,58,o),
(635,151,c),
(635,303,o),
(446,326,o),
(446,400,c),
(446,426,o),
(476,461,o),
(583,489,c),
(561,643,o),
(457,700,o),
(337,700,cs),
(172,700,o),
(70,596,o),
(70,426,c),
(70,0,l),
(175,0,l),
(175,416,l),
(175,539,o),
(231,603,o),
(338,603,cs),
(402,603,o),
(455,578,o),
(472,529,c),
(385,493,o),
(353,442,o),
(353,390,c),
(353,258,o),
(536,249,o),
(536,146,c),
(536,105,o),
(497,80,o),
(442,80,c),
(398,80,o),
(366,94,o),
(321,125,c),
(286,35,l),
(328,8,o),
(377,-10,o),
(439,-10,c)
);
}
);
width = 671;
},
{
associatedMasterId = "0EB46722-B91C-41F5-AE00-C58F8D8E3AB4";
layerId = "89946EFA-3063-4597-8F39-C29AA3B0B012";
shapes = (
{
closed = 1;
nodes = (
(385,493,o),
(353,442,o),
(353,390,c),
(353,258,o),
(536,249,o),
(536,146,c),
(536,105,o),
(496.833,80,o),
(442,80,c),
(398.396,80,o),
(365.694,94.143,o),
(321,125,c),
(286,35,l),
(327.727,8,o),
(376.944,-10,o),
(439,-10,c),
(566.505,-10,o),
(635,58,o),
(635,151,c),
(635,303,o),
(446,326,o),
(446,400,c),
(446,426,o),
(476,461,o),
(583,489,c),
(561,643,o),
(457,700,o),
(337,700,cs),
(172,700,o),
(70,596,o),
(70,426,c),
(70,0,l),
(175,0,l),
(175,416,l),
(175,539,o),
(231,603,o),
(338,603,cs),
(402,603,o),
(455,578,o),
(472,529,c)
);
}
);
width = 671;
}
);
unicode = 7838;
},
{
color = 6;
glyphname = T;
kernLeft = T;
kernRight = T;
lastChange = "2024-03-21 11:17:29 +0000";
layers = (
{
anchors = (
{
name = bottom;
pos = (297,0);
},
{
name = top;
pos = (297,690);
}
);
layerId = m001;
shapes = (
{
closed = 1;
nodes = (
(374,0,l),
(374,690,l),
(220,690,l),
(220,0,l)
);
},
{
closed = 1;
nodes = (
(574,545,l),
(574,690,l),
(20,690,l),
(20,545,l)
);
}
);
width = 594;
},
{
anchors = (
{
name = bottom;
pos = (291,0);
},
{
name = top;
pos = (291,690);
}
);
background = {
anchors = (
{
name = bottom;
pos = (291,0);
},
{
name = top;
pos = (291,690);
}
);
shapes = (
{
closed = 1;
nodes = (
(343,0,l),
(343,690,l),
(238,690,l),
(238,0,l)
);
},
{
closed = 1;
nodes = (
(563,594,l),
(563,690,l),
(18,690,l),
(18,594,l)
);
}
);
};
layerId = "0EB46722-B91C-41F5-AE00-C58F8D8E3AB4";
shapes = (
{
closed = 1;
nodes = (
(343,0,l),
(343,690,l),
(238,690,l),
(238,0,l)
);
},
{
closed = 1;
nodes = (
(563,594,l),
(563,690,l),
(18,690,l),
(18,594,l)
);
}
);
width = 581;
},
{
anchors = (
{
name = bottom;
pos = (291,0);
},
{
name = top;
pos = (291,690);
}
);
associatedMasterId = "0EB46722-B91C-41F5-AE00-C58F8D8E3AB4";
layerId = "89946EFA-3063-4597-8F39-C29AA3B0B012";
shapes = (
{
closed = 1;
nodes = (
(343,0,l),
(343,690,l),
(238,690,l),
(238,0,l)
);
},
{
closed = 1;
nodes = (
(18,594,l),
(563,594,l),
(563,690,l),
(18,690,l)
);
}
);
width = 581;
}
);
unicode = 84;
},
{
color = 6;
glyphname = Tbar;
kernLeft = T;
kernRight = T;
lastChange = "2024-03-21 11:17:29 +0000";
layers = (
{
background = {
shapes = (
{
closed = 1;
nodes = (
(85,261,l),
(490,261,l),
(490,352,l),
(85,352,l)
);
},
{
closed = 1;
nodes = (
(340,0,l),
(340,690,l),
(235,690,l),
(235,0,l)
);
},
{
closed = 1;
nodes = (
(15,594,l),
(560,594,l),
(560,690,l),
(15,690,l)
);
}
);
};
layerId = m001;
shapes = (
{
closed = 1;
nodes = (
(374,0,l),
(374,690,l),
(220,690,l),
(220,0,l)
);
},
{
closed = 1;
nodes = (
(534,246,l),
(534,367,l),
(60,367,l),
(60,246,l)
);
},
{
closed = 1;
nodes = (
(574,545,l),
(574,690,l),
(20,690,l),
(20,545,l)
);
}
);
width = 594;
},
{
background = {
shapes = (
{
closed = 1;
nodes = (
(343,0,l),
(343,690,l),
(238,690,l),
(238,0,l)
);
},
{
closed = 1;
nodes = (
(493,261,l),
(493,352,l),
(88,352,l),
(88,261,l)
);
},
{
closed = 1;
nodes = (
(563,594,l),
(563,690,l),
(18,690,l),
(18,594,l)
);
}
);
};
layerId = "0EB46722-B91C-41F5-AE00-C58F8D8E3AB4";
shapes = (
{
closed = 1;
nodes = (
(343,0,l),
(343,690,l),
(238,690,l),
(238,0,l)
);
},
{
closed = 1;
nodes = (
(493,261,l),
(493,352,l),
(88,352,l),
(88,261,l)
);
},
{
closed = 1;
nodes = (
(563,594,l),
(563,690,l),
(18,690,l),
(18,594,l)
);
}
);
width = 581;
},
{
associatedMasterId = "0EB46722-B91C-41F5-AE00-C58F8D8E3AB4";
layerId = "89946EFA-3063-4597-8F39-C29AA3B0B012";
shapes = (
{
closed = 1;
nodes = (
(88,261,l),
(493,261,l),
(493,352,l),
(88,352,l)
);
},
{
closed = 1;
nodes = (
(343,0,l),
(343,690,l),
(238,690,l),
(238,0,l)
);
},
{
closed = 1;
nodes = (
(18,594,l),
(563,594,l),
(563,690,l),
(18,690,l)
);
}
);
width = 581;
}
);
unicode = 358;
},
{
color = 10;
glyphname = Tcaron;
kernLeft = T;
kernRight = T;
lastChange = "2024-03-21 11:17:30 +0000";
layers = (
{
layerId = m001;
shapes = (
{
ref = T;
},
{
pos = (47,0);
ref = caroncomb.case;
}
);
width = 594;
},
{
background = {
anchors = (
{
name = bottom;
pos = (291,0);
},
{
name = top;
pos = (291,690);
}
);
shapes = (
{
closed = 1;
nodes = (
(343,0,l),
(343,690,l),
(238,690,l),
(238,0,l)
);
},
{
closed = 1;
nodes = (
(563,594,l),
(563,690,l),
(18,690,l),
(18,594,l)
);
},
{
closed = 1;
nodes = (
(360,735,l),
(474,845,l),
(375,845,l),
(226,735,l)
);
},
{
closed = 1;
nodes = (
(356,735,l),
(207,845,l),
(108,845,l),
(222,735,l)
);
}
);
};
layerId = "0EB46722-B91C-41F5-AE00-C58F8D8E3AB4";
shapes = (
{
ref = T;
},
{
pos = (41,0);
ref = caroncomb.case;
}
);
width = 581;
},
{
associatedMasterId = "0EB46722-B91C-41F5-AE00-C58F8D8E3AB4";
layerId = "89946EFA-3063-4597-8F39-C29AA3B0B012";
shapes = (
{
ref = T;
},
{
pos = (41,0);
ref = caroncomb.case;
}
);
width = 581;
}
);
unicode = 356;
},
{
color = 10;
glyphname = Tcedilla;
kernLeft = T;
kernRight = T;
lastChange = "2024-03-21 11:17:30 +0000";
layers = (
{
layerId = m001;
shapes = (
{
ref = T;
},
{
pos = (44,0);
ref = cedillacomb;
}
);
width = 594;
},
{
background = {
anchors = (
{
name = bottom;
pos = (291,0);
},
{
name = top;
pos = (291,690);
}
);
shapes = (
{
closed = 1;
nodes = (
(343,0,l),
(343,690,l),
(238,690,l),
(238,0,l)
);
},
{
closed = 1;
nodes = (
(563,594,l),
(563,690,l),
(18,690,l),
(18,594,l)
);
},
{
closed = 1;
nodes = (
(342,-185,o),
(378,-151,o),
(378,-106,cs),
(378,-57,o),
(341,-29,o),
(293,-29,c),
(305,-43,l),
(311,9,l),
(255,11,l),
(242,-73,l),
(253,-71,o),
(260,-70,o),
(271,-70,c),
(295,-70,o),
(309,-79,o),
(309,-96,c),
(309,-110,o),
(296,-119,o),
(275,-119,c),
(255,-119,o),
(239,-114,o),
(221,-105,c),
(208,-169,l),
(233,-180,o),
(258,-185,o),
(284,-185,c)
);
}
);
};
layerId = "0EB46722-B91C-41F5-AE00-C58F8D8E3AB4";
shapes = (
{
ref = T;
},
{
pos = (39,0);
ref = cedillacomb;
}
);
width = 581;
},
{
associatedMasterId = "0EB46722-B91C-41F5-AE00-C58F8D8E3AB4";
layerId = "89946EFA-3063-4597-8F39-C29AA3B0B012";
shapes = (
{
ref = T;
},
{
pos = (39,0);
ref = cedilla;
}
);
width = 581;
}
);
unicode = 354;
},
{
color = 10;
glyphname = Tcommaaccent;
kernLeft = T;
kernRight = T;
lastChange = "2024-03-21 11:17:30 +0000";
layers = (
{
layerId = m001;
shapes = (
{
ref = T;
},
{
pos = (153,0);
ref = commaaccentcomb;
}
);
width = 594;
},
{
background = {
anchors = (
{
name = bottom;
pos = (291,0);
},
{
name = top;
pos = (291,690);
}
);
shapes = (
{
closed = 1;
nodes = (
(343,0,l),
(343,690,l),
(238,690,l),
(238,0,l)
);
},
{
closed = 1;
nodes = (
(563,594,l),
(563,690,l),
(18,690,l),
(18,594,l)
);
},
{
closed = 1;
nodes = (
(307,-275,l),
(348,-72,l),
(244,-72,l),
(244,-275,l)
);
}
);
};
layerId = "0EB46722-B91C-41F5-AE00-C58F8D8E3AB4";
shapes = (
{
ref = T;
},
{
pos = (150,0);
ref = commaaccentcomb;
}
);
width = 581;
},
{
associatedMasterId = "0EB46722-B91C-41F5-AE00-C58F8D8E3AB4";
layerId = "89946EFA-3063-4597-8F39-C29AA3B0B012";
shapes = (
{
ref = T;
},
{
pos = (36,0);
ref = commaaccent;
}
);
width = 581;
}
);
unicode = 538;
},
{
color = 6;
glyphname = U;
kernLeft = U;
kernRight = U;
lastChange = "2024-03-22 12:26:09 +0000";
layers = (
{
anchors = (
{
name = bottom;
pos = (346,0);
},
{
name = ogonek;
pos = (452,0);
},
{
name = top;
pos = (346,690);
}
);
layerId = m001;
shapes = (
{
closed = 1;
nodes = (
(532,-14,o),
(638,96,o),
(638,265,c),
(638,690,l),
(486,690,l),
(486,273,l),
(486,184,o),
(437,132,o),
(347,132,cs),
(258,132,o),
(210,184,o),
(210,273,c),
(210,690,l),
(55,690,l),
(55,265,l),
(55,96,o),
(161,-14,o),
(346,-14,cs)
);
}
);
width = 693;
},
{
anchors = (
{
name = bottom;
pos = (337,0);
},
{
name = ogonek;
pos = (418,0);
},
{
name = top;
pos = (337,690);
}
);
background = {
anchors = (
{
name = bottom;
pos = (337,0);
},
{
name = top;
pos = (337,690);
}
);
shapes = (
{
closed = 1;
nodes = (
(503,-10,o),
(605,94,o),
(605,264,c),
(605,690,l),
(503,690,l),
(503,274,l),
(503,151,o),
(446,87,o),
(338,87,cs),
(231,87,o),
(175,150.564,o),
(175,274,c),
(175,690,l),
(70,690,l),
(70,264,l),
(70,94,o),
(172,-10,o),
(337,-10,cs)
);
}
);
};
layerId = "0EB46722-B91C-41F5-AE00-C58F8D8E3AB4";
shapes = (
{
closed = 1;
nodes = (
(503,-10,o),
(605,94,o),
(605,264,c),
(605,690,l),
(503,690,l),
(503,274,l),
(503,151,o),
(446,87,o),
(338,87,cs),
(231,87,o),
(175,151,o),
(175,274,c),
(175,690,l),
(70,690,l),
(70,264,l),
(70,94,o),
(172,-10,o),
(337,-10,cs)
);
}
);
width = 675;
},
{
anchors = (
{
name = bottom;
pos = (337,0);
},
{
name = top;
pos = (337,690);
}
);
associatedMasterId = "0EB46722-B91C-41F5-AE00-C58F8D8E3AB4";
layerId = "89946EFA-3063-4597-8F39-C29AA3B0B012";
shapes = (
{
closed = 1;
nodes = (
(503,151,o),
(446,87,o),
(338,87,cs),
(231,87,o),
(175,150.564,o),
(175,274,c),
(175,690,l),
(70,690,l),
(70,264,l),
(70,94,o),
(172,-10,o),
(337,-10,cs),
(503,-10,o),
(605,94,o),
(605,264,c),
(605,690,l),
(503,690,l),
(503,274,l)
);
}
);
width = 675;
}
);
unicode = 85;
},
{
color = 10;
glyphname = Uacute;
kernLeft = U;
kernRight = U;
lastChange = "2024-03-21 11:17:30 +0000";
layers = (
{
layerId = m001;
shapes = (
{
ref = U;
},
{
pos = (96,0);
ref = acutecomb.case;
}
);
width = 693;
},
{
background = {
anchors = (
{
name = bottom;
pos = (337,0);
},
{
name = top;
pos = (337,690);
}
);
shapes = (
{
closed = 1;
nodes = (
(503,-10,o),
(605,94,o),
(605,264,c),
(605,690,l),
(503,690,l),
(503,274,l),
(503,151,o),
(446,87,o),
(338,87,cs),
(231,87,o),
(175,150.564,o),
(175,274,c),
(175,690,l),
(70,690,l),
(70,264,l),
(70,94,o),
(172,-10,o),
(337,-10,cs)
);
},
{
closed = 1;
nodes = (
(370,735,l),
(507,845,l),
(376,845,l),
(276,735,l)
);
}
);
};
layerId = "0EB46722-B91C-41F5-AE00-C58F8D8E3AB4";
shapes = (
{
ref = U;
},
{
pos = (87,0);
ref = acutecomb.case;
}
);
width = 675;
},
{
associatedMasterId = "0EB46722-B91C-41F5-AE00-C58F8D8E3AB4";
layerId = "89946EFA-3063-4597-8F39-C29AA3B0B012";
shapes = (
{
ref = U;
},
{
pos = (87,0);
ref = acutecomb.case;
}
);
width = 675;
}
);
unicode = 218;
},
{
color = 10;
glyphname = Ubreve;
kernLeft = U;
kernRight = U;
lastChange = "2024-03-21 11:17:30 +0000";
layers = (
{
layerId = m001;
shapes = (
{
ref = U;
},
{
pos = (96,0);
ref = brevecomb.case;
}
);
width = 693;
},
{
background = {
anchors = (
{
name = bottom;
pos = (337,0);
},
{
name = top;
pos = (337,690);
}
);
shapes = (
{
closed = 1;
nodes = (
(503,-10,o),
(605,94,o),
(605,264,c),
(605,690,l),
(503,690,l),
(503,274,l),
(503,151,o),
(446,87,o),
(338,87,cs),
(231,87,o),
(175,150.564,o),
(175,274,c),
(175,690,l),
(70,690,l),
(70,264,l),
(70,94,o),
(172,-10,o),
(337,-10,cs)
);
},
{
closed = 1;
nodes = (
(434,735,o),
(482,777,o),
(487,845,c),
(417,845,l),
(413,820,o),
(392,805,o),
(337,805,c),
(282,805,o),
(261,820,o),
(257,845,c),
(187,845,l),
(192,777,o),
(240,735,o),
(337,735,c)
);
}
);
};
layerId = "0EB46722-B91C-41F5-AE00-C58F8D8E3AB4";
shapes = (
{
ref = U;
},
{
pos = (87,0);
ref = brevecomb.case;
}
);
width = 675;
},
{
associatedMasterId = "0EB46722-B91C-41F5-AE00-C58F8D8E3AB4";
layerId = "89946EFA-3063-4597-8F39-C29AA3B0B012";
shapes = (
{
ref = U;
},
{
pos = (87,0);
ref = brevecomb.case;
}
);
width = 675;
}
);
unicode = 364;
},
{
color = 10;
glyphname = Ucircumflex;
kernLeft = U;
kernRight = U;
lastChange = "2024-03-21 11:17:30 +0000";
layers = (
{
layerId = m001;
shapes = (
{
ref = U;
},
{
pos = (96,0);
ref = circumflexcomb.case;
}
);
width = 693;
},
{
background = {
anchors = (
{
name = bottom;
pos = (337,0);
},
{
name = top;
pos = (337,690);
}
);
shapes = (
{
closed = 1;
nodes = (
(503,-10,o),
(605,94,o),
(605,264,c),
(605,690,l),
(503,690,l),
(503,274,l),
(503,151,o),
(446,87,o),
(338,87,cs),
(231,87,o),
(175,150.564,o),
(175,274,c),
(175,690,l),
(70,690,l),
(70,264,l),
(70,94,o),
(172,-10,o),
(337,-10,cs)
);
},
{
closed = 1;
nodes = (
(520,735,l),
(406,845,l),
(272,845,l),
(421,735,l)
);
},
{
closed = 1;
nodes = (
(253,735,l),
(402,845,l),
(268,845,l),
(154,735,l)
);
}
);
};
layerId = "0EB46722-B91C-41F5-AE00-C58F8D8E3AB4";
shapes = (
{
ref = U;
},
{
pos = (87,0);
ref = circumflexcomb.case;
}
);
width = 675;
},
{
associatedMasterId = "0EB46722-B91C-41F5-AE00-C58F8D8E3AB4";
layerId = "89946EFA-3063-4597-8F39-C29AA3B0B012";
shapes = (
{
ref = U;
},
{
pos = (87,0);
ref = circumflexcomb.case;
}
);
width = 675;
}
);
unicode = 219;
},
{
color = 10;
glyphname = Udieresis;
kernLeft = U;
kernRight = U;
lastChange = "2024-03-21 11:17:30 +0000";
layers = (
{
layerId = m001;
shapes = (
{
ref = U;
},
{
pos = (96,0);
ref = dieresiscomb.case;
}
);
width = 693;
},
{
background = {
anchors = (
{
name = bottom;
pos = (337,0);
},
{
name = top;
pos = (337,690);
}
);
shapes = (
{
closed = 1;
nodes = (
(503,-10,o),
(605,94,o),
(605,264,c),
(605,690,l),
(503,690,l),
(503,274,l),
(503,151,o),
(446,87,o),
(338,87,cs),
(231,87,o),
(175,150.564,o),
(175,274,c),
(175,690,l),
(70,690,l),
(70,264,l),
(70,94,o),
(172,-10,o),
(337,-10,cs)
);
},
{
closed = 1;
nodes = (
(470,742,o),
(495,765,o),
(495,798,cs),
(495,832,o),
(470,855,o),
(438,855,cs),
(406,855,o),
(381,832,o),
(381,798,cs),
(381,765,o),
(406,742,o),
(438,742,cs)
);
},
{
closed = 1;
nodes = (
(268,742,o),
(293,765,o),
(293,798,cs),
(293,832,o),
(268,855,o),
(236,855,cs),
(204,855,o),
(179,832,o),
(179,798,cs),
(179,765,o),
(204,742,o),
(236,742,cs)
);
}
);
};
layerId = "0EB46722-B91C-41F5-AE00-C58F8D8E3AB4";
shapes = (
{
ref = U;
},
{
pos = (87,0);
ref = dieresiscomb.case;
}
);
width = 675;
},
{
associatedMasterId = "0EB46722-B91C-41F5-AE00-C58F8D8E3AB4";
layerId = "89946EFA-3063-4597-8F39-C29AA3B0B012";
shapes = (
{
ref = U;
},
{
pos = (87,0);
ref = dieresiscomb.case;
}
);
width = 675;
}
);
unicode = 220;
},
{
color = 10;
glyphname = Udotbelow;
kernLeft = U;
kernRight = U;
lastChange = "2024-03-21 11:17:30 +0000";
layers = (
{
layerId = m001;
shapes = (
{
ref = U;
},
{
pos = (96,0);
ref = dotbelow;
}
);
width = 693;
},
{
background = {
anchors = (
{
name = bottom;
pos = (337,0);
},
{
name = top;
pos = (337,690);
}
);
shapes = (
{
closed = 1;
nodes = (
(503,-10,o),
(605,94,o),
(605,264,c),
(605,690,l),
(503,690,l),
(503,274,l),
(503,151,o),
(446,87,o),
(338,87,cs),
(231,87,o),
(175,150.564,o),
(175,274,c),
(175,690,l),
(70,690,l),
(70,264,l),
(70,94,o),
(172,-10,o),
(337,-10,cs)
);
},
{
closed = 1;
nodes = (
(372,-195,o),
(399,-170,o),
(399,-133,cs),
(399,-97,o),
(372,-72,o),
(337,-72,cs),
(302,-72,o),
(275,-97,o),
(275,-133,cs),
(275,-170,o),
(302,-195,o),
(337,-195,cs)
);
}
);
};
layerId = "0EB46722-B91C-41F5-AE00-C58F8D8E3AB4";
shapes = (
{
ref = U;
},
{
pos = (87,0);
ref = dotbelow;
}
);
width = 675;
},
{
associatedMasterId = "0EB46722-B91C-41F5-AE00-C58F8D8E3AB4";
layerId = "89946EFA-3063-4597-8F39-C29AA3B0B012";
shapes = (
{
ref = U;
},
{
pos = (87,0);
ref = dotbelow;
}
);
width = 675;
}
);
unicode = 7908;
},
{
color = 10;
glyphname = Ugrave;
kernLeft = U;
kernRight = U;
lastChange = "2024-03-21 11:17:30 +0000";
layers = (
{
layerId = m001;
shapes = (
{
ref = U;
},
{
pos = (96,0);
ref = gravecomb.case;
}
);
width = 693;
},
{
background = {
anchors = (
{
name = bottom;
pos = (337,0);
},
{
name = top;
pos = (337,690);
}
);
shapes = (
{
closed = 1;
nodes = (
(503,-10,o),
(605,94,o),
(605,264,c),
(605,690,l),
(503,690,l),
(503,274,l),
(503,151,o),
(446,87,o),
(338,87,cs),
(231,87,o),
(175,150.564,o),
(175,274,c),
(175,690,l),
(70,690,l),
(70,264,l),
(70,94,o),
(172,-10,o),
(337,-10,cs)
);
},
{
closed = 1;
nodes = (
(398,735,l),
(298,845,l),
(167,845,l),
(304,735,l)
);
}
);
};
layerId = "0EB46722-B91C-41F5-AE00-C58F8D8E3AB4";
shapes = (
{
ref = U;
},
{
pos = (87,0);
ref = gravecomb.case;
}
);
width = 675;
},
{
associatedMasterId = "0EB46722-B91C-41F5-AE00-C58F8D8E3AB4";
layerId = "89946EFA-3063-4597-8F39-C29AA3B0B012";
shapes = (
{
ref = U;
},
{
pos = (87,0);
ref = gravecomb.case;
}
);
width = 675;
}
);
unicode = 217;
},
{
color = 10;
glyphname = Uhungarumlaut;
kernLeft = U;
kernRight = U;
lastChange = "2024-03-21 11:17:30 +0000";
layers = (
{
layerId = m001;
shapes = (
{
ref = U;
},
{
pos = (96,0);
ref = hungarumlautcomb.case;
}
);
width = 693;
},
{
background = {
anchors = (
{
name = bottom;
pos = (337,0);
},
{
name = top;
pos = (337,690);
}
);
shapes = (
{
closed = 1;
nodes = (
(503,-10,o),
(605,94,o),
(605,264,c),
(605,690,l),
(503,690,l),
(503,274,l),
(503,151,o),
(446,87,o),
(338,87,cs),
(231,87,o),
(175,150.564,o),
(175,274,c),
(175,690,l),
(70,690,l),
(70,264,l),
(70,94,o),
(172,-10,o),
(337,-10,cs)
);
},
{
closed = 1;
nodes = (
(458,735,l),
(595,845,l),
(470,845,l),
(370,735,l)
);
},
{
closed = 1;
nodes = (
(312,735,l),
(409,845,l),
(295,845,l),
(224,735,l)
);
}
);
};
layerId = "0EB46722-B91C-41F5-AE00-C58F8D8E3AB4";
shapes = (
{
ref = U;
},
{
pos = (87,0);
ref = hungarumlautcomb.case;
}
);
width = 675;
},
{
associatedMasterId = "0EB46722-B91C-41F5-AE00-C58F8D8E3AB4";
layerId = "89946EFA-3063-4597-8F39-C29AA3B0B012";
shapes = (
{
ref = U;
},
{
pos = (87,0);
ref = hungarumlautcomb.case;
}
);
width = 675;
}
);
unicode = 368;
},
{
color = 10;
glyphname = Umacron;
kernLeft = U;
kernRight = U;
lastChange = "2024-03-21 11:17:30 +0000";
layers = (
{
layerId = m001;
shapes = (
{
ref = U;
},
{
pos = (96,0);
ref = macroncomb.case;
}
);
width = 693;
},
{
background = {
anchors = (
{
name = bottom;
pos = (337,0);
},
{
name = top;
pos = (337,690);
}
);
shapes = (
{
closed = 1;
nodes = (
(503,-10,o),
(605,94,o),
(605,264,c),
(605,690,l),
(503,690,l),
(503,274,l),
(503,151,o),
(446,87,o),
(338,87,cs),
(231,87,o),
(175,150.564,o),
(175,274,c),
(175,690,l),
(70,690,l),
(70,264,l),
(70,94,o),
(172,-10,o),
(337,-10,cs)
);
},
{
closed = 1;
nodes = (
(495,753,l),
(495,837,l),
(179,837,l),
(179,753,l)
);
}
);
};
layerId = "0EB46722-B91C-41F5-AE00-C58F8D8E3AB4";
shapes = (
{
ref = U;
},
{
pos = (87,0);
ref = macroncomb.case;
}
);
width = 675;
},
{
associatedMasterId = "0EB46722-B91C-41F5-AE00-C58F8D8E3AB4";
layerId = "89946EFA-3063-4597-8F39-C29AA3B0B012";
shapes = (
{
ref = U;
},
{
pos = (87,0);
ref = macroncomb.case;
}
);
width = 675;
}
);
unicode = 362;
},
{
color = 10;
glyphname = Uogonek;
kernLeft = U;
kernRight = U;
lastChange = "2024-03-21 13:35:59 +0000";
layers = (
{
background = {
shapes = (
{
closed = 1;
nodes = (
(374,-27,o),
(353,-60,o),
(353,-79,c),
(353,-89,o),
(361,-96,o),
(376,-96,c),
(395,-96,o),
(421,-87,o),
(441,-75,c),
(450,-170,l),
(420,-183,o),
(384,-190,o),
(353,-190,cs),
(281,-190,o),
(242,-156,o),
(242,-111,c),
(242,-69,o),
(270,-32,o),
(372,1,c),
(375,-13,l),
(366,-14,o),
(356,-14,o),
(346,-14,cs),
(161,-14,o),
(55,96,o),
(55,265,c),
(55,690,l),
(210,690,l),
(210,273,l),
(210,184,o),
(258,132,o),
(347,132,cs),
(437,132,o),
(486,184,o),
(486,273,c),
(486,690,l),
(638,690,l),
(638,265,l),
(638,134,o),
(574,38,o),
(458,2,c)
);
}
);
};
layerId = m001;
shapes = (
{
ref = U;
},
{
pos = (113,0);
ref = ogonekcomb;
}
);
width = 693;
},
{
background = {
shapes = (
{
closed = 1;
nodes = (
(361,-185,o),
(396,-176,o),
(424,-165,c),
(415,-84,l),
(392,-94,o),
(358,-106,o),
(338,-106,c),
(325,-106,o),
(317,-101,o),
(317,-89,c),
(317,-65,o),
(350,-27,o),
(444,7,cs),
(546,43,o),
(605,134,o),
(605,264,c),
(605,690,l),
(503,690,l),
(503,274,l),
(503,151,o),
(446,87,o),
(338,87,cs),
(231,87,o),
(175,151,o),
(175,274,c),
(175,690,l),
(70,690,l),
(70,264,l),
(70,94,o),
(172,-10,o),
(337,-10,cs),
(342,-10,o),
(346,-10,o),
(351,-10,c),
(351,-2,l),
(261,-37,o),
(233,-69,o),
(233,-111,c),
(233,-153,o),
(267,-185,o),
(332,-185,cs)
);
}
);
};
layerId = "0EB46722-B91C-41F5-AE00-C58F8D8E3AB4";
shapes = (
{
ref = U;
},
{
pos = (114,0);
ref = ogonekcomb;
}
);
width = 675;
},
{
associatedMasterId = "0EB46722-B91C-41F5-AE00-C58F8D8E3AB4";
layerId = "89946EFA-3063-4597-8F39-C29AA3B0B012";
shapes = (
{
closed = 1;
nodes = (
(350,-27,o),
(317,-65,o),
(317,-89,c),
(317,-101,o),
(325,-106,o),
(338,-106,c),
(358,-106,o),
(392,-94,o),
(415,-84,c),
(424,-165,l),
(396,-176,o),
(361,-185,o),
(332,-185,cs),
(267,-185,o),
(233,-153,o),
(233,-111,c),
(233,-69,o),
(261,-37,o),
(351,-2,c),
(351,-10,l),
(346,-10,o),
(342,-10,o),
(337,-10,cs),
(172,-10,o),
(70,94,o),
(70,264,c),
(70,690,l),
(175,690,l),
(175,274,l),
(175,151,o),
(231,87,o),
(338,87,cs),
(446,87,o),
(503,151,o),
(503,274,c),
(503,690,l),
(605,690,l),
(605,264,l),
(605,134,o),
(546,43,o),
(444,7,cs)
);
}
);
width = 675;
}
);
unicode = 370;
},
{
color = 10;
glyphname = Uring;
kernLeft = U;
kernRight = U;
lastChange = "2024-03-21 11:17:30 +0000";
layers = (
{
layerId = m001;
shapes = (
{
ref = U;
},
{
pos = (96,0);
ref = ringcomb.case;
}
);
width = 693;
},
{
background = {
anchors = (
{
name = bottom;
pos = (337,0);
},
{
name = top;
pos = (337,690);
}
);
shapes = (
{
closed = 1;
nodes = (
(503,-10,o),
(605,94,o),
(605,264,c),
(605,690,l),
(503,690,l),
(503,274,l),
(503,151,o),
(446,87,o),
(338,87,cs),
(231,87,o),
(175,150.564,o),
(175,274,c),
(175,690,l),
(70,690,l),
(70,264,l),
(70,94,o),
(172,-10,o),
(337,-10,cs)
);
},
{
closed = 1;
nodes = (
(393,735,o),
(434,769,o),
(434,821,cs),
(434,874,o),
(393,908,o),
(337,908,cs),
(281,908,o),
(240,874,o),
(240,821,cs),
(240,769,o),
(281,735,o),
(337,735,cs)
);
},
{
closed = 1;
nodes = (
(316,790,o),
(303,804,o),
(303,821,cs),
(303,839,o),
(316,853,o),
(337,853,cs),
(358,853,o),
(371,839,o),
(371,821,cs),
(371,804,o),
(358,790,o),
(337,790,cs)
);
}
);
};
layerId = "0EB46722-B91C-41F5-AE00-C58F8D8E3AB4";
shapes = (
{
ref = U;
},
{
pos = (87,0);
ref = ringcomb.case;
}
);
width = 675;
},
{
associatedMasterId = "0EB46722-B91C-41F5-AE00-C58F8D8E3AB4";
layerId = "89946EFA-3063-4597-8F39-C29AA3B0B012";
shapes = (
{
ref = U;
},
{
pos = (87,0);
ref = ringcomb.case;
}
);
width = 675;
}
);
unicode = 366;
},
{
color = 10;
glyphname = Utilde;
kernLeft = U;
kernRight = U;
lastChange = "2024-03-21 11:17:30 +0000";
layers = (
{
layerId = m001;
shapes = (
{
ref = U;
},
{
pos = (96,0);
ref = tildecomb.case;
}
);
width = 693;
},
{
background = {
anchors = (
{
name = bottom;
pos = (337,0);
},
{
name = top;
pos = (337,690);
}
);
shapes = (
{
closed = 1;
nodes = (
(503,-10,o),
(605,94,o),
(605,264,c),
(605,690,l),
(503,690,l),
(503,274,l),
(503,151,o),
(446,87,o),
(338,87,cs),
(231,87,o),
(175,150.564,o),
(175,274,c),
(175,690,l),
(70,690,l),
(70,264,l),
(70,94,o),
(172,-10,o),
(337,-10,cs)
);
},
{
closed = 1;
nodes = (
(245,735,l),
(246,757,o),
(258,773,o),
(279,773,c),
(310,773,o),
(340,735,o),
(397,735,c),
(454,735,o),
(490,777,o),
(497,845,c),
(429,845,l),
(428,823,o),
(416,807,o),
(395,807,c),
(365,807,o),
(334,845,o),
(277,845,c),
(220,845,o),
(184,803,o),
(177,735,c)
);
}
);
};
layerId = "0EB46722-B91C-41F5-AE00-C58F8D8E3AB4";
shapes = (
{
ref = U;
},
{
pos = (87,0);
ref = tildecomb.case;
}
);
width = 675;
},
{
associatedMasterId = "0EB46722-B91C-41F5-AE00-C58F8D8E3AB4";
layerId = "89946EFA-3063-4597-8F39-C29AA3B0B012";
shapes = (
{
ref = U;
},
{
pos = (87,0);
ref = tildecomb.case;
}
);
width = 675;
}
);
unicode = 360;
},
{
color = 6;
glyphname = V;
kernLeft = V;
kernRight = V;
lastChange = "2024-03-21 11:17:29 +0000";
layers = (
{
layerId = m001;
shapes = (
{
closed = 1;
nodes = (
(377,0,l),
(165,690,l),
(0,690,l),
(221,0,l)
);
},
{
closed = 1;
nodes = (
(454,0,l),
(675,690,l),
(512,690,l),
(306,0,l)
);
}
);
width = 675;
},
{
background = {
shapes = (
{
closed = 1;
nodes = (
(357,0,l),
(125,690,l),
(15,690,l),
(254,0,l)
);
},
{
closed = 1;
nodes = (
(406,0,l),
(645,690,l),
(538,690,l),
(311,0,l)
);
}
);
};
layerId = "0EB46722-B91C-41F5-AE00-C58F8D8E3AB4";
shapes = (
{
closed = 1;
nodes = (
(357,0,l),
(125,690,l),
(15,690,l),
(254,0,l)
);
},
{
closed = 1;
nodes = (
(406,0,l),
(645,690,l),
(538,690,l),
(311,0,l)
);
}
);
width = 660;
},
{
associatedMasterId = "0EB46722-B91C-41F5-AE00-C58F8D8E3AB4";
layerId = "89946EFA-3063-4597-8F39-C29AA3B0B012";
shapes = (
{
closed = 1;
nodes = (
(357,0,l),
(125,690,l),
(15,690,l),
(254,0,l)
);
},
{
closed = 1;
nodes = (
(406,0,l),
(645,690,l),
(538,690,l),
(311,0,l)
);
}
);
width = 660;
}
);
unicode = 86;
},
{
color = 6;
glyphname = W;
kernLeft = W;
kernRight = W;
lastChange = "2024-03-21 11:17:29 +0000";
layers = (
{
anchors = (
{
name = bottom;
pos = (493,0);
},
{
name = top;
pos = (493,690);
}
);
layerId = m001;
shapes = (
{
closed = 1;
nodes = (
(296,0,l),
(164,690,l),
(4,690,l),
(146,0,l)
);
},
{
closed = 1;
nodes = (
(393,0,l),
(517,690,l),
(376,690,l),
(253,0,l)
);
},
{
closed = 1;
nodes = (
(740,0,l),
(613,690,l),
(469,690,l),
(593,0,l)
);
},
{
closed = 1;
nodes = (
(840,0,l),
(982,690,l),
(825,690,l),
(697,0,l)
);
}
);
width = 986;
},
{
anchors = (
{
name = bottom;
pos = (461,0);
},
{
name = top;
pos = (461,690);
}
);
background = {
anchors = (
{
name = bottom;
pos = (461,0);
},
{
name = top;
pos = (461,690);
}
);
shapes = (
{
closed = 1;
nodes = (
(271,0,l),
(124,690,l),
(18,690,l),
(172,0,l)
);
},
{
closed = 1;
nodes = (
(329,0,l),
(480,690,l),
(385,690,l),
(235,0,l)
);
},
{
closed = 1;
nodes = (
(692,0,l),
(540,690,l),
(442,690,l),
(594,0,l)
);
},
{
closed = 1;
nodes = (
(749,0,l),
(903,690,l),
(800,690,l),
(656,0,l)
);
}
);
};
layerId = "0EB46722-B91C-41F5-AE00-C58F8D8E3AB4";
shapes = (
{
closed = 1;
nodes = (
(271,0,l),
(124,690,l),
(18,690,l),
(172,0,l)
);
},
{
closed = 1;
nodes = (
(329,0,l),
(480,690,l),
(385,690,l),
(235,0,l)
);
},
{
closed = 1;
nodes = (
(692,0,l),
(540,690,l),
(442,690,l),
(594,0,l)
);
},
{
closed = 1;
nodes = (
(749,0,l),
(903,690,l),
(800,690,l),
(656,0,l)
);
}
);
width = 921;
},
{
anchors = (
{
name = bottom;
pos = (462,0);
},
{
name = top;
pos = (462,690);
}
);
associatedMasterId = "0EB46722-B91C-41F5-AE00-C58F8D8E3AB4";
layerId = "89946EFA-3063-4597-8F39-C29AA3B0B012";
shapes = (
{
closed = 1;
nodes = (
(271,0,l),
(124,690,l),
(18,690,l),
(172,0,l)
);
},
{
closed = 1;
nodes = (
(329,0,l),
(480,690,l),
(385,690,l),
(235,0,l)
);
},
{
closed = 1;
nodes = (
(692,0,l),
(540,690,l),
(442,690,l),
(594,0,l)
);
},
{
closed = 1;
nodes = (
(749,0,l),
(903,690,l),
(800,690,l),
(656,0,l)
);
}
);
width = 921;
}
);
unicode = 87;
},
{
color = 10;
glyphname = Wacute;
kernLeft = W;
kernRight = W;
lastChange = "2024-03-21 11:17:30 +0000";
layers = (
{
layerId = m001;
shapes = (
{
ref = W;
},
{
pos = (243,0);
ref = acutecomb.case;
}
);
width = 986;
},
{
background = {
anchors = (
{
name = bottom;
pos = (461,0);
},
{
name = top;
pos = (461,690);
}
);
shapes = (
{
closed = 1;
nodes = (
(271,0,l),
(124,690,l),
(18,690,l),
(172,0,l)
);
},
{
closed = 1;
nodes = (
(329,0,l),
(480,690,l),
(385,690,l),
(235,0,l)
);
},
{
closed = 1;
nodes = (
(692,0,l),
(540,690,l),
(442,690,l),
(594,0,l)
);
},
{
closed = 1;
nodes = (
(749,0,l),
(903,690,l),
(800,690,l),
(656,0,l)
);
},
{
closed = 1;
nodes = (
(494,735,l),
(631,845,l),
(500,845,l),
(400,735,l)
);
}
);
};
layerId = "0EB46722-B91C-41F5-AE00-C58F8D8E3AB4";
shapes = (
{
ref = W;
},
{
pos = (211,0);
ref = acutecomb.case;
}
);
width = 921;
},
{
associatedMasterId = "0EB46722-B91C-41F5-AE00-C58F8D8E3AB4";
layerId = "89946EFA-3063-4597-8F39-C29AA3B0B012";
shapes = (
{
ref = W;
},
{
pos = (211,0);
ref = acutecomb.case;
}
);
width = 921;
}
);
unicode = 7810;
},
{
color = 10;
glyphname = Wcircumflex;
kernLeft = W;
kernRight = W;
lastChange = "2024-03-21 11:17:30 +0000";
layers = (
{
layerId = m001;
shapes = (
{
ref = W;
},
{
pos = (243,0);
ref = circumflexcomb.case;
}
);
width = 986;
},
{
background = {
anchors = (
{
name = bottom;
pos = (461,0);
},
{
name = top;
pos = (461,690);
}
);
shapes = (
{
closed = 1;
nodes = (
(271,0,l),
(124,690,l),
(18,690,l),
(172,0,l)
);
},
{
closed = 1;
nodes = (
(329,0,l),
(480,690,l),
(385,690,l),
(235,0,l)
);
},
{
closed = 1;
nodes = (
(692,0,l),
(540,690,l),
(442,690,l),
(594,0,l)
);
},
{
closed = 1;
nodes = (
(749,0,l),
(903,690,l),
(800,690,l),
(656,0,l)
);
},
{
closed = 1;
nodes = (
(644,735,l),
(530,845,l),
(396,845,l),
(545,735,l)
);
},
{
closed = 1;
nodes = (
(377,735,l),
(526,845,l),
(392,845,l),
(278,735,l)
);
}
);
};
layerId = "0EB46722-B91C-41F5-AE00-C58F8D8E3AB4";
shapes = (
{
ref = W;
},
{
pos = (211,0);
ref = circumflexcomb.case;
}
);
width = 921;
},
{
associatedMasterId = "0EB46722-B91C-41F5-AE00-C58F8D8E3AB4";
layerId = "89946EFA-3063-4597-8F39-C29AA3B0B012";
shapes = (
{
ref = W;
},
{
pos = (211,0);
ref = circumflexcomb.case;
}
);
width = 921;
}
);
unicode = 372;
},
{
color = 10;
glyphname = Wdieresis;
kernLeft = W;
kernRight = W;
lastChange = "2024-03-21 11:17:30 +0000";
layers = (
{
layerId = m001;
shapes = (
{
ref = W;
},
{
pos = (243,0);
ref = dieresiscomb.case;
}
);
width = 986;
},
{
background = {
anchors = (
{
name = bottom;
pos = (461,0);
},
{
name = top;
pos = (461,690);
}
);
shapes = (
{
closed = 1;
nodes = (
(271,0,l),
(124,690,l),
(18,690,l),
(172,0,l)
);
},
{
closed = 1;
nodes = (
(329,0,l),
(480,690,l),
(385,690,l),
(235,0,l)
);
},
{
closed = 1;
nodes = (
(692,0,l),
(540,690,l),
(442,690,l),
(594,0,l)
);
},
{
closed = 1;
nodes = (
(749,0,l),
(903,690,l),
(800,690,l),
(656,0,l)
);
},
{
closed = 1;
nodes = (
(594,742,o),
(619,765,o),
(619,798,cs),
(619,832,o),
(594,855,o),
(562,855,cs),
(530,855,o),
(505,832,o),
(505,798,cs),
(505,765,o),
(530,742,o),
(562,742,cs)
);
},
{
closed = 1;
nodes = (
(392,742,o),
(417,765,o),
(417,798,cs),
(417,832,o),
(392,855,o),
(360,855,cs),
(328,855,o),
(303,832,o),
(303,798,cs),
(303,765,o),
(328,742,o),
(360,742,cs)
);
}
);
};
layerId = "0EB46722-B91C-41F5-AE00-C58F8D8E3AB4";
shapes = (
{
ref = W;
},
{
pos = (211,0);
ref = dieresiscomb.case;
}
);
width = 921;
},
{
associatedMasterId = "0EB46722-B91C-41F5-AE00-C58F8D8E3AB4";
layerId = "89946EFA-3063-4597-8F39-C29AA3B0B012";
shapes = (
{
ref = W;
},
{
pos = (211,0);
ref = dieresiscomb.case;
}
);
width = 921;
}
);
unicode = 7812;
},
{
color = 10;
glyphname = Wgrave;
kernLeft = W;
kernRight = W;
lastChange = "2024-03-21 11:17:30 +0000";
layers = (
{
layerId = m001;
shapes = (
{
ref = W;
},
{
pos = (243,0);
ref = gravecomb.case;
}
);
width = 986;
},
{
background = {
anchors = (
{
name = bottom;
pos = (461,0);
},
{
name = top;
pos = (461,690);
}
);
shapes = (
{
closed = 1;
nodes = (
(271,0,l),
(124,690,l),
(18,690,l),
(172,0,l)
);
},
{
closed = 1;
nodes = (
(329,0,l),
(480,690,l),
(385,690,l),
(235,0,l)
);
},
{
closed = 1;
nodes = (
(692,0,l),
(540,690,l),
(442,690,l),
(594,0,l)
);
},
{
closed = 1;
nodes = (
(749,0,l),
(903,690,l),
(800,690,l),
(656,0,l)
);
},
{
closed = 1;
nodes = (
(522,735,l),
(422,845,l),
(291,845,l),
(428,735,l)
);
}
);
};
layerId = "0EB46722-B91C-41F5-AE00-C58F8D8E3AB4";
shapes = (
{
ref = W;
},
{
pos = (211,0);
ref = gravecomb.case;
}
);
width = 921;
},
{
associatedMasterId = "0EB46722-B91C-41F5-AE00-C58F8D8E3AB4";
layerId = "89946EFA-3063-4597-8F39-C29AA3B0B012";
shapes = (
{
ref = W;
},
{
pos = (211,0);
ref = gravecomb.case;
}
);
width = 921;
}
);
unicode = 7808;
},
{
color = 6;
glyphname = X;
kernLeft = X;
kernRight = X;
lastChange = "2024-03-21 11:17:29 +0000";
layers = (
{
layerId = m001;
shapes = (
{
closed = 1;
nodes = (
(635,0,l),
(190,690,l),
(10,690,l),
(455,0,l)
);
},
{
closed = 1;
nodes = (
(175,0,l),
(329,251,l),
(391,330,l),
(625,690,l),
(450,690,l),
(306,456,l),
(244,376,l),
(0,0,l)
);
}
);
width = 635;
},
{
background = {
shapes = (
{
closed = 1;
nodes = (
(597,0,l),
(145,690,l),
(23,690,l),
(475,0,l)
);
},
{
closed = 1;
nodes = (
(132,0,l),
(311,284,l),
(351,336,l),
(587,690,l),
(468,690,l),
(300,424,l),
(259,370,l),
(13,0,l)
);
}
);
};
layerId = "0EB46722-B91C-41F5-AE00-C58F8D8E3AB4";
shapes = (
{
closed = 1;
nodes = (
(597,0,l),
(145,690,l),
(23,690,l),
(475,0,l)
);
},
{
closed = 1;
nodes = (
(132,0,l),
(311,284,l),
(351,336,l),
(587,690,l),
(468,690,l),
(300,424,l),
(259,370,l),
(13,0,l)
);
}
);
width = 610;
},
{
associatedMasterId = "0EB46722-B91C-41F5-AE00-C58F8D8E3AB4";
layerId = "89946EFA-3063-4597-8F39-C29AA3B0B012";
shapes = (
{
closed = 1;
nodes = (
(597,0,l),
(145,690,l),
(23,690,l),
(475,0,l)
);
},
{
closed = 1;
nodes = (
(311,284,l),
(351,336,l),
(587,690,l),
(468,690,l),
(300,424,l),
(259,370,l),
(13,0,l),
(132,0,l)
);
}
);
width = 610;
}
);
unicode = 88;
},
{
color = 6;
glyphname = Y;
kernLeft = Y;
kernRight = Y;
lastChange = "2024-03-21 11:17:29 +0000";
layers = (
{
anchors = (
{
name = top;
pos = (325,690);
}
);
layerId = m001;
shapes = (
{
closed = 1;
nodes = (
(361,343,l),
(172,690,l),
(-2,690,l),
(261,220,l)
);
},
{
closed = 1;
nodes = (
(396,0,l),
(396,381,l),
(242,381,l),
(242,0,l)
);
},
{
closed = 1;
nodes = (
(642,690,l),
(474,690,l),
(289,343,l),
(378,221,l)
);
}
);
width = 640;
},
{
anchors = (
{
name = top;
pos = (305,690);
}
);
background = {
anchors = (
{
name = top;
pos = (305,690);
}
);
shapes = (
{
closed = 1;
nodes = (
(332,320,l),
(123,690,l),
(3,690,l),
(265,243,l)
);
},
{
closed = 1;
nodes = (
(352,0,l),
(352,350,l),
(247,350,l),
(247,0,l)
);
},
{
closed = 1;
nodes = (
(597,690,l),
(480,690,l),
(274,320,l),
(335,243,l)
);
}
);
};
layerId = "0EB46722-B91C-41F5-AE00-C58F8D8E3AB4";
shapes = (
{
closed = 1;
nodes = (
(332,320,l),
(123,690,l),
(3,690,l),
(265,243,l)
);
},
{
closed = 1;
nodes = (
(352,0,l),
(352,350,l),
(247,350,l),
(247,0,l)
);
},
{
closed = 1;
nodes = (
(597,690,l),
(480,690,l),
(274,320,l),
(335,243,l)
);
}
);
width = 600;
},
{
anchors = (
{
name = top;
pos = (305,690);
}
);
associatedMasterId = "0EB46722-B91C-41F5-AE00-C58F8D8E3AB4";
layerId = "89946EFA-3063-4597-8F39-C29AA3B0B012";
shapes = (
{
closed = 1;
nodes = (
(332,320,l),
(123,690,l),
(3,690,l),
(265,243,l)
);
},
{
closed = 1;
nodes = (
(335,243,l),
(597,690,l),
(480,690,l),
(274,320,l)
);
},
{
closed = 1;
nodes = (
(352,0,l),
(352,350,l),
(247,350,l),
(247,0,l)
);
}
);
width = 600;
}
);
unicode = 89;
},
{
color = 10;
glyphname = Yacute;
kernLeft = Y;
kernRight = Y;
lastChange = "2024-03-21 11:17:30 +0000";
layers = (
{
layerId = m001;
shapes = (
{
ref = Y;
},
{
pos = (75,0);
ref = acutecomb.case;
}
);
width = 640;
},
{
background = {
anchors = (
{
name = top;
pos = (305,690);
}
);
shapes = (
{
closed = 1;
nodes = (
(332,320,l),
(123,690,l),
(3,690,l),
(265,243,l)
);
},
{
closed = 1;
nodes = (
(352,0,l),
(352,350,l),
(247,350,l),
(247,0,l)
);
},
{
closed = 1;
nodes = (
(597,690,l),
(480,690,l),
(274,320,l),
(335,243,l)
);
},
{
closed = 1;
nodes = (
(338,735,l),
(475,845,l),
(344,845,l),
(244,735,l)
);
}
);
};
layerId = "0EB46722-B91C-41F5-AE00-C58F8D8E3AB4";
shapes = (
{
ref = Y;
},
{
pos = (55,0);
ref = acutecomb.case;
}
);
width = 600;
},
{
associatedMasterId = "0EB46722-B91C-41F5-AE00-C58F8D8E3AB4";
layerId = "89946EFA-3063-4597-8F39-C29AA3B0B012";
shapes = (
{
ref = Y;
},
{
pos = (55,0);
ref = acutecomb.case;
}
);
width = 600;
}
);
unicode = 221;
},
{
color = 10;
glyphname = Ycircumflex;
kernLeft = Y;
kernRight = Y;
lastChange = "2024-03-21 11:17:30 +0000";
layers = (
{
layerId = m001;
shapes = (
{
ref = Y;
},
{
pos = (75,0);
ref = circumflexcomb.case;
}
);
width = 640;
},
{
background = {
anchors = (
{
name = top;
pos = (305,690);
}
);
shapes = (
{
closed = 1;
nodes = (
(332,320,l),
(123,690,l),
(3,690,l),
(265,243,l)
);
},
{
closed = 1;
nodes = (
(352,0,l),
(352,350,l),
(247,350,l),
(247,0,l)
);
},
{
closed = 1;
nodes = (
(597,690,l),
(480,690,l),
(274,320,l),
(335,243,l)
);
},
{
closed = 1;
nodes = (
(488,735,l),
(374,845,l),
(240,845,l),
(389,735,l)
);
},
{
closed = 1;
nodes = (
(221,735,l),
(370,845,l),
(236,845,l),
(122,735,l)
);
}
);
};
layerId = "0EB46722-B91C-41F5-AE00-C58F8D8E3AB4";
shapes = (
{
ref = Y;
},
{
pos = (55,0);
ref = circumflexcomb.case;
}
);
width = 600;
},
{
associatedMasterId = "0EB46722-B91C-41F5-AE00-C58F8D8E3AB4";
layerId = "89946EFA-3063-4597-8F39-C29AA3B0B012";
shapes = (
{
ref = Y;
},
{
pos = (55,0);
ref = circumflexcomb.case;
}
);
width = 600;
}
);
unicode = 374;
},
{
color = 10;
glyphname = Ydieresis;
kernLeft = Y;
kernRight = Y;
lastChange = "2024-03-21 11:17:30 +0000";
layers = (
{
layerId = m001;
shapes = (
{
ref = Y;
},
{
pos = (75,0);
ref = dieresiscomb.case;
}
);
width = 640;
},
{
background = {
anchors = (
{
name = top;
pos = (305,690);
}
);
shapes = (
{
closed = 1;
nodes = (
(332,320,l),
(123,690,l),
(3,690,l),
(265,243,l)
);
},
{
closed = 1;
nodes = (
(352,0,l),
(352,350,l),
(247,350,l),
(247,0,l)
);
},
{
closed = 1;
nodes = (
(597,690,l),
(480,690,l),
(274,320,l),
(335,243,l)
);
},
{
closed = 1;
nodes = (
(438,742,o),
(463,765,o),
(463,798,cs),
(463,832,o),
(438,855,o),
(406,855,cs),
(374,855,o),
(349,832,o),
(349,798,cs),
(349,765,o),
(374,742,o),
(406,742,cs)
);
},
{
closed = 1;
nodes = (
(236,742,o),
(261,765,o),
(261,798,cs),
(261,832,o),
(236,855,o),
(204,855,cs),
(172,855,o),
(147,832,o),
(147,798,cs),
(147,765,o),
(172,742,o),
(204,742,cs)
);
}
);
};
layerId = "0EB46722-B91C-41F5-AE00-C58F8D8E3AB4";
shapes = (
{
ref = Y;
},
{
pos = (55,0);
ref = dieresiscomb.case;
}
);
width = 600;
},
{
associatedMasterId = "0EB46722-B91C-41F5-AE00-C58F8D8E3AB4";
layerId = "89946EFA-3063-4597-8F39-C29AA3B0B012";
shapes = (
{
ref = Y;
},
{
pos = (55,0);
ref = dieresiscomb.case;
}
);
width = 600;
}
);
unicode = 376;
},
{
color = 10;
glyphname = Ygrave;
kernLeft = Y;
kernRight = Y;
lastChange = "2024-03-21 11:17:30 +0000";
layers = (
{
layerId = m001;
shapes = (
{
ref = Y;
},
{
pos = (75,0);
ref = gravecomb.case;
}
);
width = 640;
},
{
background = {
anchors = (
{
name = top;
pos = (305,690);
}
);
shapes = (
{
closed = 1;
nodes = (
(332,320,l),
(123,690,l),
(3,690,l),
(265,243,l)
);
},
{
closed = 1;
nodes = (
(352,0,l),
(352,350,l),
(247,350,l),
(247,0,l)
);
},
{
closed = 1;
nodes = (
(597,690,l),
(480,690,l),
(274,320,l),
(335,243,l)
);
},
{
closed = 1;
nodes = (
(366,735,l),
(266,845,l),
(135,845,l),
(272,735,l)
);
}
);
};
layerId = "0EB46722-B91C-41F5-AE00-C58F8D8E3AB4";
shapes = (
{
ref = Y;
},
{
pos = (55,0);
ref = gravecomb.case;
}
);
width = 600;
},
{
associatedMasterId = "0EB46722-B91C-41F5-AE00-C58F8D8E3AB4";
layerId = "89946EFA-3063-4597-8F39-C29AA3B0B012";
shapes = (
{
ref = Y;
},
{
pos = (55,0);
ref = gravecomb.case;
}
);
width = 600;
}
);
unicode = 7922;
},
{
color = 10;
glyphname = Ymacron;
kernLeft = Y;
kernRight = Y;
lastChange = "2024-03-21 11:17:30 +0000";
layers = (
{
layerId = m001;
shapes = (
{
ref = Y;
},
{
pos = (75,0);
ref = macroncomb.case;
}
);
width = 640;
},
{
background = {
anchors = (
{
name = top;
pos = (305,690);
}
);
shapes = (
{
closed = 1;
nodes = (
(332,320,l),
(123,690,l),
(3,690,l),
(265,243,l)
);
},
{
closed = 1;
nodes = (
(352,0,l),
(352,350,l),
(247,350,l),
(247,0,l)
);
},
{
closed = 1;
nodes = (
(597,690,l),
(480,690,l),
(274,320,l),
(335,243,l)
);
},
{
closed = 1;
nodes = (
(463,753,l),
(463,837,l),
(147,837,l),
(147,753,l)
);
}
);
};
layerId = "0EB46722-B91C-41F5-AE00-C58F8D8E3AB4";
shapes = (
{
ref = Y;
},
{
pos = (55,0);
ref = macroncomb.case;
}
);
width = 600;
},
{
associatedMasterId = "0EB46722-B91C-41F5-AE00-C58F8D8E3AB4";
layerId = "89946EFA-3063-4597-8F39-C29AA3B0B012";
shapes = (
{
ref = Y;
},
{
pos = (55,0);
ref = macroncomb.case;
}
);
width = 600;
}
);
unicode = 562;
},
{
color = 10;
glyphname = Ytilde;
kernLeft = Y;
kernRight = Y;
lastChange = "2024-03-21 11:17:30 +0000";
layers = (
{
layerId = m001;
shapes = (
{
ref = Y;
},
{
pos = (75,0);
ref = tildecomb.case;
}
);
width = 640;
},
{
background = {
anchors = (
{
name = top;
pos = (305,690);
}
);
shapes = (
{
closed = 1;
nodes = (
(332,320,l),
(123,690,l),
(3,690,l),
(265,243,l)
);
},
{
closed = 1;
nodes = (
(352,0,l),
(352,350,l),
(247,350,l),
(247,0,l)
);
},
{
closed = 1;
nodes = (
(597,690,l),
(480,690,l),
(274,320,l),
(335,243,l)
);
},
{
closed = 1;
nodes = (
(213,735,l),
(214,757,o),
(226,773,o),
(247,773,c),
(278,773,o),
(308,735,o),
(365,735,c),
(422,735,o),
(458,777,o),
(465,845,c),
(397,845,l),
(396,823,o),
(384,807,o),
(363,807,c),
(333,807,o),
(302,845,o),
(245,845,c),
(188,845,o),
(152,803,o),
(145,735,c)
);
}
);
};
layerId = "0EB46722-B91C-41F5-AE00-C58F8D8E3AB4";
shapes = (
{
ref = Y;
},
{
pos = (55,0);
ref = tildecomb.case;
}
);
width = 600;
},
{
associatedMasterId = "0EB46722-B91C-41F5-AE00-C58F8D8E3AB4";
layerId = "89946EFA-3063-4597-8F39-C29AA3B0B012";
shapes = (
{
ref = Y;
},
{
pos = (55,0);
ref = tildecomb.case;
}
);
width = 600;
}
);
unicode = 7928;
},
{
color = 6;
glyphname = Z;
kernLeft = Z;
kernRight = Z;
lastChange = "2024-03-21 11:17:29 +0000";
layers = (
{
anchors = (
{
name = bottom;
pos = (309,0);
},
{
name = center;
pos = (309,345);
},
{
name = top;
pos = (309,690);
}
);
layerId = m001;
shapes = (
{
closed = 1;
nodes = (
(592,0,l),
(592,140,l),
(238,140,l),
(580,587,l),
(580,690,l),
(40,690,l),
(40,550,l),
(366,550,l),
(25,103,l),
(25,0,l)
);
}
);
width = 617;
},
{
anchors = (
{
name = bottom;
pos = (309,0);
},
{
name = center;
pos = (309,345);
},
{
name = top;
pos = (309,690);
}
);
background = {
anchors = (
{
name = bottom;
pos = (309,0);
},
{
name = center;
pos = (309,345);
},
{
name = top;
pos = (309,690);
}
);
shapes = (
{
closed = 1;
nodes = (
(161,52,l),
(572,638,l),
(445,638,l),
(34,52,l)
);
},
{
closed = 1;
nodes = (
(584,0,l),
(584,96,l),
(74,96,l),
(34,52,l),
(34,0,l)
);
},
{
closed = 1;
nodes = (
(532,594,l),
(572,638,l),
(572,690,l),
(49,690,l),
(49,594,l)
);
}
);
};
layerId = "0EB46722-B91C-41F5-AE00-C58F8D8E3AB4";
shapes = (
{
closed = 1;
nodes = (
(584,0,l),
(584,96,l),
(192,96,l),
(572,638,l),
(572,690,l),
(49,690,l),
(49,594,l),
(414,594,l),
(34,52,l),
(34,0,l)
);
}
);
width = 618;
},
{
anchors = (
{
name = bottom;
pos = (314,0);
},
{
name = top;
pos = (314,690);
}
);
associatedMasterId = "0EB46722-B91C-41F5-AE00-C58F8D8E3AB4";
background = {
shapes = (
{
closed = 1;
nodes = (
(155,0,l),
(155,530,l),
(55,530,l),
(55,0,l)
);
},
{
closed = 1;
nodes = (
(395,0,l),
(495,0,l),
(495,332,l),
(495,460,o),
(420,540,o),
(313,540,c),
(204,540,o),
(122,451,o),
(122,309,c),
(155,309,l),
(155,406,o),
(208,457,o),
(275,457,c),
(342,457,o),
(395,406,o),
(395,309,c)
);
}
);
};
layerId = "89946EFA-3063-4597-8F39-C29AA3B0B012";
shapes = (
{
closed = 1;
nodes = (
(49,594,l),
(532,594,l),
(572,638,l),
(572,690,l),
(49,690,l)
);
},
{
closed = 1;
nodes = (
(34,0,l),
(584,0,l),
(584,96,l),
(74,96,l),
(34,52,l)
);
},
{
closed = 1;
nodes = (
(161,52,l),
(572,638,l),
(445,638,l),
(34,52,l)
);
}
);
width = 618;
}
);
unicode = 90;
},
